<svg width="185" height="117" viewBox="0 0 185 117" fill="none" xmlns="http://www.w3.org/2000/svg">
<path d="M73.4336 60L92.2736 34H76.1536L76.7136 32H95.2736L94.8336 33.52L75.8336 60H73.4336ZM100.823 60.48C96.743 60.48 93.5963 58.8133 91.383 55.48L93.103 54.4C95.023 57.2533 97.6363 58.68 100.943 58.68C103.583 58.68 105.743 57.9067 107.423 56.36C109.13 54.8133 109.983 52.9733 109.983 50.84C109.983 48.9733 109.356 47.5067 108.103 46.44C106.85 45.3733 105.236 44.84 103.263 44.84C101.076 44.84 98.9296 45.4267 96.823 46.6L95.503 45.56L99.943 32H115.063L114.503 33.92H101.223L97.783 44.28C98.3963 43.9333 99.2496 43.6267 100.343 43.36C101.463 43.0933 102.436 42.96 103.263 42.96C105.983 42.96 108.143 43.6667 109.743 45.08C111.343 46.4667 112.143 48.36 112.143 50.76C112.143 53.4533 111.09 55.7467 108.983 57.64C106.876 59.5333 104.156 60.48 100.823 60.48Z" fill="#2D2421"/>
<path d="M62.1623 88.216C61.0823 88.216 60.2543 88.045 59.6783 87.703L60.5153 86.029C60.9113 86.209 61.4423 86.299 62.1083 86.299C62.4863 86.299 62.8283 86.245 63.1343 86.137C63.4583 86.029 63.8813 85.723 64.4033 85.219C64.9433 84.697 65.4563 83.986 65.9423 83.086C66.4463 82.168 67.0313 80.827 67.6973 79.063C68.3633 77.299 69.0203 75.202 69.6683 72.772L70.6403 69.1H82.7633L77.6873 88H75.5813L80.1173 71.044H72.1793L71.5583 73.312C70.8743 75.886 70.1813 78.1 69.4793 79.954C68.7953 81.79 68.1563 83.239 67.5623 84.301C66.9683 85.345 66.3383 86.173 65.6723 86.785C65.0243 87.379 64.4393 87.766 63.9173 87.946C63.3953 88.126 62.8103 88.216 62.1623 88.216ZM83.5864 88L88.6624 69.1H102.189L101.649 71.044H90.2554L88.5274 77.497H98.7064L98.1664 79.441H88.0144L86.2324 86.056H97.7614L97.2484 88H83.5864ZM106.248 88L110.784 71.071H104.412L104.952 69.1H119.829L119.289 71.071H112.917L108.381 88H106.248Z" fill="#2D2421"/>
<path d="M92.5 1C117.884 1 140.817 7.50895 157.373 17.9795C173.942 28.458 184 42.8092 184 58.5C184 74.1908 173.942 88.542 157.373 99.0205C140.817 109.491 117.884 116 92.5 116C67.1165 116 44.1829 109.491 27.627 99.0205C11.0585 88.542 1 74.1908 1 58.5C1 42.8092 11.0585 28.458 27.627 17.9795C44.1829 7.50895 67.1165 1 92.5 1Z" stroke="#9B8C87" stroke-opacity="0.5" stroke-width="2"/>
<path d="M92.5 5.5C116.586 5.5 138.368 11.4705 154.111 21.0967C169.863 30.7281 179.5 43.9665 179.5 58.5C179.5 73.0335 169.863 86.2719 154.111 95.9033C138.368 105.529 116.586 111.5 92.5 111.5C68.4143 111.5 46.6324 105.529 30.8887 95.9033C15.1366 86.2719 5.5 73.0335 5.5 58.5C5.5 43.9665 15.1366 30.7281 30.8887 21.0967C46.6324 11.4705 68.4143 5.5 92.5 5.5Z" stroke="#9B8C87" stroke-opacity="0.5"/>
</svg>
