<svg width="185" height="117" viewBox="0 0 185 117" fill="none" xmlns="http://www.w3.org/2000/svg">
<path d="M77.1886 60.48C73.1086 60.48 69.9619 58.8133 67.7486 55.48L69.4686 54.4C71.3886 57.2533 74.0019 58.68 77.3086 58.68C79.9486 58.68 82.1086 57.9067 83.7886 56.36C85.4953 54.8133 86.3486 52.9733 86.3486 50.84C86.3486 48.9733 85.7219 47.5067 84.4686 46.44C83.2153 45.3733 81.6019 44.84 79.6286 44.84C77.4419 44.84 75.2953 45.4267 73.1886 46.6L71.8686 45.56L76.3086 32H91.4286L90.8686 33.92H77.5886L74.1486 44.28C74.7619 43.9333 75.6153 43.6267 76.7086 43.36C77.8286 43.0933 78.8019 42.96 79.6286 42.96C82.3486 42.96 84.5086 43.6667 86.1086 45.08C87.7086 46.4667 88.5086 48.36 88.5086 50.76C88.5086 53.4533 87.4553 55.7467 85.3486 57.64C83.2419 59.5333 80.5219 60.48 77.1886 60.48ZM102.212 60.48C99.2254 60.48 96.9054 59.52 95.252 57.6C93.6254 55.6533 92.812 53.12 92.812 50C92.812 46.96 93.4254 44.0267 94.652 41.2C95.8787 38.3733 97.612 36.0533 99.852 34.24C102.092 32.4267 104.545 31.52 107.212 31.52C110.199 31.52 112.505 32.4933 114.132 34.44C115.785 36.36 116.612 38.88 116.612 42C116.612 45.04 115.999 47.9733 114.772 50.8C113.545 53.6267 111.812 55.9467 109.572 57.76C107.332 59.5733 104.879 60.48 102.212 60.48ZM102.332 58.6C104.439 58.6 106.439 57.7867 108.332 56.16C110.225 54.5333 111.719 52.4533 112.812 49.92C113.905 47.36 114.452 44.72 114.452 42C114.452 39.4933 113.812 37.44 112.532 35.84C111.252 34.2133 109.439 33.4 107.092 33.4C104.985 33.4 102.985 34.2133 101.092 35.84C99.1987 37.4667 97.7054 39.56 96.612 42.12C95.5187 44.6533 94.972 47.28 94.972 50C94.972 52.5067 95.612 54.5733 96.892 56.2C98.172 57.8 99.9854 58.6 102.332 58.6Z" fill="#2D2421"/>
<path d="M62.1623 88.216C61.0823 88.216 60.2543 88.045 59.6783 87.703L60.5153 86.029C60.9113 86.209 61.4423 86.299 62.1083 86.299C62.4863 86.299 62.8283 86.245 63.1343 86.137C63.4583 86.029 63.8813 85.723 64.4033 85.219C64.9433 84.697 65.4563 83.986 65.9423 83.086C66.4463 82.168 67.0313 80.827 67.6973 79.063C68.3633 77.299 69.0203 75.202 69.6683 72.772L70.6403 69.1H82.7633L77.6873 88H75.5813L80.1173 71.044H72.1793L71.5583 73.312C70.8743 75.886 70.1813 78.1 69.4793 79.954C68.7953 81.79 68.1563 83.239 67.5623 84.301C66.9683 85.345 66.3383 86.173 65.6723 86.785C65.0243 87.379 64.4393 87.766 63.9173 87.946C63.3953 88.126 62.8103 88.216 62.1623 88.216ZM83.5864 88L88.6624 69.1H102.189L101.649 71.044H90.2554L88.5274 77.497H98.7064L98.1664 79.441H88.0144L86.2324 86.056H97.7614L97.2484 88H83.5864ZM106.248 88L110.784 71.071H104.412L104.952 69.1H119.829L119.289 71.071H112.917L108.381 88H106.248Z" fill="#2D2421"/>
<path d="M92.5 1C117.884 1 140.817 7.50895 157.373 17.9795C173.942 28.458 184 42.8092 184 58.5C184 74.1908 173.942 88.542 157.373 99.0205C140.817 109.491 117.884 116 92.5 116C67.1165 116 44.1829 109.491 27.627 99.0205C11.0585 88.542 1 74.1908 1 58.5C1 42.8092 11.0585 28.458 27.627 17.9795C44.1829 7.50895 67.1165 1 92.5 1Z" stroke="#9B8C87" stroke-opacity="0.5" stroke-width="2"/>
<path d="M92.5 5.5C116.586 5.5 138.368 11.4705 154.111 21.0967C169.863 30.7281 179.5 43.9665 179.5 58.5C179.5 73.0335 169.863 86.2719 154.111 95.9033C138.368 105.529 116.586 111.5 92.5 111.5C68.4143 111.5 46.6324 105.529 30.8887 95.9033C15.1366 86.2719 5.5 73.0335 5.5 58.5C5.5 43.9665 15.1366 30.7281 30.8887 21.0967C46.6324 11.4705 68.4143 5.5 92.5 5.5Z" stroke="#9B8C87" stroke-opacity="0.5"/>
</svg>
