<svg width="185" height="117" viewBox="0 0 185 117" fill="none" xmlns="http://www.w3.org/2000/svg">
<path d="M62.7809 60L69.7009 34.2L63.8209 36.04L63.7409 34.16L70.7809 31.8H72.4209L64.8609 60H62.7809ZM83.5003 60.48C80.5136 60.48 78.1936 59.52 76.5403 57.6C74.9136 55.6533 74.1003 53.12 74.1003 50C74.1003 46.96 74.7136 44.0267 75.9403 41.2C77.167 38.3733 78.9003 36.0533 81.1403 34.24C83.3803 32.4267 85.8336 31.52 88.5003 31.52C91.487 31.52 93.7936 32.4933 95.4203 34.44C97.0736 36.36 97.9003 38.88 97.9003 42C97.9003 45.04 97.287 47.9733 96.0603 50.8C94.8336 53.6267 93.1003 55.9467 90.8603 57.76C88.6203 59.5733 86.167 60.48 83.5003 60.48ZM83.6203 58.6C85.727 58.6 87.727 57.7867 89.6203 56.16C91.5136 54.5333 93.007 52.4533 94.1003 49.92C95.1936 47.36 95.7403 44.72 95.7403 42C95.7403 39.4933 95.1003 37.44 93.8203 35.84C92.5403 34.2133 90.727 33.4 88.3803 33.4C86.2736 33.4 84.2736 34.2133 82.3803 35.84C80.487 37.4667 78.9936 39.56 77.9003 42.12C76.807 44.6533 76.2603 47.28 76.2603 50C76.2603 52.5067 76.9003 54.5733 78.1803 56.2C79.4603 57.8 81.2736 58.6 83.6203 58.6ZM110.26 60.48C107.273 60.48 104.953 59.52 103.3 57.6C101.673 55.6533 100.86 53.12 100.86 50C100.86 46.96 101.473 44.0267 102.7 41.2C103.926 38.3733 105.66 36.0533 107.9 34.24C110.14 32.4267 112.593 31.52 115.26 31.52C118.246 31.52 120.553 32.4933 122.18 34.44C123.833 36.36 124.66 38.88 124.66 42C124.66 45.04 124.046 47.9733 122.82 50.8C121.593 53.6267 119.86 55.9467 117.62 57.76C115.38 59.5733 112.926 60.48 110.26 60.48ZM110.38 58.6C112.486 58.6 114.486 57.7867 116.38 56.16C118.273 54.5333 119.766 52.4533 120.86 49.92C121.953 47.36 122.5 44.72 122.5 42C122.5 39.4933 121.86 37.44 120.58 35.84C119.3 34.2133 117.486 33.4 115.14 33.4C113.033 33.4 111.033 34.2133 109.14 35.84C107.246 37.4667 105.753 39.56 104.66 42.12C103.566 44.6533 103.02 47.28 103.02 50C103.02 52.5067 103.66 54.5733 104.94 56.2C106.22 57.8 108.033 58.6 110.38 58.6Z" fill="#2D2421"/>
<path d="M62.1623 88.216C61.0823 88.216 60.2543 88.045 59.6783 87.703L60.5153 86.029C60.9113 86.209 61.4423 86.299 62.1083 86.299C62.4863 86.299 62.8283 86.245 63.1343 86.137C63.4583 86.029 63.8813 85.723 64.4033 85.219C64.9433 84.697 65.4563 83.986 65.9423 83.086C66.4463 82.168 67.0313 80.827 67.6973 79.063C68.3633 77.299 69.0203 75.202 69.6683 72.772L70.6403 69.1H82.7633L77.6873 88H75.5813L80.1173 71.044H72.1793L71.5583 73.312C70.8743 75.886 70.1813 78.1 69.4793 79.954C68.7953 81.79 68.1563 83.239 67.5623 84.301C66.9683 85.345 66.3383 86.173 65.6723 86.785C65.0243 87.379 64.4393 87.766 63.9173 87.946C63.3953 88.126 62.8103 88.216 62.1623 88.216ZM83.5864 88L88.6624 69.1H102.189L101.649 71.044H90.2554L88.5274 77.497H98.7064L98.1664 79.441H88.0144L86.2324 86.056H97.7614L97.2484 88H83.5864ZM106.248 88L110.784 71.071H104.412L104.952 69.1H119.829L119.289 71.071H112.917L108.381 88H106.248Z" fill="#2D2421"/>
<path d="M92.5 1C117.884 1 140.817 7.50895 157.373 17.9795C173.942 28.458 184 42.8092 184 58.5C184 74.1908 173.942 88.542 157.373 99.0205C140.817 109.491 117.884 116 92.5 116C67.1165 116 44.1829 109.491 27.627 99.0205C11.0585 88.542 1 74.1908 1 58.5C1 42.8092 11.0585 28.458 27.627 17.9795C44.1829 7.50895 67.1165 1 92.5 1Z" stroke="#9B8C87" stroke-opacity="0.5" stroke-width="2"/>
<path d="M92.5 5.5C116.586 5.5 138.368 11.4705 154.111 21.0967C169.863 30.7281 179.5 43.9665 179.5 58.5C179.5 73.0335 169.863 86.2719 154.111 95.9033C138.368 105.529 116.586 111.5 92.5 111.5C68.4143 111.5 46.6324 105.529 30.8887 95.9033C15.1366 86.2719 5.5 73.0335 5.5 58.5C5.5 43.9665 15.1366 30.7281 30.8887 21.0967C46.6324 11.4705 68.4143 5.5 92.5 5.5Z" stroke="#9B8C87" stroke-opacity="0.5"/>
</svg>
