<svg width="16" height="16" viewBox="0 0 16 16" fill="none" xmlns="http://www.w3.org/2000/svg">
<path d="M15.3044 7.34969C15.5043 7.54599 15.5027 7.86594 15.3037 8.06163L8.08346 15.1631C7.88934 15.354 7.57798 15.3547 7.38326 15.1645L6.9717 14.7626C6.77156 14.5667 6.77121 14.2441 6.97101 14.0479L12.1162 8.99524C12.3078 8.80705 12.1748 8.48148 11.9063 8.48148H0.599454C0.323409 8.48148 0.0996653 8.25754 0.099507 7.98153L0.0988164 7.42841C0.0988171 7.15241 0.322808 6.92869 0.598763 6.92847L11.9063 6.92778C12.1748 6.92778 12.308 6.60306 12.1169 6.41471C10.3645 4.69165 8.48783 2.83915 6.97308 1.35241C6.77228 1.15531 6.7738 0.831148 6.97584 0.635632L7.38395 0.241337C7.5783 0.0533388 7.88616 0.052466 8.08001 0.242718C9.04233 1.18739 10.366 2.48992 11.6901 3.79344C13.0143 5.09707 14.339 6.40201 15.3044 7.34969Z" fill="#9B8C87" stroke="#9B8C87" stroke-width="0.2"/>
</svg>
