<svg width="16" height="16" viewBox="0 0 16 16" fill="none" xmlns="http://www.w3.org/2000/svg">
<path d="M15.3051 7.34968C15.5051 7.54597 15.5034 7.86592 15.3044 8.06162L8.08419 15.1631C7.89007 15.354 7.57872 15.3547 7.38399 15.1644L6.97243 14.7626C6.77229 14.5667 6.77194 14.2441 6.97174 14.0479L12.1169 8.99522C12.3085 8.80703 12.1756 8.48146 11.907 8.48146H0.600186C0.324141 8.48146 0.100398 8.25752 0.100239 7.98151L0.0995488 7.4284C0.0995496 7.15239 0.32354 6.92867 0.599495 6.92845L11.907 6.92776C12.1755 6.92776 12.3087 6.60304 12.1176 6.41469C10.3652 4.69163 8.48856 2.83913 6.97381 1.35239C6.77301 1.1553 6.77453 0.83113 6.97658 0.635615L7.38468 0.24132C7.57904 0.0533216 7.88689 0.0524489 8.08074 0.242701C9.04307 1.18737 10.3668 2.48991 11.6909 3.79343C13.015 5.09705 14.3397 6.40199 15.3051 7.34968Z" fill="#5E524E" stroke="#5E524E" stroke-width="0.2"/>
</svg>
