<svg width="24" height="25" viewBox="0 0 24 25" fill="none" xmlns="http://www.w3.org/2000/svg">
<g filter="url(#filter0_g_2294_5664)">
<path d="M11.9329 0.513635C11.8973 0.548858 11.8706 0.66333 11.8706 0.768997C11.8706 1.11242 11.5948 2.00178 11.2924 2.63578C10.9366 3.39306 10.4028 4.19437 9.7801 4.90762C8.21443 6.69516 7.4227 7.88391 7.23589 8.71164C7.10245 9.30161 7.25368 10.1381 7.58282 10.6048C7.71626 10.7898 7.8497 10.9395 7.87639 10.9395C7.90307 10.9395 8.08099 10.7017 8.25891 10.4199C9.26414 8.79969 11.1501 7.31155 13.1694 6.54546C13.5608 6.39577 13.9522 6.21966 14.0323 6.16682C14.2191 6.02593 14.4593 5.08374 14.4682 4.48496C14.4771 3.97423 14.3081 3.25217 14.1924 3.31381C14.1569 3.34023 13.97 3.6132 13.7921 3.9214C13.4541 4.48496 12.44 5.70893 12.1909 5.84982C12.1019 5.90266 12.1553 5.70893 12.3599 5.25985C12.7869 4.33526 12.947 3.64842 12.947 2.75025C12.947 2.1955 12.8936 1.85208 12.7602 1.49986C12.5823 1.03316 12.0485 0.399162 11.9329 0.513635Z" fill="#5E524E"/>
<path d="M21.7637 1.14757C20.7852 2.47722 18.3922 4.52011 16.4084 5.70006C15.9459 5.98184 14.7805 6.61584 13.8197 7.10896C11.7114 8.20085 10.893 8.72919 9.96785 9.60975C8.83808 10.7016 8.06414 11.9256 7.73499 13.176C7.66383 13.4578 7.58376 13.7132 7.55708 13.7396C7.47701 13.8188 7.5037 13.2465 7.61935 12.4187L7.7261 11.6438L7.45033 11.3533C7.2991 11.2036 6.91658 10.6576 6.61412 10.1469C5.90245 8.99335 5.16409 8.20085 4.52359 7.90146C3.18032 7.27626 2.01497 7.6461 1.67692 8.80844C1.56128 9.18708 1.43674 9.3808 1.0898 9.6978C0.280276 10.4287 0.306964 10.7016 1.15207 10.4111C2.07724 10.0941 2.63767 10.2437 3.03799 10.913C3.26038 11.2828 3.26928 11.3973 3.33155 12.9471C3.38493 14.2327 3.4383 14.717 3.58953 15.1661C4.32788 17.4731 6.51626 18.9701 10.0479 19.6217C11.4357 19.8683 11.747 20.1148 12.9213 21.8935C14.1756 23.7867 15.0029 24.5 15.9548 24.5C16.2928 24.5 16.3906 24.456 16.6842 24.1478C17.0045 23.8132 17.0489 23.7956 17.5738 23.7956C18.072 23.7956 18.1431 23.7691 18.4189 23.4962C18.6858 23.232 18.7214 23.1439 18.7214 22.7565V22.3162L19.2017 22.052C19.8422 21.691 20.1002 21.2772 20.1002 20.5991C20.1002 20.1324 20.0735 20.062 19.8422 19.8771C19.691 19.7626 19.2551 19.5865 18.8637 19.4808C15.7057 18.6707 14.6382 18.2656 13.4194 17.4027C12.6989 16.9008 11.7915 15.9234 11.4535 15.2805C10.9464 14.3207 10.9998 14.2943 11.7915 15.0868C12.8056 16.1083 13.4728 16.4429 14.4958 16.4429C15.2253 16.4429 15.9636 16.2227 15.9636 16.0114C15.9636 15.9498 15.6523 15.756 15.2787 15.5711C14.4247 15.1573 13.7041 14.7258 13.2949 14.3736L12.9835 14.1094L13.7041 14.3648C16.1416 15.2365 18.1253 15.0164 18.9438 13.7748C19.3708 13.1232 19.3619 13.1144 18.0097 13.0968C17.1646 13.088 16.613 13.0351 16.1416 12.9206L15.4744 12.7533L16.4529 12.6917C17.5026 12.6389 18.499 12.3747 18.7569 12.0929C18.8904 11.952 18.8637 11.9344 18.2321 11.8376C17.8674 11.7847 17.4493 11.6879 17.298 11.6262C17.0489 11.5206 17.1379 11.5118 18.1164 11.5029C20.1358 11.4765 21.141 11.0803 22.084 9.94436C22.1907 9.81227 22.3687 9.49527 22.4665 9.24872L22.6444 8.80844L22.3953 8.85247C22.2619 8.88769 21.7726 9.01097 21.3189 9.12544C20.4649 9.35438 18.6858 9.5393 18.8548 9.3808C18.9082 9.33677 19.2017 9.20469 19.522 9.09902C21.5947 8.37696 23.1159 7.02971 23.4362 5.62081C23.4895 5.38306 23.5162 5.17173 23.4895 5.15412C23.4717 5.13651 23.0892 5.35665 22.6444 5.65604C21.737 6.26362 20.1358 7.04732 19.6643 7.12657C19.353 7.1706 19.353 7.1706 20.0913 6.43093C21.7282 4.79309 22.5466 3.25211 22.5466 1.83441C22.5466 1.37652 22.3331 0.636848 22.1996 0.636848C22.1729 0.636848 21.9772 0.865795 21.7637 1.14757ZM3.32265 8.68516C3.4383 8.82605 3.31376 9.17827 3.15363 9.17827C2.86007 9.17827 2.66436 8.80844 2.86007 8.62352C2.95792 8.51785 3.2159 8.55307 3.32265 8.68516Z" fill="#5E524E"/>
<path d="M8.01041 19.7098C7.98372 19.7891 7.95703 19.9828 7.95703 20.1589C7.95703 20.5376 8.38403 21.0043 8.68649 20.9602C8.8733 20.9338 8.89109 20.8898 8.89109 20.335V19.7451L8.57974 19.657C8.15274 19.5425 8.07268 19.5425 8.01041 19.7098Z" fill="#5E524E"/>
<path d="M9.20312 20.062C9.20312 20.5287 9.60344 20.969 10.0304 20.9778C10.3329 20.9778 10.4308 20.7664 10.235 20.5463C10.155 20.4583 10.0927 20.2909 10.0927 20.1677C10.0927 19.9739 10.0393 19.9387 9.76356 19.8859C9.2476 19.8066 9.20312 19.8154 9.20312 20.062Z" fill="#5E524E"/>
</g>
<defs>
<filter id="filter0_g_2294_5664" x="0" y="0" width="24" height="25" filterUnits="userSpaceOnUse" color-interpolation-filters="sRGB">
<feFlood flood-opacity="0" result="BackgroundImageFix"/>
<feBlend mode="normal" in="SourceGraphic" in2="BackgroundImageFix" result="shape"/>
<feTurbulence type="fractalNoise" baseFrequency="1 1" numOctaves="3" seed="9651" />
<feDisplacementMap in="shape" scale="1" xChannelSelector="R" yChannelSelector="G" result="displacedImage" width="100%" height="100%" />
<feMerge result="effect1_texture_2294_5664">
<feMergeNode in="displacedImage"/>
</feMerge>
</filter>
</defs>
</svg>
