<svg width="343" height="347" viewBox="0 0 343 347" fill="none" xmlns="http://www.w3.org/2000/svg">
<g filter="url(#filter0_n_2309_11647)">
<path d="M333.983 126.133L299.72 123.737L181.735 33.7858L50.0584 106.279L15.1518 103.838L183.311 11.2603L333.983 126.133Z" fill="#CFC3B7"/>
</g>
<g filter="url(#filter1_n_2309_11647)">
<path d="M299.724 123.738L50.0628 106.28L181.74 33.7859L299.724 123.738Z" fill="#CFC3B7"/>
</g>
<path d="M333.766 126.125L17.1446 103.984L2.72519 310.192L319.347 332.332L333.766 126.125Z" fill="#5E524E" style="mix-blend-mode:plus-lighter"/>
<g style="mix-blend-mode:multiply" opacity="0.3">
<path d="M27.4971 316.466C27.6031 314.855 85.8964 317.334 157.705 322.002C229.513 326.677 287.643 331.767 287.537 333.384C287.431 334.995 229.138 332.516 157.329 327.848C85.5214 323.173 27.3973 318.083 27.5037 316.466L27.4971 316.466Z" fill="#312A20"/>
<path d="M27.4892 316.465C27.5933 314.882 85.8456 317.47 157.654 322.145C229.462 326.814 287.765 331.829 287.661 333.413C287.557 334.991 229.048 332.637 157.24 327.969C85.4313 323.3 27.3852 318.049 27.4888 316.472L27.4892 316.465Z" fill="#332C22"/>
<path d="M27.4967 316.465C27.5984 314.915 85.8101 317.607 157.618 322.282C229.427 326.951 287.901 331.892 287.799 333.443C287.691 334.993 228.98 332.758 157.172 328.083C85.3645 323.408 27.4015 318.017 27.5033 316.466L27.4967 316.465Z" fill="#352E24"/>
<path d="M27.4964 316.465C27.5958 314.948 85.7665 317.751 157.575 322.419C229.383 327.094 288.03 331.947 287.931 333.465C287.825 334.982 228.905 332.873 157.091 328.197C85.2829 323.522 27.3969 317.983 27.4964 316.465Z" fill="#373027"/>
<path d="M27.4943 316.465C27.5915 314.981 85.7215 317.887 157.53 322.562C229.338 327.237 288.157 332.01 288.06 333.494C287.956 334.978 228.822 332.987 157.014 328.318C85.2057 323.643 27.4034 317.957 27.501 316.466L27.4943 316.465Z" fill="#393229"/>
<path d="M27.5015 316.466C27.5963 315.014 85.6858 318.024 157.494 322.699C229.302 327.375 288.294 332.066 288.199 333.517C288.098 334.968 228.748 333.101 156.94 328.433C85.1316 323.758 27.4067 317.917 27.5015 316.466Z" fill="#3B352B"/>
<path d="M27.5008 316.466C27.5933 315.047 85.6417 318.168 157.45 322.836C229.258 327.511 288.423 332.121 288.33 333.546C288.23 334.964 228.672 333.223 156.864 328.554C85.0557 323.879 27.4145 317.891 27.5074 316.466L27.5008 316.466Z" fill="#3D372D"/>
<path d="M27.5004 316.466C27.5911 315.074 85.5984 318.305 157.406 322.98C229.214 327.655 288.551 332.183 288.46 333.575C288.364 334.96 228.59 333.343 156.782 328.668C84.974 323.993 27.4098 317.857 27.5004 316.466Z" fill="#3F392F"/>
<path d="M27.4994 316.466C27.5877 315.107 85.5545 318.441 157.363 323.116C229.17 327.792 288.68 332.239 288.591 333.598C288.496 334.956 228.514 333.458 156.706 328.783C84.8983 324.108 27.4177 317.825 27.5065 316.459L27.4994 316.466Z" fill="#413B32"/>
<path d="M27.4982 316.466C27.5842 315.14 85.51 318.585 157.318 323.253C229.126 327.928 288.808 332.295 288.721 333.627C288.629 334.952 228.438 333.579 156.623 328.904C84.8148 324.235 27.4122 317.791 27.4982 316.466Z" fill="#433D34"/>
<path d="M27.4953 316.465C27.579 315.173 85.4642 318.722 157.272 323.397C229.08 328.072 288.934 332.357 288.85 333.656C288.759 334.948 228.354 333.693 156.545 329.025C84.7372 324.35 27.4178 317.765 27.5015 316.473L27.4953 316.465Z" fill="#453F36"/>
<path d="M27.4937 316.465C27.5817 315.207 85.4196 318.858 157.228 323.533C229.036 328.209 289.061 332.419 288.98 333.678C288.892 334.937 228.271 333.807 156.462 329.139C84.6543 324.464 27.4118 317.731 27.4937 316.465Z" fill="#474138"/>
<path d="M27.4917 316.465C27.5778 315.233 85.3742 319.002 157.183 323.67C228.991 328.345 289.189 332.475 289.11 333.701C289.024 334.927 228.194 333.922 156.386 329.253C84.5776 324.578 27.4192 317.692 27.4983 316.466L27.4917 316.465Z" fill="#49433A"/>
<path d="M27.4898 316.465C27.5736 315.266 85.3294 319.139 157.137 323.814C228.945 328.489 289.316 332.537 289.239 333.737C289.155 334.936 228.11 334.049 156.302 329.374C84.4939 324.699 27.4125 317.665 27.4898 316.465Z" fill="#4C453D"/>
<path d="M27.4948 316.466C27.5763 315.299 85.2915 319.275 157.1 323.95C228.907 328.626 289.45 332.593 289.375 333.759C289.294 334.925 228.04 334.164 156.232 329.489C84.4242 324.814 27.4265 317.632 27.5014 316.466L27.4948 316.466Z" fill="#4E483F"/>
<path d="M27.4935 316.465C27.5727 315.333 85.2469 319.419 157.055 324.087C228.863 328.762 289.579 332.648 289.506 333.782C289.427 334.915 227.964 334.279 156.15 329.603C84.3416 324.928 27.4209 317.599 27.494 316.459L27.4935 316.465Z" fill="#504A41"/>
<path d="M27.4903 316.465C27.5672 315.366 85.2008 319.556 157.009 324.231C228.817 328.906 289.704 332.711 289.627 333.811C289.551 334.91 227.873 334.392 156.065 329.724C84.2567 325.049 27.4201 317.566 27.4903 316.465Z" fill="#524C43"/>
<path d="M27.4942 316.466C27.5688 315.399 85.1618 319.692 156.97 324.368C228.778 329.043 289.838 332.766 289.769 333.84C289.695 334.907 227.808 334.514 155.993 329.845C84.1849 325.177 27.4258 317.539 27.4937 316.472L27.4942 316.466Z" fill="#544E46"/>
<path d="M27.4897 316.465C27.5625 315.425 85.114 319.836 156.922 324.504C228.73 329.179 289.963 332.822 289.897 333.863C289.824 334.903 227.723 334.628 155.914 329.96C84.1062 325.285 27.4303 317.507 27.4964 316.466L27.4897 316.465Z" fill="#565048"/>
<path d="M27.4951 316.466C27.5655 315.458 85.0765 319.973 156.884 324.648C228.692 329.323 290.097 332.884 290.033 333.892C289.963 334.899 227.653 334.749 155.838 330.074C84.0303 325.399 27.4313 317.473 27.5017 316.466L27.4951 316.466Z" fill="#58524A"/>
<path d="M27.4979 316.466C27.566 315.492 85.0363 320.11 156.844 324.785C228.652 329.46 290.229 332.94 290.161 333.921C290.093 334.895 227.567 334.87 155.759 330.195C83.9512 325.52 27.4364 317.44 27.4979 316.466Z" fill="#5A544C"/>
<path d="M27.4943 316.465C27.5601 315.525 84.9894 320.253 156.798 324.921C228.606 329.596 290.355 332.996 290.289 333.943C290.223 334.884 227.489 334.978 155.674 330.309C83.8664 325.634 27.4285 317.406 27.4943 316.465Z" fill="#5C564E"/>
<path d="M27.497 316.466C27.5605 315.558 84.9491 320.39 156.757 325.065C228.565 329.74 290.486 333.065 290.43 333.973C290.366 334.88 227.417 335.099 155.609 330.431C83.8005 325.755 27.4463 317.381 27.5036 316.466L27.497 316.466Z" fill="#5E5851"/>
<path d="M27.4987 316.466C27.5599 315.591 84.908 320.527 156.716 325.202C228.524 329.877 290.618 333.12 290.556 333.995C290.495 334.869 227.337 335.213 155.522 330.544C83.7143 325.869 27.4371 317.347 27.4987 316.466Z" fill="#605B53"/>
<path d="M27.4934 316.465C27.5527 315.617 84.8592 320.67 156.661 325.338C228.469 330.013 290.735 333.175 290.676 334.023C290.616 334.871 227.244 335.333 155.436 330.658C83.6276 325.983 27.4345 317.307 27.4867 316.465L27.4934 316.465Z" fill="#625D55"/>
<path d="M27.497 316.465C27.554 315.651 84.82 320.807 156.621 325.481C228.429 330.157 290.868 333.238 290.811 334.053C290.754 334.868 227.172 335.455 155.357 330.779C83.5495 326.104 27.4334 317.28 27.4904 316.465L27.497 316.465Z" fill="#645F57"/>
<path d="M27.4903 316.465C27.5449 315.684 84.7704 320.944 156.572 325.618C228.38 330.293 290.99 333.293 290.936 334.075C290.881 334.857 227.084 335.569 155.276 330.894C83.4681 326.219 27.4356 317.247 27.4836 316.465L27.4903 316.465Z" fill="#666159"/>
<path d="M27.4943 316.465C27.5466 315.717 84.731 321.087 156.533 325.755C228.341 330.43 291.124 333.349 291.078 334.098C291.026 334.847 227.014 335.677 155.205 331.008C83.3973 326.333 27.4419 317.214 27.4947 316.459L27.4943 316.465Z" fill="#68635C"/>
<path d="M27.4945 316.466C27.5445 315.75 84.6883 321.224 156.49 325.899C228.298 330.574 291.253 333.411 291.202 334.133C291.152 334.849 226.932 335.804 155.123 331.136C83.3153 326.461 27.444 317.188 27.4874 316.472L27.4945 316.466Z" fill="#6A655E"/>
<path d="M27.4903 316.465C27.5385 315.776 84.6412 321.361 156.443 326.035C228.251 330.71 291.378 333.467 291.337 334.156C291.289 334.839 226.86 335.919 155.045 331.244C83.2369 326.569 27.4426 317.148 27.4908 316.459L27.4903 316.465Z" fill="#6C6760"/>
<path d="M27.4993 316.466C27.5452 315.81 84.6069 321.504 156.409 326.172C228.217 330.847 291.517 333.523 291.471 334.179C291.425 334.835 226.781 336.033 154.973 331.358C83.1646 326.683 27.4539 317.115 27.4931 316.459L27.4993 316.466Z" fill="#6E6962"/>
<path d="M27.4925 316.465C27.5361 315.843 84.5505 321.64 156.358 326.316C228.166 330.991 291.639 333.585 291.595 334.214C291.551 334.837 226.698 336.161 154.884 331.485C83.0751 326.817 27.4419 317.094 27.4854 316.472L27.4925 316.465Z" fill="#706B64"/>
<path d="M27.4947 316.465C27.536 315.876 84.5099 321.777 156.318 326.452C228.126 331.127 291.77 333.647 291.729 334.237C291.688 334.826 226.62 336.268 154.811 331.6C83.0031 326.925 27.4535 317.055 27.4881 316.465L27.4947 316.465Z" fill="#726D67"/>
<path d="M27.4979 316.466C27.5368 315.909 84.4696 321.921 156.278 326.589C228.086 331.264 291.903 333.703 291.864 334.259C291.825 334.816 226.548 336.383 154.74 331.715C82.9316 327.039 27.459 317.022 27.4979 316.466Z" fill="#747069"/>
<path d="M27.4912 316.465C27.5278 315.942 84.4201 322.057 156.228 326.733C228.036 331.408 292.025 333.765 291.989 334.288C291.952 334.812 226.46 336.504 154.651 331.835C82.8431 327.16 27.4542 316.995 27.4846 316.465L27.4912 316.465Z" fill="#76726B"/>
<path d="M27.4926 316.466C27.5273 315.969 84.3785 322.194 156.186 326.869C227.994 331.545 292.156 333.821 292.121 334.318C292.086 334.815 226.386 336.625 154.578 331.95C82.7698 327.275 27.4578 316.962 27.4926 316.466Z" fill="#78746D"/>
<path d="M27.4931 316.466C27.5255 316.002 84.3357 322.338 156.144 327.006C227.952 331.681 292.286 333.876 292.253 334.34C292.221 334.804 226.305 336.739 154.497 332.064C82.689 327.389 27.4611 316.923 27.4869 316.458L27.4931 316.466Z" fill="#7A766F"/>
<path d="M27.4964 316.466C27.5265 316.035 84.296 322.475 156.104 327.15C227.912 331.825 292.418 333.939 292.388 334.369C292.358 334.8 226.233 336.86 154.425 332.185C82.6171 327.51 27.4663 316.896 27.4964 316.466Z" fill="#7C7872"/>
<path d="M27.4971 316.466C27.5249 316.068 84.2538 322.611 156.062 327.286C227.87 331.962 292.548 333.994 292.52 334.399C292.492 334.796 226.152 336.975 154.344 332.306C82.536 327.631 27.4688 316.87 27.49 316.472L27.4971 316.466Z" fill="#7F7A74"/>
<path d="M27.49 316.465C27.5155 316.101 84.2034 322.755 156.012 327.423C227.82 332.098 292.671 334.05 292.645 334.421C292.619 334.785 226.071 337.089 154.262 332.421C82.4542 327.746 27.464 316.836 27.49 316.465Z" fill="#817C76"/>
<path d="M27.4919 316.465C27.515 316.134 84.1623 322.892 155.97 327.567C227.778 332.242 292.802 334.112 292.778 334.45C292.755 334.781 225.991 337.21 154.182 332.541C82.3743 327.866 27.4682 316.803 27.4914 316.472L27.4919 316.465Z" fill="#837E78"/>
<path d="M27.4932 316.465C27.5145 316.161 84.1208 323.028 155.929 327.704C227.737 332.379 292.932 334.168 292.911 334.473C292.89 334.777 225.917 337.325 154.109 332.649C82.3014 327.974 27.4724 316.764 27.4937 316.459L27.4932 316.465Z" fill="#85807B"/>
<path d="M27.4938 316.465C27.5128 316.194 84.078 323.172 155.886 327.84C227.694 332.515 293.062 334.23 293.043 334.502C293.024 334.774 225.836 337.445 154.028 332.77C82.2202 328.095 27.4748 316.737 27.4872 316.465L27.4938 316.465Z" fill="#87837D"/>
<path d="M27.4947 316.466C27.5114 316.227 84.036 323.309 155.844 327.984C227.652 332.659 293.192 334.293 293.175 334.531C293.159 334.77 225.762 337.56 153.954 332.892C82.146 328.216 27.4776 316.711 27.4947 316.466Z" fill="#89857F"/>
<path d="M27.4959 316.465C27.5103 316.26 83.9943 323.445 155.802 328.121C227.61 332.796 293.322 334.348 293.308 334.554C293.294 334.759 225.682 337.674 153.874 333.006C82.0659 328.331 27.4815 316.671 27.4959 316.465Z" fill="#8B8781"/>
<path d="M27.4975 316.466C27.5095 316.293 83.9525 323.589 155.761 328.257C227.569 332.933 293.454 334.404 293.441 334.583C293.429 334.755 225.609 337.795 153.8 333.127C81.9923 328.452 27.485 316.644 27.497 316.472L27.4975 316.466Z" fill="#8D8983"/>
<path d="M27.4991 316.466C27.5088 316.326 83.9112 323.726 155.719 328.401C227.527 333.076 293.584 334.466 293.574 334.612C293.564 334.758 225.528 337.916 153.721 333.241C81.9125 328.566 27.4889 316.611 27.4991 316.466Z" fill="#8F8B86"/>
<path d="M27.5001 316.466C27.508 316.353 83.8693 323.863 155.677 328.538C227.485 333.213 293.715 334.522 293.707 334.634C293.699 334.747 225.455 338.031 153.647 333.356C81.8389 328.681 27.4922 316.578 27.5001 316.466Z" fill="#918D88"/>
<path d="M27.5011 316.466C27.5067 316.386 83.827 324.006 155.635 328.675C227.443 333.35 293.845 334.578 293.84 334.657C293.834 334.737 225.375 338.145 153.567 333.47C81.7586 328.795 27.496 316.538 27.5016 316.459L27.5011 316.466Z" fill="#938F8A"/>
<path d="M27.4933 316.465C27.4965 316.419 83.7762 324.143 155.584 328.818C227.392 333.493 293.966 334.64 293.963 334.693C293.959 334.739 225.291 338.273 153.483 333.598C81.6751 328.923 27.4896 316.518 27.4928 316.472L27.4933 316.465Z" fill="#95918C"/>
<path d="M27.4942 316.465C27.4942 316.465 83.7343 324.28 155.542 328.955C227.35 333.63 294.097 334.695 294.095 334.715C294.094 334.728 225.211 338.38 153.403 333.712C81.5948 329.037 27.4929 316.485 27.4942 316.465Z" fill="#97938E"/>
<path d="M27.4952 316.466C27.4952 316.466 83.6919 324.423 155.5 329.092C227.308 333.767 294.227 334.751 294.228 334.738C294.229 334.718 225.137 338.495 153.329 333.826C81.521 329.151 27.4961 316.452 27.4952 316.466Z" fill="#999691"/>
<path d="M27.4966 316.466C27.4933 316.512 83.6503 324.56 155.458 329.235C227.266 333.91 294.357 334.813 294.361 334.767C294.364 334.721 225.057 338.616 153.249 333.941C81.4411 329.265 27.5003 316.413 27.4966 316.466Z" fill="#9B9893"/>
<path d="M27.4979 316.466C27.4924 316.545 83.6088 324.697 155.417 329.372C227.225 334.047 294.488 334.876 294.493 334.796C294.499 334.717 224.983 338.737 153.175 334.062C81.3673 329.387 27.5035 316.386 27.4979 316.466Z" fill="#9D9A95"/>
<path d="M27.491 316.465C27.4831 316.578 83.5585 324.84 155.367 329.508C227.175 334.184 294.61 334.931 294.618 334.819C294.626 334.706 224.895 338.851 153.087 334.176C81.279 329.501 27.4989 316.353 27.491 316.465Z" fill="#9F9C97"/>
<path d="M27.4923 316.465C27.4822 316.611 83.5169 324.977 155.325 329.652C227.133 334.327 294.741 334.993 294.751 334.848C294.761 334.702 224.822 338.966 153.013 334.297C81.2052 329.622 27.5021 316.326 27.4923 316.465Z" fill="#A19E99"/>
<path d="M27.4917 316.465C27.4792 316.644 83.4734 325.114 155.281 329.789C227.089 334.464 294.87 335.049 294.882 334.877C294.894 334.705 224.739 339.086 152.931 334.418C81.1228 329.743 27.5038 316.293 27.4913 316.472L27.4917 316.465Z" fill="#A3A09C"/>
<path d="M27.4926 316.465C27.4782 316.671 83.4309 325.257 155.239 329.926C227.047 334.601 295 335.105 295.014 334.899C295.029 334.694 224.665 339.201 152.857 334.533C81.049 329.857 27.507 316.26 27.4926 316.465Z" fill="#A5A29E"/>
<path d="M27.4939 316.466C27.4772 316.704 83.3893 325.394 155.197 330.069C227.005 334.744 295.13 335.167 295.147 334.929C295.163 334.69 224.585 339.322 152.777 334.647C80.969 329.972 27.5106 316.227 27.4939 316.466Z" fill="#A7A4A0"/>
<path d="M27.4948 316.465C27.4758 316.737 83.3473 325.531 155.155 330.206C226.963 334.881 295.26 335.223 295.279 334.951C295.298 334.68 224.511 339.436 152.703 334.761C80.8952 330.086 27.5137 316.194 27.4948 316.465Z" fill="#A9A6A2"/>
<path d="M27.4882 316.465C27.4669 316.77 83.2974 325.674 155.106 330.343C226.914 335.018 295.383 335.278 295.404 334.98C295.426 334.675 224.423 339.557 152.615 334.882C80.8068 330.207 27.5095 316.161 27.4882 316.465Z" fill="#ABA9A4"/>
<path d="M27.4895 316.465C27.4659 316.803 83.2558 325.811 155.064 330.486C226.872 335.161 295.514 335.341 295.537 335.009C295.56 334.671 224.349 339.672 152.541 335.003C80.733 330.328 27.5127 316.134 27.4891 316.472L27.4895 316.465Z" fill="#ADABA7"/>
<path d="M27.4903 316.465C27.4644 316.836 83.2137 325.948 155.022 330.623C226.83 335.298 295.643 335.403 295.669 335.032C295.695 334.661 224.269 339.786 152.46 335.117C80.6525 330.442 27.5158 316.101 27.4903 316.465Z" fill="#AFADA9"/>
<path d="M27.4897 316.465C27.4619 316.863 83.1697 326.091 154.978 330.76C226.786 335.435 295.772 335.459 295.8 335.061C295.828 334.664 224.193 339.907 152.385 335.232C80.5771 330.557 27.5175 316.068 27.4963 316.466L27.4897 316.465Z" fill="#B1AFAB"/>
<path d="M27.491 316.465C27.4608 316.896 83.128 326.228 154.936 330.903C226.744 335.578 295.903 335.521 295.933 335.09C295.963 334.66 224.113 340.028 152.305 335.353C80.4966 330.678 27.5211 316.035 27.491 316.465Z" fill="#B4B1AD"/>
<path d="M27.4917 316.465C27.4593 316.929 83.0859 326.365 154.894 331.04C226.702 335.715 296.033 335.577 296.065 335.113C296.098 334.649 224.039 340.143 152.231 335.467C80.4227 330.792 27.5242 316.002 27.4984 316.466L27.4917 316.465Z" fill="#B6B3B0"/>
<path d="M27.4925 316.465C27.4578 316.962 83.0433 326.508 154.852 331.177C226.66 335.852 296.163 335.632 296.198 335.135C296.233 334.638 223.959 340.25 152.15 335.582C80.3422 330.907 27.5273 315.969 27.4925 316.465Z" fill="#B8B5B2"/>
<path d="M27.4942 316.465C27.4572 316.996 83.0022 326.645 154.803 331.32C226.611 335.995 296.287 335.694 296.324 335.171C296.361 334.641 223.878 340.378 152.07 335.709C80.2616 331.034 27.5237 315.948 27.4938 316.472L27.4942 316.465Z" fill="#BAB7B4"/>
<path d="M27.4951 316.466C27.4557 317.029 82.96 326.782 154.768 331.457C226.576 336.132 296.424 335.75 296.463 335.194C296.502 334.637 223.804 340.492 151.996 335.824C80.1878 331.149 27.534 315.909 27.4946 316.472L27.4951 316.466Z" fill="#BCB9B6"/>
<path d="M27.4958 316.466C27.4546 317.055 82.9174 326.925 154.726 331.594C226.534 336.269 296.554 335.806 296.595 335.216C296.637 334.627 223.73 340.607 151.922 335.932C80.1143 331.257 27.5375 315.869 27.5029 316.459L27.4958 316.466Z" fill="#BEBCB8"/>
<path d="M27.4951 316.465C27.4516 317.088 82.8738 327.062 154.682 331.737C226.49 336.412 296.682 335.868 296.726 335.245C296.77 334.623 223.648 340.728 151.84 336.052C80.0318 331.377 27.5387 315.843 27.4951 316.465Z" fill="#C0BEBB"/>
<path d="M27.4963 316.466C27.4505 317.121 82.8321 327.199 154.64 331.874C226.448 336.549 296.813 335.924 296.859 335.275C296.904 334.619 223.574 340.849 151.766 336.174C79.9579 331.499 27.5422 315.81 27.503 316.466L27.4963 316.466Z" fill="#C2C0BD"/>
<path d="M27.4959 316.466C27.4477 317.155 82.7884 327.342 154.59 332.01C226.398 336.686 296.936 335.979 296.983 335.297C297.031 334.608 223.486 340.956 151.677 336.287C79.8695 331.612 27.5375 315.776 27.4893 316.465L27.4959 316.466Z" fill="#C4C2BF"/>
<path d="M27.4902 316.465C27.4397 317.188 82.7397 327.479 154.541 332.154C226.349 336.829 297.058 336.048 297.109 335.326C297.159 334.604 223.405 341.077 151.597 336.409C79.7886 331.733 27.5336 315.749 27.4902 316.465Z" fill="#C6C4C1"/>
<path d="M27.4967 316.465C27.4443 317.214 82.6962 327.622 154.505 332.291C226.313 336.966 297.194 336.104 297.247 335.355C297.299 334.606 223.33 341.198 151.522 336.523C79.7138 331.848 27.5424 315.716 27.49 316.465L27.4967 316.465Z" fill="#C8C6C3"/>
<path d="M27.4976 316.466C27.4429 317.247 82.6542 327.759 154.463 332.428C226.271 337.103 297.325 336.159 297.379 335.377C297.434 334.596 223.256 341.313 151.448 336.637C79.64 331.962 27.5461 315.677 27.4976 316.466Z" fill="#CAC8C6"/>
<path d="M27.4975 316.466C27.4405 317.28 82.6112 327.896 154.419 332.571C226.227 337.246 297.454 336.222 297.511 335.407C297.568 334.592 223.174 341.433 151.373 336.759C79.5647 332.084 27.5545 315.651 27.4975 316.466Z" fill="#CCCAC8"/>
<path d="M27.4973 316.466C27.438 317.314 82.5681 328.033 154.376 332.708C226.184 337.383 297.583 336.277 297.642 335.429C297.701 334.581 223.1 341.541 151.291 336.873C79.4832 332.198 27.55 315.617 27.4973 316.466Z" fill="#CECCCA"/>
<path d="M27.4972 316.466C27.4355 317.347 82.5246 328.176 154.333 332.845C226.141 337.52 297.712 336.333 297.773 335.458C297.835 334.577 223.018 341.662 151.216 336.994C79.4079 332.319 27.5583 315.591 27.4972 316.466Z" fill="#D0CECC"/>
<path d="M27.4969 316.466C27.433 317.38 82.4815 328.313 154.289 332.988C226.097 337.663 297.841 336.395 297.904 335.487C297.968 334.573 222.942 341.783 151.134 337.108C79.3264 332.433 27.5542 315.551 27.4969 316.466Z" fill="#D2D1CE"/>
<path d="M27.4963 316.466C27.4305 317.406 82.438 328.45 154.246 333.125C226.054 337.8 297.97 336.451 298.036 335.51C298.101 334.569 222.86 341.897 151.059 337.223C79.2511 332.548 27.5626 315.518 27.4968 316.459L27.4963 316.466Z" fill="#D4D3D1"/>
<path d="M27.4961 316.465C27.428 317.439 82.3944 328.593 154.203 333.262C226.011 337.937 298.099 336.506 298.167 335.532C298.235 334.559 222.786 342.012 150.978 337.337C79.1696 332.662 27.5581 315.484 27.4966 316.459L27.4961 316.465Z" fill="#D6D5D3"/>
<path d="M27.4969 316.466C27.4264 317.473 82.3522 328.73 154.16 333.405C225.968 338.08 298.229 336.569 298.299 335.568C298.369 334.561 222.704 342.139 150.903 337.465C79.0947 332.79 27.5668 315.465 27.4964 316.472L27.4969 316.466Z" fill="#D8D7D5"/>
<path d="M27.4962 316.466C27.4235 317.506 82.3087 328.867 154.117 333.542C225.925 338.217 298.358 336.624 298.43 335.591C298.503 334.551 222.629 342.247 150.821 337.579C79.0127 332.904 27.5623 315.425 27.4962 316.466Z" fill="#DAD9D7"/>
<path d="M27.496 316.466C27.4209 317.539 82.2651 329.01 154.074 333.679C225.882 338.354 298.486 336.687 298.561 335.613C298.636 334.54 222.548 342.362 150.746 337.694C78.9378 333.018 27.571 315.392 27.496 316.466Z" fill="#DCDBD9"/>
<path d="M27.4958 316.466C27.4189 317.565 82.2221 329.147 154.03 333.822C225.838 338.497 298.615 336.749 298.692 335.649C298.769 334.549 222.472 342.489 150.664 337.814C78.8559 333.139 27.5661 315.365 27.4958 316.466Z" fill="#DEDDDC"/>
<path d="M27.4956 316.466C27.4164 317.598 82.1789 329.284 153.987 333.959C225.795 338.634 298.744 336.805 298.824 335.672C298.903 334.539 222.39 342.604 150.589 337.929C78.781 333.254 27.5748 315.333 27.4956 316.466Z" fill="#E0DFDE"/>
<path d="M27.495 316.466C27.4134 317.632 82.1349 329.427 153.943 334.096C225.751 338.771 298.873 336.86 298.955 335.694C299.036 334.528 222.315 342.718 150.507 338.043C78.699 333.368 27.5703 315.292 27.4954 316.459L27.495 316.466Z" fill="#E2E1E0"/>
<path d="M27.4952 316.466C27.4113 317.665 82.0922 329.564 153.9 334.239C225.708 338.914 299.002 336.923 299.086 335.723C299.17 334.524 222.234 342.832 150.432 338.164C78.6241 333.489 27.5791 315.266 27.5018 316.466L27.4952 316.466Z" fill="#E4E4E2"/>
<path d="M27.4954 316.466C27.4093 317.698 82.0496 329.701 153.858 334.376C225.666 339.051 299.132 336.978 299.218 335.753C299.304 334.52 222.159 342.954 150.351 338.285C78.5425 333.61 27.5745 315.239 27.495 316.472L27.4954 316.466Z" fill="#E7E6E5"/>
<path d="M27.4963 316.466C27.4078 317.731 82.0071 329.844 153.816 334.513C225.623 339.188 299.263 337.034 299.351 335.775C299.439 334.51 222.078 343.068 150.277 338.393C78.4692 333.718 27.5848 315.2 27.5034 316.459L27.4963 316.466Z" fill="#E9E8E7"/>
<path d="M27.4965 316.466C27.4062 317.757 81.9644 329.981 153.772 334.656C225.58 339.331 299.392 337.096 299.482 335.804C299.572 334.512 222.004 343.189 150.196 338.514C78.3876 333.839 27.5807 315.166 27.4965 316.466Z" fill="#EBEAE9"/>
<path d="M27.4963 316.466C27.4037 317.791 81.9213 330.118 153.729 334.793C225.537 339.468 299.521 337.152 299.613 335.833C299.706 334.508 221.922 343.31 150.12 338.635C78.3122 333.96 27.5824 315.14 27.503 316.466L27.4963 316.466Z" fill="#EDECEB"/>
<path d="M27.4961 316.466C27.4011 317.824 81.8777 330.261 153.686 334.93C225.494 339.605 299.65 337.207 299.745 335.856C299.84 334.498 221.847 343.424 150.039 338.749C78.2307 334.074 27.5844 315.107 27.4961 316.466Z" fill="#EFEEED"/>
<path d="M27.4959 316.466C27.3986 317.857 81.8346 330.398 153.643 335.073C225.451 339.748 299.779 337.27 299.876 335.885C299.973 334.494 221.772 343.539 149.963 338.871C78.1554 334.195 27.5861 315.08 27.5026 316.466L27.4959 316.466Z" fill="#F1F0F0"/>
<path d="M27.4957 316.465C27.396 317.89 81.7914 330.535 153.599 335.21C225.407 339.885 299.908 337.332 300.007 335.908C300.1 334.483 221.69 343.653 149.882 338.985C78.0738 334.31 27.5886 315.041 27.4957 316.465Z" fill="#F3F2F2"/>
<path d="M27.4954 316.465C27.3935 317.923 81.7478 330.678 153.556 335.347C225.364 340.022 300.037 337.388 300.138 335.937C300.233 334.485 221.608 343.774 149.807 339.099C77.9988 334.424 27.5973 315.008 27.5021 316.466L27.4954 316.465Z" fill="#F5F4F4"/>
<path d="M27.4952 316.465C27.3915 317.949 81.7048 330.815 153.513 335.49C225.321 340.165 300.166 337.45 300.27 335.966C300.367 334.481 221.533 343.895 149.725 339.22C77.9169 334.545 27.5924 314.981 27.4952 316.465Z" fill="#F7F7F6"/>
<path d="M27.495 316.466C27.3889 317.983 81.6616 330.952 153.47 335.627C225.278 340.302 300.295 337.506 300.401 335.988C300.501 334.471 221.458 344.01 149.65 339.335C77.842 334.66 27.5945 314.948 27.5016 316.466L27.495 316.466Z" fill="#F9F9F8"/>
<path d="M27.4948 316.465C27.3864 318.016 81.618 331.095 153.426 335.764C225.234 340.439 300.431 337.562 300.532 336.018C300.634 334.467 221.376 344.131 149.568 339.455C77.7599 334.78 27.5965 314.915 27.4948 316.465Z" fill="#FBFBFB"/>
<path d="M27.495 316.466C27.3843 318.049 81.5753 331.232 153.383 335.907C225.191 340.583 300.553 337.623 300.664 336.047C300.768 334.463 221.301 344.245 149.493 339.577C77.685 334.902 27.5986 314.888 27.5012 316.473L27.495 316.466Z" fill="#FDFDFD"/>
<path d="M27.4943 316.465C27.6007 314.848 77.5964 335.015 149.411 339.691C221.219 344.366 300.901 334.459 300.794 336.076C300.682 337.686 225.147 340.726 153.339 336.051C81.5313 331.376 27.3874 318.089 27.4938 316.472L27.4943 316.465Z" fill="white"/>
</g>
<g style="mix-blend-mode:multiply" opacity="0.6">
<path d="M161.514 233.173C160.82 233.94 127.491 205.22 87.0771 169.03C46.6633 132.834 14.4545 102.873 15.1482 102.106C15.8419 101.339 49.1709 130.06 89.5848 166.256C130.006 202.446 162.208 232.407 161.514 233.173Z" fill="#312A20"/>
<path d="M161.583 233.139C160.904 233.886 127.589 205.16 87.1682 168.964C46.7543 132.768 14.4684 102.861 15.1479 102.106C15.8269 101.358 49.2734 130.021 89.6938 166.217C130.115 202.407 162.262 232.384 161.583 233.132L161.583 233.139Z" fill="#332C22"/>
<path d="M161.652 233.097C160.987 233.833 127.68 205.087 87.2658 168.898C46.8453 132.701 14.4827 102.842 15.1476 102.106C15.8124 101.371 49.3824 129.982 89.7962 166.178C130.217 202.368 162.317 232.361 161.652 233.097Z" fill="#352E24"/>
<path d="M161.721 233.062C161.071 233.779 127.777 205.028 87.3568 168.831C46.943 132.635 14.4966 102.83 15.1473 102.106C15.7975 101.389 49.4844 129.949 89.9053 166.139C130.326 202.329 162.372 232.339 161.721 233.055L161.721 233.062Z" fill="#373027"/>
<path d="M161.79 233.02C161.154 233.725 127.869 204.955 87.4478 168.765C47.034 132.569 14.5109 102.811 15.147 102.106C15.783 101.402 49.5935 129.91 90.0144 166.1C130.435 202.29 162.433 232.316 161.797 233.021L161.79 233.02Z" fill="#393229"/>
<path d="M161.859 232.986C161.237 233.678 127.966 204.895 87.5455 168.699C47.1312 132.509 14.5248 102.799 15.1466 102.106C15.7685 101.414 49.696 129.871 90.1169 166.061C130.538 202.251 162.488 232.287 161.86 232.979L161.859 232.986Z" fill="#3B352B"/>
<path d="M161.928 232.944C161.315 233.617 128.057 204.829 87.6365 168.632C47.2223 132.443 14.5387 102.786 15.1464 102.106C15.7602 101.433 49.8051 129.832 90.226 166.022C130.647 202.212 162.543 232.264 161.929 232.937L161.928 232.944Z" fill="#3D372D"/>
<path d="M161.997 232.909C161.398 233.57 128.148 204.762 87.7337 168.573C47.3199 132.377 14.5531 102.767 15.1461 102.106C15.7457 101.446 49.9075 129.793 90.328 165.99C130.749 202.18 162.597 232.248 161.997 232.909Z" fill="#3F392F"/>
<path d="M162.067 232.868C161.482 233.509 128.246 204.696 87.8253 168.5C47.411 132.31 14.567 102.755 15.1458 102.106C15.7308 101.464 50.0166 129.755 90.4371 165.951C130.858 202.141 162.651 232.226 162.067 232.868Z" fill="#413B32"/>
<path d="M162.135 232.833C161.565 233.462 128.337 204.63 87.9225 168.44C47.5021 132.244 14.5814 102.736 15.1455 102.106C15.7163 101.477 50.1258 129.716 90.5396 165.912C130.96 202.102 162.707 232.196 162.136 232.826L162.135 232.833Z" fill="#433D34"/>
<path d="M162.213 232.791C161.657 233.402 128.442 204.564 88.022 168.367C47.6077 132.178 14.5967 102.724 15.1532 102.107C15.7093 101.496 50.2358 129.683 90.6567 165.873C131.078 202.063 162.769 232.174 162.213 232.791Z" fill="#453F36"/>
<path d="M162.282 232.756C161.74 233.355 128.533 204.504 88.1192 168.308C47.6988 132.111 14.6111 102.705 15.153 102.107C15.6949 101.508 50.3449 129.645 90.7592 165.834C131.18 202.024 162.824 232.151 162.282 232.75L162.282 232.756Z" fill="#474138"/>
<path d="M162.351 232.715C161.823 233.301 128.631 204.431 88.2103 168.241C47.7965 132.045 14.625 102.693 15.1527 102.107C15.6804 101.52 50.4474 129.605 90.8683 165.795C131.289 201.985 162.879 232.129 162.351 232.715Z" fill="#49433A"/>
<path d="M162.42 232.68C161.907 233.247 128.722 204.371 88.3014 168.175C47.8876 131.979 14.639 102.681 15.1525 102.107C15.6656 101.539 50.5565 129.567 90.9704 165.763C131.391 201.953 162.933 232.113 162.42 232.68Z" fill="#4C453D"/>
<path d="M162.489 232.638C161.99 233.194 128.813 204.298 88.3992 168.109C47.9849 131.919 14.6534 102.662 15.1523 102.107C15.6511 101.552 50.6591 129.528 91.0795 165.724C131.5 201.914 162.987 232.09 162.489 232.638Z" fill="#4E483F"/>
<path d="M162.558 232.603C162.074 233.14 128.911 204.239 88.4902 168.042C48.076 131.853 14.6674 102.649 15.152 102.107C15.6363 101.57 50.7682 129.489 91.1887 165.685C131.61 201.875 163.049 232.061 162.558 232.603Z" fill="#504A41"/>
<path d="M162.627 232.562C162.157 233.086 129.002 204.166 88.588 167.976C48.1737 131.787 14.6818 102.631 15.1518 102.107C15.6285 101.583 50.8708 129.45 91.2912 165.646C131.712 201.836 163.104 232.038 162.627 232.562Z" fill="#524C43"/>
<path d="M162.696 232.527C162.234 233.031 129.1 204.106 88.6787 167.916C48.2649 131.72 14.6958 102.618 15.1516 102.106C15.6136 101.602 50.98 129.411 91.4004 165.607C131.821 201.797 163.159 232.016 162.697 232.52L162.696 232.527Z" fill="#544E46"/>
<path d="M162.766 232.485C162.318 232.978 129.191 204.039 88.7769 167.843C48.356 131.653 14.7102 102.599 15.1514 102.106C15.5992 101.614 51.0887 129.378 91.503 165.568C131.924 201.758 163.213 231.993 162.766 232.485Z" fill="#565048"/>
<path d="M162.835 232.45C162.401 232.93 129.288 203.973 88.8675 167.783C48.4537 131.587 14.7242 102.587 15.1512 102.106C15.5848 101.626 51.1912 129.339 91.6121 165.529C132.033 201.719 163.268 231.97 162.835 232.444L162.835 232.45Z" fill="#58524A"/>
<path d="M162.904 232.409C162.485 232.87 129.38 203.907 88.9654 167.717C48.545 131.521 14.7322 102.568 15.1511 102.106C15.5701 101.645 51.3005 129.3 91.7148 165.49C132.136 201.68 163.323 231.941 162.905 232.402L162.904 232.409Z" fill="#5A544C"/>
<path d="M162.973 232.374C162.568 232.823 129.477 203.847 89.0566 167.651C48.6428 131.455 14.7462 102.555 15.1509 102.106C15.5557 101.657 51.4031 129.261 91.8235 165.458C132.244 201.648 163.378 231.925 162.973 232.374Z" fill="#5C564E"/>
<path d="M163.042 232.332C162.652 232.762 129.569 203.774 89.1477 167.584C48.7339 131.388 14.7602 102.543 15.1508 102.106C15.5409 101.676 51.5123 129.223 91.9261 165.419C132.347 201.609 163.432 231.902 163.042 232.332Z" fill="#5E5851"/>
<path d="M163.111 232.297C162.735 232.715 129.666 203.715 89.2455 167.518C48.8312 131.329 14.7747 102.524 15.1506 102.106C15.5265 101.689 51.6149 129.183 92.0353 165.38C132.456 201.57 163.487 231.879 163.111 232.297Z" fill="#605B53"/>
<path d="M163.181 232.256C162.819 232.661 129.758 203.642 89.3367 167.452C48.9224 131.262 14.7887 102.512 15.1504 102.106C15.5117 101.707 51.7241 129.145 92.1446 165.341C132.565 201.531 163.549 231.857 163.181 232.256Z" fill="#625D55"/>
<path d="M163.25 232.221C162.903 232.608 129.848 203.582 89.4345 167.385C49.0136 131.196 14.8032 102.493 15.1503 102.106C15.4974 101.72 51.8263 129.112 92.2472 165.302C132.668 201.492 163.597 231.828 163.25 232.214L163.25 232.221Z" fill="#645F57"/>
<path d="M163.319 232.179C162.986 232.554 129.946 203.516 89.5257 167.319C49.1114 131.13 14.8173 102.481 15.1501 102.106C15.4892 101.739 51.9355 129.073 92.3564 165.263C132.777 201.453 163.659 231.805 163.319 232.179Z" fill="#666159"/>
<path d="M163.388 232.144C163.063 232.5 130.037 203.449 89.623 167.26C49.2026 131.063 14.8318 102.462 15.15 102.106C15.4749 101.751 52.0448 129.034 92.459 165.224C132.88 201.414 163.713 231.783 163.389 232.138L163.388 232.144Z" fill="#68635C"/>
<path d="M163.458 232.103C163.147 232.446 130.135 203.383 89.7147 167.186C49.3004 130.997 14.8458 102.45 15.1499 102.106C15.4605 101.764 52.1474 128.995 92.5678 165.192C132.989 201.382 163.768 231.767 163.458 232.103Z" fill="#6A655E"/>
<path d="M163.527 232.068C163.231 232.392 130.226 203.316 89.8121 167.127C49.3916 130.93 14.8599 102.437 15.1497 102.106C15.4458 101.782 52.2566 128.956 92.6705 165.152C133.091 201.342 163.823 231.744 163.527 232.068Z" fill="#6C6760"/>
<path d="M163.596 232.026C163.314 232.338 130.324 203.25 89.9038 167.054C49.4895 130.864 14.8679 102.418 15.1497 102.106C15.4315 101.795 52.3593 128.917 92.7798 165.114C133.201 201.304 163.878 231.715 163.596 232.026Z" fill="#6E6962"/>
<path d="M163.665 231.991C163.398 232.284 130.415 203.19 89.9946 166.994C49.5807 130.798 14.8819 102.406 15.1496 102.106C15.4167 101.814 52.4686 128.878 92.8824 165.075C133.303 201.264 163.933 231.692 163.665 231.991Z" fill="#706B64"/>
<path d="M163.735 231.95C163.482 232.231 130.507 203.117 90.0924 166.928C49.6781 130.738 14.8965 102.387 15.1495 102.106C15.4024 101.826 52.5708 128.846 92.9917 165.036C133.413 201.226 163.988 231.669 163.735 231.95Z" fill="#726D67"/>
<path d="M163.804 231.915C163.565 232.183 130.604 203.058 90.1836 166.861C49.7694 130.672 14.9106 102.375 15.1494 102.106C15.3877 101.845 52.6801 128.807 93.101 164.997C133.522 201.187 164.049 231.647 163.804 231.908L163.804 231.915Z" fill="#747069"/>
<path d="M163.873 231.873C163.649 232.123 130.696 202.985 90.2815 166.795C49.8606 130.605 14.9251 102.356 15.1493 102.106C15.3734 101.857 52.7827 128.768 93.2036 164.958C133.625 201.148 164.097 231.624 163.873 231.873Z" fill="#76726B"/>
<path d="M163.942 231.838C163.732 232.076 130.793 202.925 90.3727 166.729C49.9585 130.539 14.9392 102.344 15.1492 102.106C15.3591 101.869 52.892 128.729 93.3125 164.926C133.733 201.116 164.159 231.602 163.942 231.838Z" fill="#78746D"/>
<path d="M164.012 231.797C163.816 232.015 130.884 202.859 90.4706 166.663C50.0497 130.473 14.9533 102.331 15.1491 102.106C15.351 101.888 53.0013 128.69 93.4152 164.886C133.836 201.076 164.207 231.579 164.011 231.804L164.012 231.797Z" fill="#7A766F"/>
<path d="M164.081 231.762C163.893 231.968 130.982 202.793 90.5614 166.603C50.1476 130.407 14.9679 102.312 15.149 102.106C15.3367 101.901 53.104 128.651 93.5245 164.848C133.945 201.038 164.268 231.556 164.081 231.762Z" fill="#7C7872"/>
<path d="M164.15 231.72C163.977 231.907 131.074 202.726 90.6598 166.53C50.2389 130.34 14.982 102.3 15.1489 102.106C15.322 101.92 53.2133 128.612 93.6271 164.808C134.048 200.998 164.317 231.533 164.15 231.72Z" fill="#7F7A74"/>
<path d="M164.219 231.686C164.06 231.86 131.171 202.66 90.7506 166.47C50.3368 130.274 14.9966 102.281 15.1489 102.106C15.3077 101.932 53.3155 128.58 93.7365 164.77C134.157 200.96 164.378 231.511 164.219 231.686Z" fill="#817C76"/>
<path d="M164.288 231.651C164.144 231.806 131.262 202.6 90.8419 166.403C50.4281 130.207 15.0041 102.269 15.1488 102.106C15.2931 101.951 53.4249 128.541 93.8392 164.73C134.26 200.92 164.433 231.482 164.289 231.644L164.288 231.651Z" fill="#837E78"/>
<path d="M164.358 231.609C164.228 231.752 131.36 202.534 90.9398 166.337C50.5255 130.148 15.0187 102.25 15.1488 102.106C15.2788 101.963 53.5276 128.502 93.9485 164.692C134.369 200.882 164.488 231.459 164.358 231.602L164.358 231.609Z" fill="#85807B"/>
<path d="M164.427 231.574C164.311 231.705 131.452 202.467 91.0306 166.278C50.6168 130.081 15.0329 102.237 15.1487 102.106C15.2646 101.975 53.637 128.463 94.0574 164.66C134.478 200.85 164.549 231.443 164.433 231.575L164.427 231.574Z" fill="#87837D"/>
<path d="M164.496 231.533C164.395 231.645 131.543 202.401 91.129 166.205C50.7081 130.015 15.047 102.225 15.1487 102.106C15.2503 101.988 53.7397 128.424 94.1601 164.62C134.581 200.81 164.598 231.42 164.496 231.533Z" fill="#89857F"/>
<path d="M164.565 231.498C164.478 231.598 131.641 202.335 91.2198 166.145C50.806 129.949 15.0616 102.206 15.1486 102.106C15.2356 102.006 53.849 128.385 94.2695 164.582C134.69 200.772 164.659 231.398 164.565 231.498Z" fill="#8B8781"/>
<path d="M164.635 231.456C164.563 231.537 131.732 202.268 91.3182 166.072C50.8973 129.882 15.0758 102.194 15.1486 102.106C15.221 102.025 53.9584 128.346 94.3722 164.542C134.793 200.732 164.708 231.368 164.635 231.456Z" fill="#8D8983"/>
<path d="M164.704 231.421C164.639 231.49 131.83 202.202 91.409 166.012C50.9952 129.816 15.0904 102.175 15.1486 102.106C15.2067 102.038 54.0606 128.314 94.4815 164.504C134.902 200.694 164.769 231.346 164.705 231.415L164.704 231.421Z" fill="#8F8B86"/>
<path d="M164.774 231.38C164.723 231.429 131.921 202.136 91.507 165.946C51.0865 129.75 15.1046 102.163 15.1486 102.106C15.1992 102.05 54.17 128.275 94.5843 164.464C135.005 200.654 164.818 231.323 164.774 231.38Z" fill="#918D88"/>
<path d="M164.843 231.345C164.807 231.382 132.019 202.076 91.5983 165.88C51.1845 129.684 15.1192 102.144 15.1486 102.106C15.1845 102.069 54.2727 128.236 94.6936 164.426C135.115 200.616 164.879 231.301 164.843 231.338L164.843 231.345Z" fill="#938F8A"/>
<path d="M164.912 231.303C164.912 231.303 132.111 202.003 91.6896 165.813C51.2758 129.617 15.1268 102.131 15.1485 102.106C15.1703 102.081 54.3821 128.197 94.7964 164.386C135.217 200.576 164.934 231.278 164.913 231.297L164.912 231.303Z" fill="#95918C"/>
<path d="M164.981 231.268C164.981 231.268 132.201 201.943 91.7876 165.747C51.3733 129.558 15.141 102.119 15.1485 102.106C15.149 102.1 54.4849 128.158 94.9053 164.354C135.326 200.544 164.989 231.262 164.981 231.268Z" fill="#97938E"/>
<path d="M165.051 231.227C165.051 231.227 132.3 201.871 91.8789 165.681C51.4646 129.491 15.1556 102.1 15.1485 102.106C15.1481 102.113 54.5943 128.119 95.0081 164.315C135.429 200.505 165.044 231.233 165.051 231.227Z" fill="#999691"/>
<path d="M165.12 231.192C165.12 231.192 132.391 201.811 91.9764 165.621C51.556 129.425 15.1698 102.088 15.1485 102.106C15.1273 102.125 54.697 128.08 95.1175 164.276C135.538 200.466 165.099 231.21 165.121 231.185L165.12 231.192Z" fill="#9B9893"/>
<path d="M165.19 231.15C165.226 231.113 132.489 201.745 92.0682 165.548C51.6539 129.358 15.1845 102.069 15.1486 102.106C15.1126 102.144 54.806 128.048 95.2269 164.238C135.648 200.427 165.16 231.188 165.19 231.15Z" fill="#9D9A95"/>
<path d="M165.259 231.115C165.309 231.066 132.58 201.678 92.1657 165.489C51.7453 129.292 15.1987 102.057 15.1486 102.106C15.098 102.163 54.9154 128.009 95.3296 164.198C135.751 200.388 165.209 231.165 165.259 231.109L165.259 231.115Z" fill="#9F9C97"/>
<path d="M165.328 231.074C165.393 231.005 132.678 201.612 92.2575 165.415C51.8433 129.226 15.2134 102.038 15.1486 102.106C15.0838 102.175 55.0181 127.97 95.439 164.16C135.86 200.35 165.271 231.136 165.328 231.074Z" fill="#A19E99"/>
<path d="M165.398 231.039C165.47 230.958 132.769 201.545 92.3484 165.355C51.9346 129.159 15.2276 102.026 15.1486 102.106C15.0763 102.187 55.1275 127.931 95.5413 164.127C135.962 200.317 165.319 231.119 165.398 231.039Z" fill="#A3A09C"/>
<path d="M165.467 230.997C165.554 230.897 132.867 201.479 92.4464 165.289C52.0326 129.093 15.2418 102.013 15.1486 102.106C15.0616 102.206 55.2303 127.892 95.6508 164.088C136.072 200.278 165.38 231.097 165.467 230.997Z" fill="#A5A29E"/>
<path d="M165.536 230.962C165.638 230.85 132.958 201.419 92.5378 165.223C52.124 129.027 15.2565 101.995 15.1487 102.106C15.0409 102.218 55.3398 127.853 95.7536 164.049C136.174 200.239 165.429 231.074 165.536 230.962Z" fill="#A7A4A0"/>
<path d="M165.606 230.921C165.722 230.79 133.05 201.346 92.6358 165.157C52.2215 128.967 15.2641 101.982 15.1487 102.106C15.0329 102.237 55.4425 127.814 95.863 164.01C136.284 200.2 165.49 231.052 165.606 230.921Z" fill="#A9A6A2"/>
<path d="M165.675 230.886C165.805 230.742 133.148 201.287 92.7272 165.09C52.3129 128.901 15.2788 101.963 15.1487 102.106C15.0187 102.25 55.552 127.775 95.9658 163.971C136.387 200.161 165.538 231.029 165.676 230.879L165.675 230.886Z" fill="#ABA9A4"/>
<path d="M165.745 230.844C165.889 230.689 133.239 201.22 92.8252 165.024C52.4043 128.834 15.293 101.951 15.1488 102.106C15.0041 102.269 55.6543 127.742 96.0752 163.932C136.496 200.122 165.601 231 165.745 230.844Z" fill="#ADABA7"/>
<path d="M165.814 230.809C165.973 230.635 133.337 201.154 92.9161 164.964C52.5023 128.768 15.3077 101.932 15.1488 102.106C14.99 102.281 55.7637 127.704 96.1847 163.894C136.606 200.083 165.662 230.978 165.814 230.803L165.814 230.809Z" fill="#AFADA9"/>
<path d="M165.884 230.768C166.057 230.581 133.428 201.088 93.0146 164.892C52.5937 128.702 15.322 101.92 15.1489 102.106C14.9758 102.293 55.8666 127.664 96.2875 163.854C136.708 200.044 165.71 230.955 165.884 230.768Z" fill="#B1AFAB"/>
<path d="M165.953 230.733C166.14 230.527 133.526 201.022 93.1055 164.832C52.6917 128.636 15.3362 101.907 15.149 102.106C14.9612 102.312 55.976 127.626 96.3964 163.822C136.817 200.012 165.772 230.939 165.953 230.733Z" fill="#B4B1AD"/>
<path d="M166.022 230.691C166.224 230.473 133.618 200.955 93.1974 164.759C52.7831 128.569 15.351 101.888 15.149 102.106C14.9471 102.324 56.0855 127.587 96.4993 163.783C136.92 199.973 165.82 230.916 166.022 230.691Z" fill="#B6B3B0"/>
<path d="M166.092 230.656C166.301 230.419 133.716 200.889 93.2949 164.699C52.8811 128.503 15.3652 101.876 15.1491 102.106C14.9391 102.344 56.1882 127.548 96.6087 163.744C137.03 199.934 165.882 230.887 166.092 230.656Z" fill="#B8B5B2"/>
<path d="M166.161 230.615C166.385 230.365 133.807 200.822 93.3863 164.632C52.9725 128.436 15.3799 101.857 15.1491 102.106C14.925 102.356 56.2977 127.509 96.7115 163.705C137.132 199.895 165.93 230.864 166.161 230.615Z" fill="#BAB7B4"/>
<path d="M166.23 230.58C166.469 230.312 133.898 200.763 93.4843 164.566C53.0634 128.376 15.3942 101.845 15.1492 102.106C14.9104 102.375 56.4001 127.476 96.821 163.666C137.242 199.856 165.992 230.842 166.231 230.573L166.23 230.58Z" fill="#BCB9B6"/>
<path d="M166.3 230.538C166.553 230.258 133.997 200.69 93.5757 164.5C53.1614 128.31 15.4089 101.826 15.1493 102.106C14.8963 102.387 56.5095 127.437 96.9238 163.627C137.344 199.823 166.04 230.818 166.3 230.538Z" fill="#BEBCB8"/>
<path d="M166.369 230.503C166.636 230.211 134.088 200.63 93.6738 164.434C53.2529 128.244 15.4165 101.814 15.1494 102.106C14.8822 102.399 56.6124 127.398 97.0333 163.588C137.454 199.778 166.102 230.796 166.37 230.497L166.369 230.503Z" fill="#C0BEBB"/>
<path d="M166.439 230.462C166.721 230.15 134.186 200.557 93.7652 164.367C53.3509 128.178 15.4308 101.801 15.1495 102.106C14.8676 102.418 56.7218 127.36 97.1423 163.556C137.563 199.746 166.164 230.774 166.439 230.462Z" fill="#C2C0BD"/>
<path d="M166.508 230.427C166.804 230.103 134.277 200.497 93.8628 164.308C53.4423 128.111 15.4456 101.782 15.1496 102.106C14.8535 102.43 56.8247 127.32 97.2451 163.517C137.666 199.707 166.212 230.751 166.508 230.427Z" fill="#C4C2BF"/>
<path d="M166.578 230.385C166.888 230.043 134.375 200.431 93.9547 164.235C53.5404 128.045 15.4599 101.77 15.1497 102.106C14.839 102.449 56.9342 127.282 97.3546 163.478C137.775 199.675 166.274 230.729 166.578 230.385Z" fill="#C6C4C1"/>
<path d="M166.647 230.35C166.972 229.995 134.467 200.365 94.0456 164.175C53.6318 127.979 15.4746 101.751 15.1497 102.106C14.8249 102.461 57.0437 127.243 97.4575 163.439C137.878 199.635 166.322 230.706 166.647 230.35Z" fill="#C8C6C3"/>
<path d="M166.717 230.309C167.056 229.942 134.565 200.299 94.1441 164.102C53.7298 127.913 15.4889 101.739 15.1498 102.106C14.8169 102.481 57.146 127.21 97.5669 163.4C137.988 199.59 166.384 230.683 166.717 230.309Z" fill="#CAC8C6"/>
<path d="M166.786 230.274C167.133 229.887 134.656 200.232 94.2351 164.042C53.8213 127.846 15.5036 101.72 15.1499 102.106C14.8028 102.493 57.2555 127.171 97.6698 163.361C138.091 199.551 166.433 230.654 166.786 230.267L166.786 230.274Z" fill="#CCCAC8"/>
<path d="M166.855 230.239C167.216 229.84 134.747 200.172 94.3327 163.983C53.9127 127.78 15.5179 101.708 15.15 102.106C14.7887 102.505 57.3584 127.132 97.7793 163.322C138.2 199.512 166.494 230.631 166.856 230.232L166.855 230.239Z" fill="#CECCCA"/>
<path d="M166.925 230.197C167.301 229.78 134.845 200.106 94.4246 163.91C54.0103 127.72 15.5322 101.696 15.1501 102.106C14.7742 102.524 57.4679 127.093 97.8817 163.29C138.303 199.479 166.542 230.615 166.925 230.197Z" fill="#D0CECC"/>
<path d="M166.994 230.156C167.385 229.726 134.937 200.033 94.5227 163.844C54.1018 127.654 15.547 101.677 15.1502 102.106C14.7601 102.536 57.5707 127.054 97.9912 163.251C138.412 199.441 166.604 230.593 166.994 230.156Z" fill="#D2D1CE"/>
<path d="M167.064 230.121C167.468 229.672 135.035 199.974 94.6141 163.777C54.1999 127.587 15.5547 101.664 15.1504 102.106C14.7456 102.555 57.6803 127.015 98.0941 163.212C138.515 199.408 166.652 230.57 167.057 230.121L167.064 230.121Z" fill="#D4D3D1"/>
<path d="M167.133 230.086C167.552 229.625 135.126 199.907 94.7118 163.718C54.2913 127.521 15.5694 101.645 15.1505 102.106C14.7315 102.568 57.7831 126.976 98.2036 163.173C138.624 199.363 166.714 230.547 167.133 230.08L167.133 230.086Z" fill="#D6D5D3"/>
<path d="M167.203 230.045C167.636 229.571 135.224 199.841 94.8032 163.651C54.3894 127.455 15.5838 101.633 15.1506 102.106C14.717 102.586 57.8922 126.944 98.3131 163.134C138.734 199.324 166.776 230.519 167.203 230.045Z" fill="#D8D7D5"/>
<path d="M167.272 230.01C167.72 229.517 135.315 199.781 94.8947 163.584C54.4809 127.388 15.5986 101.614 15.1507 102.106C14.7029 102.599 58.0017 126.905 98.416 163.095C138.837 199.285 166.825 230.495 167.272 230.003L167.272 230.01Z" fill="#DAD9D7"/>
<path d="M167.342 229.968C167.804 229.464 135.414 199.709 94.9928 163.519C54.5723 127.322 15.6129 101.602 15.1509 102.107C14.6889 102.611 58.1046 126.866 98.5255 163.056C138.946 199.253 166.886 230.473 167.342 229.962L167.342 229.968Z" fill="#DCDBD9"/>
<path d="M167.411 229.933C167.887 229.41 135.505 199.649 95.0842 163.452C54.6704 127.256 15.6271 101.59 15.1509 102.107C14.6809 102.631 58.214 126.828 98.6283 163.017C139.049 199.214 166.935 230.45 167.411 229.927L167.411 229.933Z" fill="#DEDDDC"/>
<path d="M167.48 229.892C167.971 229.356 135.597 199.575 95.1823 163.386C54.7618 127.189 15.6419 101.571 15.1511 102.107C14.6669 102.643 58.3169 126.788 98.7374 162.985C139.158 199.175 166.996 230.428 167.48 229.892Z" fill="#E0DFDE"/>
<path d="M167.55 229.857C168.049 229.302 135.694 199.516 95.2733 163.326C54.8595 127.13 15.6563 101.559 15.1512 102.107C14.6524 102.662 58.4265 126.75 98.8403 162.946C139.261 199.136 167.045 230.405 167.55 229.857Z" fill="#E2E1E0"/>
<path d="M167.619 229.815C168.133 229.248 135.786 199.449 95.3718 163.253C54.9509 127.063 15.6711 101.54 15.1514 102.107C14.6383 102.674 58.5294 126.71 98.9498 162.907C139.37 199.104 167.106 230.383 167.619 229.815Z" fill="#E4E4E2"/>
<path d="M167.689 229.78C168.216 229.201 135.884 199.383 95.4629 163.193C55.0491 126.997 15.6854 101.527 15.1515 102.107C14.6238 102.693 58.6385 126.678 99.0527 162.868C139.473 199.064 167.155 230.36 167.683 229.773L167.689 229.78Z" fill="#E7E6E5"/>
<path d="M167.758 229.739C168.3 229.14 135.975 199.317 95.5614 163.121C55.1405 126.931 15.6936 101.508 15.1517 102.107C14.6098 102.705 58.7414 126.639 99.1623 162.829C139.583 199.019 167.217 230.337 167.758 229.739Z" fill="#E9E8E7"/>
<path d="M167.828 229.704C168.384 229.093 136.073 199.251 95.6525 163.061C55.2387 126.865 15.7079 101.496 15.1518 102.107C14.5957 102.717 58.8509 126.6 99.2718 162.79C139.692 198.987 167.272 230.315 167.828 229.697L167.828 229.704Z" fill="#EBEAE9"/>
<path d="M167.897 229.662C168.468 229.033 136.165 199.184 95.744 162.994C55.3301 126.798 15.7227 101.477 15.152 102.106C14.5812 102.736 58.9604 126.561 99.3747 162.751C139.796 198.941 167.327 230.285 167.898 229.656L167.897 229.662Z" fill="#EDECEB"/>
<path d="M167.967 229.627C168.552 228.985 136.256 199.124 95.8421 162.928C55.4217 126.732 15.7371 101.465 15.1522 102.107C14.5672 102.748 59.0634 126.522 99.4838 162.719C139.904 198.915 167.388 230.27 167.967 229.627Z" fill="#EFEEED"/>
<path d="M168.037 229.586C168.636 228.925 136.355 199.052 95.9336 162.862C55.5198 126.666 15.7515 101.452 15.1523 102.106C14.5527 102.767 59.1729 126.483 99.5868 162.68C140.008 198.869 167.437 230.247 168.037 229.586Z" fill="#F1F0F0"/>
<path d="M168.106 229.551C168.719 228.878 136.445 198.992 96.0316 162.796C55.6112 126.599 15.7662 101.433 15.1524 102.106C14.5452 102.78 59.2757 126.444 99.6962 162.641C140.117 198.837 167.499 230.224 168.106 229.551Z" fill="#F3F2F2"/>
<path d="M168.175 229.509C168.804 228.817 136.544 198.919 96.1231 162.729C55.7088 126.539 15.7805 101.421 15.1526 102.106C14.5307 102.799 59.3848 126.412 99.7991 162.602C140.22 198.791 167.547 230.201 168.175 229.509Z" fill="#F5F4F4"/>
<path d="M168.245 229.474C168.881 228.77 136.635 198.859 96.2208 162.669C55.8003 126.473 15.7954 101.402 15.1527 102.106C14.5167 102.811 59.4878 126.373 99.9087 162.563C140.33 198.753 167.609 230.172 168.245 229.468L168.245 229.474Z" fill="#F7F7F6"/>
<path d="M168.315 229.433C168.965 228.716 136.733 198.793 96.3128 162.596C55.8985 126.407 15.8097 101.39 15.1529 102.106C14.5027 102.823 59.5973 126.334 100.012 162.524C140.433 198.714 167.658 230.149 168.308 229.432L168.315 229.433Z" fill="#F9F9F8"/>
<path d="M168.384 229.398C169.049 228.662 136.825 198.726 96.4038 162.536C55.99 126.34 15.8246 101.371 15.1531 102.106C14.4882 102.842 59.7002 126.295 100.121 162.485C140.542 198.681 167.719 230.127 168.384 229.391L168.384 229.398Z" fill="#FBFBFB"/>
<path d="M168.446 229.356C169.125 228.608 136.915 198.66 96.4946 162.464C56.0803 126.274 15.8245 101.358 15.1455 102.106C14.4664 102.854 59.802 126.256 100.222 162.452C140.643 198.642 167.766 230.111 168.446 229.356Z" fill="#FDFDFD"/>
<path d="M168.515 229.321C167.821 230.088 140.746 198.61 100.325 162.413C59.9111 126.224 14.4519 102.873 15.1456 102.106C15.8393 101.339 56.1718 126.208 96.5861 162.397C137.007 198.587 169.209 228.548 168.516 229.315L168.515 229.321Z" fill="white"/>
</g>
<g style="mix-blend-mode:multiply" opacity="0.6">
<path d="M170.851 235.411C171.431 236.267 208.433 212.465 253.491 182.245C298.556 152.026 334.614 126.846 334.034 125.99C333.454 125.134 296.452 148.936 251.394 179.155C206.336 209.368 170.271 234.555 170.851 235.411Z" fill="#312A20"/>
<path d="M170.791 235.367C170.223 234.532 206.236 209.321 251.294 179.102C296.359 148.883 333.469 125.154 334.037 125.99C334.606 126.825 298.471 151.954 253.414 182.167C208.349 212.379 171.36 236.195 170.792 235.36L170.791 235.367Z" fill="#332C22"/>
<path d="M170.732 235.316C170.176 234.495 206.137 209.261 251.202 179.049C296.266 148.83 333.485 125.169 334.048 125.99C334.604 126.811 298.4 151.876 253.336 182.088C208.271 212.307 171.295 236.131 170.732 235.31L170.732 235.316Z" fill="#352E24"/>
<path d="M170.672 235.265C170.128 234.465 206.045 209.208 251.102 178.995C296.167 148.776 333.5 125.189 334.044 125.99C334.588 126.797 298.309 151.797 253.251 182.016C208.187 212.228 171.216 236.072 170.672 235.272L170.672 235.265Z" fill="#373027"/>
<path d="M170.604 235.221C170.073 234.435 205.937 209.161 251.002 178.942C296.066 148.723 333.508 125.203 334.047 125.99C334.579 126.776 298.231 151.718 253.166 181.937C208.101 212.156 171.143 236.008 170.604 235.221Z" fill="#393229"/>
<path d="M170.537 235.177C170.017 234.405 205.83 209.107 250.895 178.895C295.959 148.676 333.517 125.224 334.036 125.996C334.555 126.768 298.138 151.646 253.074 181.865C208.009 212.084 171.056 235.949 170.536 235.183L170.537 235.177Z" fill="#3B352B"/>
<path d="M170.47 235.126C169.962 234.374 205.73 209.054 250.794 178.842C295.859 148.623 333.525 125.238 334.038 125.997C334.546 126.748 298.053 151.567 252.988 181.786C207.924 211.998 170.983 235.884 170.469 235.132L170.47 235.126Z" fill="#3D372D"/>
<path d="M170.417 235.082C169.915 234.344 205.638 209.007 250.702 178.788C295.767 148.569 333.541 125.259 334.043 125.99C334.545 126.728 297.976 151.488 252.912 181.7C207.848 211.913 170.919 235.813 170.418 235.075L170.417 235.082Z" fill="#3F392F"/>
<path d="M170.35 235.031C169.86 234.314 205.537 208.947 250.595 178.735C295.66 148.516 333.549 125.273 334.039 125.99C334.529 126.707 297.884 151.409 252.827 181.622C207.763 211.834 170.84 235.748 170.35 235.031Z" fill="#413B32"/>
<path d="M170.29 234.987C169.813 234.284 205.438 208.9 250.502 178.688C295.567 148.469 333.565 125.294 334.043 125.996C334.52 126.699 297.807 151.337 252.743 181.549C207.685 211.762 170.768 235.69 170.29 234.987Z" fill="#433D34"/>
<path d="M170.222 234.936C169.757 234.247 205.338 208.841 250.395 178.628C295.46 148.409 333.573 125.308 334.038 125.99C334.504 126.679 297.715 151.252 252.657 181.464C207.599 211.684 170.688 235.618 170.222 234.936Z" fill="#453F36"/>
<path d="M170.163 234.892C169.71 234.224 205.238 208.794 250.302 178.581C295.367 148.363 333.589 125.328 334.049 125.997C334.502 126.665 297.644 151.18 252.58 181.392C207.515 211.605 170.623 235.56 170.163 234.892Z" fill="#474138"/>
<path d="M170.095 234.841C169.654 234.187 205.137 208.74 250.195 178.521C295.26 148.302 333.597 125.336 334.038 125.99C334.479 126.644 297.545 151.094 252.487 181.313C207.423 211.525 170.536 235.495 170.095 234.841Z" fill="#49433A"/>
<path d="M170.036 234.797C169.606 234.164 205.038 208.687 250.103 178.475C295.167 148.262 333.612 125.363 334.048 125.997C334.477 126.63 297.474 151.022 252.41 181.241C207.345 211.453 170.471 235.437 170.035 234.803L170.036 234.797Z" fill="#4C453D"/>
<path d="M169.968 234.746C169.551 234.127 204.938 208.634 249.995 178.421C295.06 148.202 333.62 125.377 334.037 125.99C334.454 126.609 297.382 150.937 252.318 181.155C207.253 211.368 170.385 235.365 169.968 234.746Z" fill="#4E483F"/>
<path d="M169.908 234.702C169.503 234.103 204.838 208.587 249.896 178.368C294.96 148.149 333.629 125.391 334.041 125.99C334.446 126.588 297.298 150.858 252.24 181.077C207.176 211.289 170.319 235.301 169.908 234.702Z" fill="#504A41"/>
<path d="M169.841 234.651C169.442 234.066 204.731 208.527 249.795 178.314C294.86 148.095 333.644 125.405 334.037 125.99C334.436 126.574 297.213 150.779 252.148 180.998C207.084 211.21 170.233 235.235 169.841 234.651Z" fill="#524C43"/>
<path d="M169.781 234.607C169.394 234.043 204.639 208.48 249.696 178.267C294.761 148.049 333.653 125.432 334.04 125.996C334.427 126.567 297.128 150.713 252.071 180.926C207.013 211.139 170.168 235.177 169.781 234.613L169.781 234.607Z" fill="#544E46"/>
<path d="M169.715 234.556C169.34 234.006 204.533 208.426 249.598 178.208C294.662 147.989 333.663 125.44 334.038 125.99C334.413 126.54 297.045 150.628 251.981 180.84C206.916 211.052 170.09 235.106 169.715 234.556Z" fill="#565048"/>
<path d="M169.654 234.512C169.291 233.976 204.439 208.373 249.496 178.161C294.561 147.942 333.677 125.461 334.04 125.996C334.403 126.532 296.959 150.556 251.901 180.768C206.836 210.987 170.017 235.047 169.654 234.512Z" fill="#58524A"/>
<path d="M169.596 234.461C169.245 233.946 204.341 208.32 249.406 178.101C294.47 147.882 333.695 125.468 334.052 125.99C334.403 126.505 296.89 150.471 251.825 180.683C206.761 210.895 169.953 234.976 169.596 234.461Z" fill="#5A544C"/>
<path d="M169.528 234.417C169.19 233.916 204.241 208.267 249.298 178.054C294.363 147.835 333.703 125.495 334.041 125.99C334.38 126.491 296.798 150.392 251.733 180.611C206.675 210.823 169.867 234.918 169.528 234.417Z" fill="#5C564E"/>
<path d="M169.461 234.366C169.135 233.885 204.134 208.213 249.198 178.001C294.262 147.782 333.711 125.509 334.044 125.99C334.37 126.47 296.712 150.313 251.648 180.532C206.584 210.744 169.794 234.853 169.461 234.366Z" fill="#5E5851"/>
<path d="M169.401 234.322C169.087 233.855 204.04 208.166 249.098 177.947C294.163 147.728 333.727 125.524 334.041 125.99C334.355 126.456 296.628 150.234 251.564 180.453C206.499 210.665 169.715 234.788 169.401 234.322Z" fill="#605B53"/>
<path d="M169.342 234.271C169.039 233.825 203.942 208.106 248.999 177.894C294.064 147.675 333.736 125.544 334.045 125.99C334.346 126.442 296.544 150.155 251.486 180.374C206.422 210.587 169.65 234.723 169.342 234.271Z" fill="#625D55"/>
<path d="M169.267 234.226C168.977 233.795 203.827 208.059 248.891 177.847C293.956 147.628 333.743 125.565 334.033 125.996C334.323 126.428 296.451 150.083 251.386 180.302C206.328 210.521 169.556 234.664 169.266 234.233L169.267 234.226Z" fill="#645F57"/>
<path d="M169.207 234.176C168.929 233.758 203.734 208.006 248.792 177.787C293.856 147.568 333.752 125.572 334.036 125.99C334.314 126.407 296.366 150.004 251.309 180.217C206.245 210.429 169.491 234.593 169.207 234.176Z" fill="#666159"/>
<path d="M169.14 234.131C168.867 233.735 203.627 207.952 248.691 177.74C293.756 147.528 333.767 125.6 334.032 125.996C334.305 126.393 296.281 149.932 251.217 180.144C206.153 210.356 169.405 234.528 169.14 234.131Z" fill="#68635C"/>
<path d="M169.079 234.081C168.819 233.698 203.534 207.899 248.592 177.68C293.656 147.461 333.776 125.607 334.036 125.983C334.296 126.366 296.197 149.84 251.14 180.052C206.075 210.265 169.34 234.457 169.08 234.074L169.079 234.081Z" fill="#6A655E"/>
<path d="M169.012 234.036C168.764 233.674 203.427 207.852 248.491 177.633C293.556 147.415 333.791 125.628 334.032 125.99C334.28 126.352 296.112 149.768 251.048 179.98C205.99 210.192 169.26 234.398 169.012 234.03L169.012 234.036Z" fill="#6C6760"/>
<path d="M168.953 233.986C168.717 233.638 203.335 207.793 248.392 177.58C293.457 147.361 333.8 125.642 334.036 125.99C334.271 126.338 296.034 149.689 250.97 179.908C205.912 210.121 169.188 234.333 168.952 233.992L168.953 233.986Z" fill="#6E6962"/>
<path d="M168.893 233.941C168.669 233.614 203.235 207.746 248.3 177.527C293.364 147.308 333.822 125.663 334.046 125.99C334.27 126.317 295.957 149.61 250.892 179.829C205.828 210.042 169.123 234.269 168.893 233.941Z" fill="#706B64"/>
<path d="M168.826 233.891C168.614 233.577 203.135 207.686 248.193 177.473C293.257 147.254 333.824 125.677 334.035 125.99C334.247 126.303 295.865 149.531 250.8 179.75C205.743 209.963 169.037 234.204 168.826 233.891Z" fill="#726D67"/>
<path d="M168.758 233.846C168.559 233.547 203.028 207.639 248.092 177.427C293.157 147.208 333.832 125.697 334.038 125.997C334.237 126.296 295.78 149.459 250.722 179.679C205.664 209.898 168.971 234.146 168.764 233.853L168.758 233.846Z" fill="#747069"/>
<path d="M168.698 233.795C168.511 233.517 202.935 207.586 247.993 177.366C293.058 147.148 333.848 125.705 334.035 125.99C334.222 126.268 295.696 149.374 250.631 179.593C205.567 209.805 168.886 234.074 168.698 233.795Z" fill="#76726B"/>
<path d="M168.631 233.751C168.456 233.487 202.828 207.532 247.886 177.319C292.95 147.1 333.849 125.732 334.031 125.99C334.206 126.254 295.603 149.301 250.546 179.514C205.482 209.726 168.813 234.009 168.631 233.751Z" fill="#78746D"/>
<path d="M168.571 233.7C168.408 233.457 202.728 207.478 247.793 177.26C292.858 147.041 333.872 125.74 334.035 125.983C334.204 126.227 295.526 149.216 250.462 179.428C205.397 209.64 168.734 233.937 168.571 233.694L168.571 233.7Z" fill="#7A766F"/>
<path d="M168.512 233.656C168.354 233.427 202.636 207.425 247.694 177.213C292.759 146.994 333.881 125.76 334.038 125.99C334.196 126.219 295.442 149.144 250.384 179.356C205.327 209.569 168.669 233.879 168.512 233.65L168.512 233.656Z" fill="#7C7872"/>
<path d="M168.443 233.612C168.297 233.403 202.528 207.378 247.592 177.166C292.656 146.947 333.894 125.788 334.033 125.996C334.178 126.205 295.355 149.072 250.291 179.284C205.226 209.496 168.582 233.821 168.436 233.612L168.443 233.612Z" fill="#7F7A74"/>
<path d="M168.377 233.561C168.244 233.366 202.428 207.325 247.487 177.106C292.551 146.887 333.897 125.795 334.03 125.99C334.163 126.185 295.271 148.986 250.207 179.205C205.142 209.424 168.51 233.756 168.377 233.561Z" fill="#817C76"/>
<path d="M168.318 233.517C168.196 233.343 202.33 207.272 247.394 177.059C292.459 146.841 333.92 125.816 334.041 125.997C334.162 126.171 295.194 148.914 250.129 179.133C205.072 209.346 168.438 233.698 168.317 233.524L168.318 233.517Z" fill="#837E78"/>
<path d="M168.258 233.466C168.149 233.306 202.237 207.219 247.295 177.006C292.36 146.787 333.93 125.83 334.038 125.996C334.147 126.156 295.11 148.835 250.045 179.054C204.987 209.274 168.367 233.633 168.258 233.473L168.258 233.466Z" fill="#85807B"/>
<path d="M168.19 233.422C168.094 233.276 202.129 207.171 247.187 176.952C292.252 146.733 333.937 125.85 334.034 125.99C334.13 126.136 295.018 148.75 249.96 178.969C204.895 209.188 168.287 233.561 168.191 233.415L168.19 233.422Z" fill="#87837D"/>
<path d="M168.131 233.371C168.046 233.246 202.031 207.111 247.095 176.899C292.16 146.68 333.953 125.865 334.038 125.99C334.122 126.115 294.941 148.671 249.876 178.89C204.818 209.103 168.215 233.496 168.131 233.371Z" fill="#89857F"/>
<path d="M168.056 233.32C167.984 233.209 201.923 207.058 246.98 176.845C292.045 146.626 333.947 125.878 334.026 125.99C334.105 126.101 294.841 148.598 249.783 178.811C204.719 209.023 168.135 233.432 168.056 233.32Z" fill="#8B8781"/>
<path d="M167.995 233.276C167.934 233.186 201.822 207.011 246.886 176.792C291.951 146.573 333.968 125.899 334.028 125.99C334.089 126.08 294.762 148.52 249.698 178.732C204.64 208.945 168.055 233.366 167.988 233.276L167.995 233.276Z" fill="#8D8983"/>
<path d="M167.937 233.232C167.882 233.155 201.731 206.958 246.789 176.745C291.853 146.526 333.979 125.92 334.034 125.996C334.082 126.073 294.686 148.448 249.622 178.66C204.564 208.873 167.991 233.309 167.937 233.232Z" fill="#8F8B86"/>
<path d="M167.878 233.181C167.835 233.118 201.632 206.904 246.697 176.686C291.761 146.473 334.002 125.928 334.038 125.99C334.081 126.046 294.603 148.362 249.538 178.575C204.48 208.794 167.914 233.237 167.871 233.181L167.878 233.181Z" fill="#918D88"/>
<path d="M167.81 233.137C167.78 233.095 201.532 206.851 246.589 176.639C291.654 146.42 334.003 125.954 334.033 125.996C334.064 126.038 294.517 148.29 249.452 178.509C204.395 208.722 167.84 233.185 167.81 233.143L167.81 233.137Z" fill="#938F8A"/>
<path d="M167.752 233.086C167.752 233.086 201.434 206.798 246.498 176.585C291.563 146.367 334.027 125.969 334.046 125.99C334.064 126.018 294.441 148.205 249.383 178.425C204.326 208.637 167.777 233.114 167.759 233.087L167.752 233.086Z" fill="#95918C"/>
<path d="M167.685 233.042C167.685 233.042 201.333 206.751 246.391 176.532C291.456 146.313 334.029 125.983 334.035 125.99C334.035 125.996 294.35 148.126 249.285 178.345C204.221 208.557 167.691 233.049 167.685 233.042Z" fill="#97938E"/>
<path d="M167.625 232.991C167.625 232.991 201.235 206.691 246.299 176.479C291.363 146.267 334.052 125.997 334.046 125.99C334.046 125.984 294.272 148.048 249.214 178.267C204.157 208.48 167.626 232.984 167.632 232.992L167.625 232.991Z" fill="#999691"/>
<path d="M167.558 232.947C167.558 232.947 201.127 206.644 246.192 176.425C291.257 146.206 334.053 126.017 334.035 125.99C334.017 125.962 294.18 147.968 249.116 178.187C204.058 208.4 167.54 232.919 167.558 232.94L167.558 232.947Z" fill="#9B9893"/>
<path d="M167.499 232.896C167.529 232.938 201.035 206.591 246.1 176.372C291.164 146.153 334.076 126.032 334.046 125.99C334.015 125.948 294.103 147.897 249.045 178.109C203.981 208.322 167.475 232.855 167.505 232.896L167.499 232.896Z" fill="#9D9A95"/>
<path d="M167.439 232.852C167.482 232.914 200.936 206.537 246.001 176.325C291.065 146.113 334.086 126.052 334.043 125.996C334.001 125.934 294.019 147.824 248.955 178.036C203.89 208.249 167.397 232.796 167.439 232.852Z" fill="#9F9C97"/>
<path d="M167.364 232.801C167.419 232.878 200.828 206.484 245.886 176.265C290.95 146.052 334.079 126.066 334.031 125.99C333.976 125.913 293.926 147.739 248.862 177.951C203.804 208.164 167.309 232.724 167.364 232.801Z" fill="#A19E99"/>
<path d="M167.303 232.757C167.363 232.847 200.728 206.43 245.792 176.218C290.856 145.999 334.1 126.087 334.034 125.99C333.973 125.899 293.841 147.66 248.776 177.872C203.712 208.084 167.237 232.659 167.297 232.75L167.303 232.757Z" fill="#A3A09C"/>
<path d="M167.245 232.706C167.317 232.817 200.636 206.377 245.694 176.165C290.759 145.946 334.111 126.101 334.039 125.99C333.967 125.879 293.765 147.581 248.7 177.8C203.636 208.012 167.172 232.601 167.245 232.706Z" fill="#A5A29E"/>
<path d="M167.178 232.662C167.262 232.787 200.529 206.33 245.594 176.111C290.658 145.893 334.126 126.115 334.035 125.99C333.95 125.864 293.673 147.502 248.615 177.721C203.551 207.934 167.093 232.536 167.178 232.662Z" fill="#A7A4A0"/>
<path d="M167.118 232.611C167.215 232.757 200.437 206.271 245.495 176.058C290.559 145.839 334.135 126.136 334.039 125.99C333.942 125.844 293.596 147.424 248.531 177.642C203.473 207.855 167.021 232.472 167.118 232.611Z" fill="#A9A6A2"/>
<path d="M167.051 232.567C167.16 232.727 200.33 206.224 245.394 176.011C290.458 145.799 334.15 126.157 334.041 125.997C333.932 125.837 293.51 147.352 248.452 177.571C203.395 207.784 166.948 232.414 167.057 232.574L167.051 232.567Z" fill="#ABA9A4"/>
<path d="M166.984 232.516C167.104 232.697 200.23 206.17 245.288 175.951C290.352 145.732 334.152 126.164 334.031 125.99C333.91 125.809 293.419 147.266 248.354 177.485C203.29 207.697 166.863 232.342 166.984 232.516Z" fill="#ADABA7"/>
<path d="M166.924 232.471C167.057 232.666 200.131 206.117 245.195 175.904C290.259 145.686 334.174 126.192 334.041 125.997C333.908 125.802 293.341 147.2 248.283 177.413C203.225 207.632 166.797 232.284 166.93 232.478L166.924 232.471Z" fill="#AFADA9"/>
<path d="M166.857 232.421C167.003 232.63 200.024 206.063 245.088 175.844C290.153 145.625 334.176 126.199 334.031 125.99C333.886 125.781 293.249 147.115 248.185 177.327C203.128 207.54 166.712 232.212 166.857 232.421Z" fill="#B1AFAB"/>
<path d="M166.805 232.377C166.963 232.606 199.939 206.01 244.997 175.798C290.061 145.585 334.193 126.219 334.043 125.99C333.885 125.76 293.18 147.036 248.116 177.249C203.058 207.461 166.648 232.14 166.806 232.37L166.805 232.377Z" fill="#B4B1AD"/>
<path d="M166.745 232.326C166.914 232.57 199.839 205.957 244.903 175.744C289.968 145.526 334.215 126.234 334.045 125.99C333.876 125.746 293.095 146.957 248.031 177.17C202.966 207.382 166.576 232.075 166.738 232.325L166.745 232.326Z" fill="#B6B3B0"/>
<path d="M166.671 232.282C166.846 232.546 199.732 205.91 244.79 175.691C289.854 145.472 334.21 126.254 334.035 125.99C333.86 125.726 293.003 146.879 247.938 177.097C202.874 207.31 166.489 232.017 166.671 232.282Z" fill="#B8B5B2"/>
<path d="M166.604 232.231C166.791 232.509 199.625 205.85 244.69 175.637C289.754 145.419 334.225 126.268 334.031 125.99C333.844 125.711 292.911 146.799 247.853 177.019C202.796 207.231 166.417 231.952 166.604 232.231Z" fill="#BAB7B4"/>
<path d="M166.545 232.186C166.744 232.485 199.533 205.803 244.591 175.59C289.655 145.378 334.235 126.289 334.035 125.996C333.836 125.697 292.834 146.727 247.77 176.946C202.712 207.159 166.345 231.894 166.544 232.193L166.545 232.186Z" fill="#BCB9B6"/>
<path d="M166.484 232.136C166.695 232.449 199.432 205.75 244.497 175.531C289.562 145.312 334.256 126.303 334.044 125.99C333.833 125.677 292.756 146.642 247.698 176.862C202.64 207.074 166.279 231.823 166.49 232.136L166.484 232.136Z" fill="#BEBCB8"/>
<path d="M166.426 232.092C166.65 232.419 199.342 205.697 244.399 175.484C289.464 145.272 334.267 126.324 334.043 125.996C333.819 125.669 292.673 146.57 247.608 176.789C202.551 207.002 166.202 231.764 166.425 232.098L166.426 232.092Z" fill="#C0BEBB"/>
<path d="M166.349 232.04C166.584 232.388 199.225 205.643 244.289 175.424C289.354 145.205 334.272 126.331 334.036 125.983C333.801 125.636 292.578 146.485 247.521 176.697C202.463 206.91 166.12 231.686 166.356 232.034L166.349 232.04Z" fill="#C2C0BD"/>
<path d="M166.29 231.996C166.538 232.358 199.126 205.589 244.191 175.377C289.255 145.158 334.282 126.352 334.034 125.99C333.786 125.628 292.495 146.412 247.431 176.624C202.373 206.837 166.042 231.628 166.283 231.996L166.29 231.996Z" fill="#C4C2BF"/>
<path d="M166.224 231.946C166.484 232.328 199.028 205.536 244.085 175.323C289.15 145.105 334.285 126.372 334.031 125.99C333.772 125.607 292.411 146.334 247.347 176.546C202.283 206.758 165.964 231.563 166.224 231.946Z" fill="#C6C4C1"/>
<path d="M166.165 231.901C166.437 232.298 198.929 205.489 243.994 175.27C289.058 145.058 334.308 126.387 334.036 125.99C333.764 125.593 292.328 146.255 247.264 176.467C202.206 206.679 165.893 231.498 166.159 231.894L166.165 231.901Z" fill="#C8C6C3"/>
<path d="M166.107 231.851C166.392 232.262 198.838 205.43 243.896 175.217C288.961 144.998 334.319 126.4 334.041 125.99C333.757 125.579 292.252 146.176 247.187 176.395C202.13 206.608 165.823 231.44 166.107 231.857L166.107 231.851Z" fill="#CAC8C6"/>
<path d="M166.048 231.807C166.338 232.238 198.739 205.383 243.804 175.17C288.868 144.952 334.342 126.428 334.045 125.997C333.749 125.565 292.168 146.104 247.11 176.323C202.052 206.536 165.758 231.382 166.048 231.813L166.048 231.807Z" fill="#CCCAC8"/>
<path d="M165.973 231.756C166.275 232.201 198.631 205.329 243.689 175.11C288.754 144.891 334.336 126.435 334.034 125.99C333.732 125.544 292.075 146.018 247.011 176.237C201.946 206.449 165.664 231.31 165.973 231.756Z" fill="#CECCCA"/>
<path d="M165.913 231.711C166.227 232.178 198.532 205.276 243.596 175.064C288.661 144.845 334.358 126.456 334.038 125.99C333.724 125.524 291.991 145.939 246.933 176.159C201.869 206.371 165.599 231.245 165.913 231.711Z" fill="#D0CECC"/>
<path d="M165.846 231.661C166.173 232.141 198.432 205.223 243.49 175.01C288.554 144.791 334.36 126.477 334.034 125.99C333.707 125.509 291.906 145.861 246.842 176.08C201.784 206.292 165.52 231.18 165.846 231.661Z" fill="#D2D1CE"/>
<path d="M165.792 231.616C166.13 232.117 198.338 205.169 243.402 174.957C288.467 144.738 334.388 126.491 334.049 125.99C333.711 125.489 291.841 145.783 246.776 176.002C201.718 206.214 165.46 231.116 165.798 231.617L165.792 231.616Z" fill="#D4D3D1"/>
<path d="M165.726 231.572C166.077 232.087 198.233 205.122 243.297 174.91C288.362 144.691 334.391 126.512 334.041 125.996C333.69 125.481 291.744 145.716 246.68 175.929C201.615 206.141 165.376 231.057 165.72 231.572L165.726 231.572Z" fill="#D6D5D3"/>
<path d="M165.66 231.521C166.023 232.057 198.134 205.069 243.192 174.85C288.256 144.631 334.395 126.518 334.038 125.99C333.675 125.461 291.66 145.631 246.596 175.843C201.538 206.056 165.298 230.986 165.66 231.521Z" fill="#D8D7D5"/>
<path d="M165.593 231.477C165.968 232.027 198.027 205.015 243.091 174.803C288.156 144.591 334.409 126.546 334.034 125.996C333.659 125.446 291.568 145.559 246.511 175.771C201.453 205.984 165.225 230.928 165.593 231.477Z" fill="#DAD9D7"/>
<path d="M165.534 231.426C165.922 231.99 197.935 204.962 242.993 174.749C288.057 144.537 334.419 126.56 334.038 125.996C333.651 125.432 291.491 145.48 246.427 175.699C201.369 205.912 165.147 230.869 165.534 231.433L165.534 231.426Z" fill="#DCDBD9"/>
<path d="M165.466 231.382C165.866 231.967 197.827 204.915 242.892 174.696C287.956 144.484 334.434 126.574 334.035 125.99C333.635 125.405 291.4 145.394 246.342 175.614C201.284 205.826 165.074 230.798 165.466 231.382Z" fill="#DEDDDC"/>
<path d="M165.408 231.331C165.812 231.93 197.736 204.855 242.793 174.643C287.858 144.424 334.443 126.595 334.039 125.99C333.627 125.391 291.323 145.316 246.258 175.535C201.2 205.747 164.996 230.732 165.408 231.331Z" fill="#E0DFDE"/>
<path d="M165.351 231.287C165.768 231.906 197.64 204.808 242.704 174.59C287.769 144.371 334.469 126.609 334.053 125.99C333.636 125.371 291.255 145.238 246.191 175.457C201.133 205.669 164.941 230.668 165.358 231.288L165.351 231.287Z" fill="#E2E1E0"/>
<path d="M165.28 231.236C165.709 231.869 197.536 204.749 242.593 174.536C287.657 144.324 334.467 126.623 334.038 125.99C333.609 125.356 291.153 145.158 246.088 175.377C201.024 205.589 164.844 230.602 165.273 231.236L165.28 231.236Z" fill="#E4E4E2"/>
<path d="M165.217 231.192C165.658 231.846 197.433 204.702 242.497 174.489C287.562 144.271 334.486 126.651 334.045 125.997C333.604 125.343 291.078 145.087 246.014 175.305C200.949 205.518 164.782 230.545 165.224 231.192L165.217 231.192Z" fill="#E7E6E5"/>
<path d="M165.154 231.141C165.607 231.809 197.33 204.648 242.394 174.429C287.459 144.21 334.491 126.658 334.038 125.99C333.585 125.322 290.984 145.007 245.919 175.219C200.862 205.432 164.694 230.473 165.147 231.141L165.154 231.141Z" fill="#E9E8E7"/>
<path d="M165.088 231.097C165.554 231.779 197.231 204.595 242.289 174.382C287.353 144.163 334.501 126.678 334.036 125.996C333.57 125.314 290.9 144.935 245.836 175.147C200.778 205.36 164.622 230.415 165.088 231.097Z" fill="#EBEAE9"/>
<path d="M165.028 231.046C165.506 231.749 197.132 204.541 242.196 174.329C287.26 144.117 334.517 126.693 334.04 125.99C333.562 125.287 290.816 144.849 245.759 175.062C200.701 205.275 164.551 230.343 165.029 231.039L165.028 231.046Z" fill="#EDECEB"/>
<path d="M164.969 231.002C165.459 231.719 197.039 204.495 242.097 174.276C287.162 144.057 334.527 126.713 334.044 125.99C333.554 125.273 290.739 144.771 245.674 174.99C200.617 205.202 164.479 230.285 164.969 231.002Z" fill="#EFEEED"/>
<path d="M164.902 230.951C165.404 231.689 196.933 204.435 241.997 174.222C287.061 144.01 334.542 126.728 334.04 125.99C333.538 125.252 290.647 144.692 245.589 174.911C200.532 205.124 164.406 230.22 164.902 230.951Z" fill="#F1F0F0"/>
<path d="M164.835 230.907C165.349 231.659 196.833 204.388 241.891 174.169C286.955 143.956 334.544 126.741 334.036 125.99C333.522 125.238 290.563 144.613 245.498 174.832C200.44 205.045 164.321 230.155 164.835 230.907Z" fill="#F3F2F2"/>
<path d="M164.776 230.856C165.295 231.628 196.734 204.334 241.798 174.116C286.862 143.903 334.566 126.762 334.04 125.99C333.514 125.217 290.485 144.534 245.421 174.753C200.363 204.966 164.256 230.09 164.776 230.856Z" fill="#F5F4F4"/>
<path d="M164.708 230.812C165.239 231.598 196.633 204.281 241.69 174.068C286.755 143.85 334.567 126.782 334.035 125.996C333.504 125.21 290.393 144.462 245.328 174.681C200.271 204.894 164.169 230.025 164.701 230.818L164.708 230.812Z" fill="#F7F7F6"/>
<path d="M164.653 230.761C165.197 231.561 196.538 204.228 241.603 174.009C286.667 143.79 334.595 126.791 334.051 125.99C333.506 125.19 290.327 144.377 245.262 174.596C200.204 204.809 164.115 229.961 164.659 230.761L164.653 230.761Z" fill="#F9F9F8"/>
<path d="M164.583 230.717C165.139 231.538 196.429 204.174 241.494 173.962C286.551 143.749 334.594 126.811 334.038 125.996C333.482 125.175 290.226 144.311 245.162 174.523C200.104 204.736 164.021 229.895 164.577 230.716L164.583 230.717Z" fill="#FBFBFB"/>
<path d="M164.518 230.666C165.087 231.501 196.331 204.121 241.396 173.909C286.46 143.696 334.611 126.832 334.043 125.99C333.475 125.155 290.15 144.226 245.086 174.438C200.028 204.651 163.957 229.824 164.525 230.666L164.518 230.666Z" fill="#FDFDFD"/>
<path d="M164.458 230.622C165.038 231.478 196.231 204.074 241.296 173.855C286.36 143.643 334.62 126.846 334.04 125.99C333.459 125.134 290.058 144.147 245.001 174.359C199.943 204.572 163.878 229.759 164.458 230.615L164.458 230.622Z" fill="white"/>
</g>
<g filter="url(#filter2_dg_2309_11647)">
<rect width="280" height="216" transform="matrix(0.999391 0.0348995 -0.0336588 0.999433 33.7911 83.6513)" fill="#FEFAF6"/>
</g>
<g filter="url(#filter3_n_2309_11647)">
<path d="M318.863 335.165L177.728 230.456L334.045 125.97L318.863 335.165Z" fill="#CFC3B7"/>
</g>
<g filter="url(#filter4_n_2309_11647)">
<path d="M2.29555 313.029L156.623 228.98L16.3692 103.756L2.29555 313.029Z" fill="#CFC3B7"/>
</g>
<g filter="url(#filter5_ddn_2309_11647)">
<path d="M1.19272 312.951C1.19272 312.951 83.8317 264.472 111.982 249.398C126.099 241.84 169.314 220.819 169.314 220.819C169.314 220.819 214.673 251.408 229.28 262.307C252.605 279.714 320.024 335.246 320.024 335.246L1.19272 312.951Z" fill="#CFC3B7"/>
</g>
<defs>
<filter id="filter0_n_2309_11647" x="15.1524" y="11.2603" width="318.83" height="114.873" filterUnits="userSpaceOnUse" color-interpolation-filters="sRGB">
<feFlood flood-opacity="0" result="BackgroundImageFix"/>
<feBlend mode="normal" in="SourceGraphic" in2="BackgroundImageFix" result="shape"/>
<feTurbulence type="fractalNoise" baseFrequency="0.37495741248130798 0.37495741248130798" stitchTiles="stitch" numOctaves="3" result="noise" seed="290" />
<feColorMatrix in="noise" type="luminanceToAlpha" result="alphaNoise" />
<feComponentTransfer in="alphaNoise" result="coloredNoise1">
<feFuncA type="discrete" tableValues="0 0 0 0 0 0 0 0 0 0 0 0 0 0 0 0 0 0 0 0 0 0 1 1 1 1 1 1 0 0 0 0 0 0 0 0 0 0 0 0 0 0 0 0 0 0 0 0 0 0 0 0 0 0 0 0 0 0 0 0 0 0 0 0 0 0 0 0 0 0 0 0 0 0 0 0 0 0 0 0 0 0 0 0 0 0 0 0 0 0 0 0 0 0 0 0 0 0 0 0 "/>
</feComponentTransfer>
<feComposite operator="in" in2="shape" in="coloredNoise1" result="noise1Clipped" />
<feFlood flood-color="rgba(94, 82, 78, 0.4)" result="color1Flood" />
<feComposite operator="in" in2="noise1Clipped" in="color1Flood" result="color1" />
<feMerge result="effect1_noise_2309_11647">
<feMergeNode in="shape" />
<feMergeNode in="color1" />
</feMerge>
</filter>
<filter id="filter1_n_2309_11647" x="50.0626" y="33.7859" width="249.662" height="89.9516" filterUnits="userSpaceOnUse" color-interpolation-filters="sRGB">
<feFlood flood-opacity="0" result="BackgroundImageFix"/>
<feBlend mode="normal" in="SourceGraphic" in2="BackgroundImageFix" result="shape"/>
<feTurbulence type="fractalNoise" baseFrequency="0.37495741248130798 0.37495741248130798" stitchTiles="stitch" numOctaves="3" result="noise" seed="290" />
<feColorMatrix in="noise" type="luminanceToAlpha" result="alphaNoise" />
<feComponentTransfer in="alphaNoise" result="coloredNoise1">
<feFuncA type="discrete" tableValues="0 0 0 0 0 0 0 0 0 0 0 0 0 0 0 0 0 0 0 0 0 0 1 1 1 1 1 1 0 0 0 0 0 0 0 0 0 0 0 0 0 0 0 0 0 0 0 0 0 0 0 0 0 0 0 0 0 0 0 0 0 0 0 0 0 0 0 0 0 0 0 0 0 0 0 0 0 0 0 0 0 0 0 0 0 0 0 0 0 0 0 0 0 0 0 0 0 0 0 0 "/>
</feComponentTransfer>
<feComposite operator="in" in2="shape" in="coloredNoise1" result="noise1Clipped" />
<feFlood flood-color="rgba(94, 82, 78, 0.4)" result="color1Flood" />
<feComposite operator="in" in2="noise1Clipped" in="color1Flood" result="color1" />
<feMerge result="effect1_noise_2309_11647">
<feMergeNode in="shape" />
<feMergeNode in="color1" />
</feMerge>
</filter>
<filter id="filter2_dg_2309_11647" x="22.5211" y="76.9839" width="297.767" height="236.317" filterUnits="userSpaceOnUse" color-interpolation-filters="sRGB">
<feFlood flood-opacity="0" result="BackgroundImageFix"/>
<feColorMatrix in="SourceAlpha" type="matrix" values="0 0 0 0 0 0 0 0 0 0 0 0 0 0 0 0 0 0 127 0" result="hardAlpha"/>
<feOffset dx="1.33348" dy="-1.33348"/>
<feGaussianBlur stdDeviation="2.66697"/>
<feComposite in2="hardAlpha" operator="out"/>
<feColorMatrix type="matrix" values="0 0 0 0 0.172549 0 0 0 0 0.145098 0 0 0 0 0.133333 0 0 0 0.25 0"/>
<feBlend mode="normal" in2="BackgroundImageFix" result="effect1_dropShadow_2309_11647"/>
<feBlend mode="normal" in="SourceGraphic" in2="effect1_dropShadow_2309_11647" result="shape"/>
<feTurbulence type="fractalNoise" baseFrequency="0.24997162818908691 0.24997162818908691" numOctaves="3" seed="9237" />
<feDisplacementMap in="shape" scale="4.0004539489746094" xChannelSelector="R" yChannelSelector="G" result="displacedImage" width="100%" height="100%" />
<feMerge result="effect2_texture_2309_11647">
<feMergeNode in="displacedImage"/>
</feMerge>
</filter>
<filter id="filter3_n_2309_11647" x="177.729" y="125.97" width="156.316" height="209.195" filterUnits="userSpaceOnUse" color-interpolation-filters="sRGB">
<feFlood flood-opacity="0" result="BackgroundImageFix"/>
<feBlend mode="normal" in="SourceGraphic" in2="BackgroundImageFix" result="shape"/>
<feTurbulence type="fractalNoise" baseFrequency="0.37495741248130798 0.37495741248130798" stitchTiles="stitch" numOctaves="3" result="noise" seed="846" />
<feColorMatrix in="noise" type="luminanceToAlpha" result="alphaNoise" />
<feComponentTransfer in="alphaNoise" result="coloredNoise1">
<feFuncA type="discrete" tableValues="0 0 0 0 0 0 0 0 0 0 0 0 0 0 0 0 0 0 0 0 0 0 1 1 1 1 1 1 0 0 0 0 0 0 0 0 0 0 0 0 0 0 0 0 0 0 0 0 0 0 0 0 0 0 0 0 0 0 0 0 0 0 0 0 0 0 0 0 0 0 0 0 0 0 0 0 0 0 0 0 0 0 0 0 0 0 0 0 0 0 0 0 0 0 0 0 0 0 0 0 "/>
</feComponentTransfer>
<feComposite operator="in" in2="shape" in="coloredNoise1" result="noise1Clipped" />
<feFlood flood-color="rgba(100, 77, 63, 0.4)" result="color1Flood" />
<feComposite operator="in" in2="noise1Clipped" in="color1Flood" result="color1" />
<feMerge result="effect1_noise_2309_11647">
<feMergeNode in="shape" />
<feMergeNode in="color1" />
</feMerge>
</filter>
<filter id="filter4_n_2309_11647" x="2.29503" y="103.756" width="154.328" height="209.272" filterUnits="userSpaceOnUse" color-interpolation-filters="sRGB">
<feFlood flood-opacity="0" result="BackgroundImageFix"/>
<feBlend mode="normal" in="SourceGraphic" in2="BackgroundImageFix" result="shape"/>
<feTurbulence type="fractalNoise" baseFrequency="0.37495741248130798 0.37495741248130798" stitchTiles="stitch" numOctaves="3" result="noise" seed="846" />
<feColorMatrix in="noise" type="luminanceToAlpha" result="alphaNoise" />
<feComponentTransfer in="alphaNoise" result="coloredNoise1">
<feFuncA type="discrete" tableValues="0 0 0 0 0 0 0 0 0 0 0 0 0 0 0 0 0 0 0 0 0 0 1 1 1 1 1 1 0 0 0 0 0 0 0 0 0 0 0 0 0 0 0 0 0 0 0 0 0 0 0 0 0 0 0 0 0 0 0 0 0 0 0 0 0 0 0 0 0 0 0 0 0 0 0 0 0 0 0 0 0 0 0 0 0 0 0 0 0 0 0 0 0 0 0 0 0 0 0 0 "/>
</feComponentTransfer>
<feComposite operator="in" in2="shape" in="coloredNoise1" result="noise1Clipped" />
<feFlood flood-color="rgba(100, 77, 63, 0.4)" result="color1Flood" />
<feComposite operator="in" in2="noise1Clipped" in="color1Flood" result="color1" />
<feMerge result="effect1_noise_2309_11647">
<feMergeNode in="shape" />
<feMergeNode in="color1" />
</feMerge>
</filter>
<filter id="filter5_ddn_2309_11647" x="-8.14093" y="214.151" width="337.499" height="127.762" filterUnits="userSpaceOnUse" color-interpolation-filters="sRGB">
<feFlood flood-opacity="0" result="BackgroundImageFix"/>
<feColorMatrix in="SourceAlpha" type="matrix" values="0 0 0 0 0 0 0 0 0 0 0 0 0 0 0 0 0 0 127 0" result="hardAlpha"/>
<feOffset dx="4.00045" dy="1.33348"/>
<feGaussianBlur stdDeviation="2.66697"/>
<feComposite in2="hardAlpha" operator="out"/>
<feColorMatrix type="matrix" values="0 0 0 0 0 0 0 0 0 0 0 0 0 0 0 0 0 0 0.15 0"/>
<feBlend mode="normal" in2="BackgroundImageFix" result="effect1_dropShadow_2309_11647"/>
<feColorMatrix in="SourceAlpha" type="matrix" values="0 0 0 0 0 0 0 0 0 0 0 0 0 0 0 0 0 0 127 0" result="hardAlpha"/>
<feOffset dx="-4.00045" dy="-1.33348"/>
<feGaussianBlur stdDeviation="2.66697"/>
<feComposite in2="hardAlpha" operator="out"/>
<feColorMatrix type="matrix" values="0 0 0 0 0 0 0 0 0 0 0 0 0 0 0 0 0 0 0.15 0"/>
<feBlend mode="normal" in2="effect1_dropShadow_2309_11647" result="effect2_dropShadow_2309_11647"/>
<feBlend mode="normal" in="SourceGraphic" in2="BackgroundImageFix" result="shape"/>
<feTurbulence type="fractalNoise" baseFrequency="0.37495741248130798 0.37495741248130798" stitchTiles="stitch" numOctaves="3" result="noise" seed="846" />
<feColorMatrix in="noise" type="luminanceToAlpha" result="alphaNoise" />
<feComponentTransfer in="alphaNoise" result="coloredNoise1">
<feFuncA type="discrete" tableValues="0 0 0 0 0 0 0 0 0 0 0 0 0 0 0 0 0 0 0 0 0 0 1 1 1 1 1 1 0 0 0 0 0 0 0 0 0 0 0 0 0 0 0 0 0 0 0 0 0 0 0 0 0 0 0 0 0 0 0 0 0 0 0 0 0 0 0 0 0 0 0 0 0 0 0 0 0 0 0 0 0 0 0 0 0 0 0 0 0 0 0 0 0 0 0 0 0 0 0 0 "/>
</feComponentTransfer>
<feComposite operator="in" in2="shape" in="coloredNoise1" result="noise1Clipped" />
<feFlood flood-color="rgba(100, 77, 63, 0.4)" result="color1Flood" />
<feComposite operator="in" in2="noise1Clipped" in="color1Flood" result="color1" />
<feMerge result="effect3_noise_2309_11647">
<feMergeNode in="shape" />
<feMergeNode in="color1" />
</feMerge>
<feBlend mode="normal" in="effect3_noise_2309_11647" in2="effect2_dropShadow_2309_11647" result="effect3_noise_2309_11647"/>
</filter>
</defs>
</svg>
