<svg width="56" height="24" viewBox="0 0 56 24" fill="none" xmlns="http://www.w3.org/2000/svg">
<path d="M10.1871 14.7534C10.5568 14.7534 11.0087 14.6301 11.4194 14.3835V12.5342H9.61206C9.1602 13.315 9.07808 14.0959 9.48883 14.4658C9.65312 14.6712 9.85852 14.7534 10.1871 14.7534Z" fill="#F08232"/>
<path d="M9.24226 16.7671C9.89951 16.7671 10.68 16.5616 11.4193 16.1918V15.2055C11.0086 15.3699 10.5978 15.4931 10.187 15.4931C9.69412 15.4931 9.28332 15.3288 8.95474 15.0411C8.37965 14.4658 8.37965 13.5205 8.7904 12.5753H7.7635C7.02413 14.0548 6.98302 15.452 7.72239 16.2329C8.09208 16.6027 8.58505 16.7671 9.24226 16.7671Z" fill="#F08232"/>
<path d="M5.66869 18.3288C6.16161 18.8219 6.9421 19.1096 7.84576 19.1096C8.91377 19.1096 10.1872 18.7397 11.4195 18.0822V17.0137C10.6801 17.3424 9.94071 17.5068 9.2424 17.5068C8.42085 17.5068 7.72253 17.2603 7.18856 16.726C6.24378 15.7808 6.20272 14.1781 6.90104 12.5342H5.91515C4.68286 14.9178 4.47747 17.137 5.66869 18.3288Z" fill="#F08232"/>
<path d="M3.12196 20.8767C3.73811 21.4931 4.64181 21.8219 5.79195 21.8219C7.43504 21.8219 9.40671 21.1643 11.3784 19.9726V18.9041C10.1461 19.5206 8.9138 19.8493 7.80473 19.8493C6.69567 19.8493 5.75089 19.5206 5.13474 18.863C3.77919 17.5068 3.82027 15.0822 5.09363 12.5753H4.06673C2.01289 15.9863 1.51996 19.2739 3.12196 20.8767Z" fill="#F08232"/>
<path d="M5.79183 22.5616C4.47739 22.5616 3.36831 22.1507 2.58785 21.411C1.31446 20.137 1.068 18.0411 1.88954 15.452C2.17708 14.5068 2.62892 13.5616 3.16293 12.5753H0V24H11.4194V20.8356C9.44771 21.9452 7.47599 22.5616 5.79183 22.5616Z" fill="#F08232"/>
<path d="M22.3048 5.30142C21.6887 5.13708 21.0725 5.05486 20.5385 5.05486C19.8402 5.05486 19.4294 5.17814 19.4294 5.17814C19.4294 5.17814 19.3473 5.21925 19.224 5.21925C19.1419 5.21925 19.0597 5.17814 19.0187 5.13708C18.8543 5.01375 18.9776 4.72608 18.9776 4.72608C18.9776 4.6439 19.4705 2.91787 18.6079 1.06855C18.4025 0.657597 18.1971 0.287734 17.9507 6.10352e-05H12.5696V11.4247H23.989V6.08225C23.455 5.75347 22.8799 5.42475 22.3048 5.30142Z" fill="#B4D23C"/>
<path d="M20.5384 4.3152C21.1545 4.3152 21.8118 4.39739 22.5101 4.60287C22.8798 4.68506 23.2495 4.84942 23.5781 5.01381L21.4421 2.87684L19.1829 0.616566C19.2239 0.65766 19.2239 0.698755 19.265 0.78095C19.9633 2.2604 19.8812 3.65766 19.799 4.39739C20.0044 4.3152 20.2509 4.3152 20.5384 4.3152Z" fill="#B4D23C"/>
<path d="M16.7184 12.5753H15.1575V24H16.7184V12.5753Z" fill="#0FB9A0"/>
<path d="M19.0187 12.5753H17.4578V24H19.0187V12.5753Z" fill="#0FB9A0"/>
<path d="M21.319 12.5753H19.7581V24H21.319V12.5753Z" fill="#0FB9A0"/>
<path d="M23.9479 12.5753H22.0583V24H23.9479V12.5753Z" fill="#0FB9A0"/>
<path d="M14.4181 12.5754H12.5286V24.0001H14.4181V12.5754Z" fill="#0FB9A0"/>
<path d="M9.07802 5.8768C8.25647 7.5206 7.43493 9.20555 5.70971 9.20555C3.98446 9.20555 3.12185 7.47954 2.30031 5.8768C1.68415 4.52062 1.02693 3.24664 0 3.00006V11.4247H11.4194V3.00006C10.3514 3.24664 9.73523 4.52062 9.07802 5.8768Z" fill="#AA6432"/>
<path d="M2.99862 5.54796C3.738 7.06848 4.43631 8.46576 5.70971 8.46576C6.98307 8.46576 7.68139 7.02742 8.42076 5.54796C9.16014 4.0274 9.89957 2.50685 11.3783 2.26028V0H0V2.21918C1.47877 2.46576 2.25923 4.0274 2.99862 5.54796Z" fill="#AA6432"/>
<path d="M35.5472 12.0001C35.5472 10.1096 34.1506 8.548 32.261 8.548C30.3304 8.548 28.9748 10.0685 28.9748 12.0001C28.9748 13.8905 30.3715 15.4521 32.261 15.4521C34.1506 15.4521 35.5472 13.8905 35.5472 12.0001ZM27.989 12.0001C27.989 9.69868 29.7143 7.68498 32.261 7.68498C34.8078 7.68498 36.533 9.69868 36.533 12.0001C36.533 14.3014 34.8078 16.3151 32.261 16.3151C29.6732 16.3151 27.989 14.3014 27.989 12.0001Z" fill="#E2DAD2"/>
<path d="M41.8319 15.2877C43.1874 15.2877 44.05 14.7946 44.05 13.6028C44.05 12.5343 43.1874 12.0412 41.7908 12.0412H39.3262V15.2877H41.8319ZM38.3814 7.80827H44.3787V8.67129H39.3262V11.2192H41.7908C43.5571 11.2192 44.9538 11.959 44.9538 13.6439C44.9538 15.2877 43.7214 16.1508 41.873 16.1508H38.3403V7.80827H38.3814Z" fill="#E2DAD2"/>
<path d="M54.6481 11.959C54.6481 10.1918 53.4567 9.20553 51.4027 9.20553V14.7124C53.4567 14.7124 54.6481 13.7261 54.6481 11.959ZM50.4169 9.20553C48.3631 9.20553 47.1719 10.1918 47.1719 11.959C47.1719 13.7261 48.3631 14.7124 50.4169 14.7124V9.20553ZM50.4169 15.5754C47.7059 15.5754 46.186 14.137 46.186 11.959C46.186 9.78087 47.747 8.34252 50.4169 8.34252V7.5206H51.3618V8.34252C54.032 8.34252 55.5925 9.78087 55.5925 11.959C55.5925 14.137 54.0729 15.5754 51.3618 15.5754V16.4795H50.4169V15.5754Z" fill="#E2DAD2"/>
</svg>
