<svg width="52" height="79" viewBox="0 0 52 79" fill="none" xmlns="http://www.w3.org/2000/svg">
<g clip-path="url(#clip0_446_2765)">
<path d="M22.05 32.4719C22.9928 32.4306 23.9109 32.1545 24.7236 31.668V27.6484H20.83C19.8695 29.3749 19.7008 31.0749 20.5444 31.9315C20.7451 32.1181 20.9806 32.2622 21.237 32.355C21.4933 32.4478 21.7654 32.4875 22.037 32.4719" fill="#F58732"/>
<path d="M20.0164 36.9009C21.6659 36.8363 23.2782 36.3852 24.7277 35.583V33.4482C23.8886 33.8411 22.978 34.052 22.0541 34.0676C21.5767 34.0812 21.1015 33.9985 20.656 33.8243C20.2104 33.6501 19.8033 33.388 19.4583 33.0528C18.2253 31.814 18.1604 29.7448 19.0819 27.623H16.8365C15.2661 30.8255 15.1103 33.9884 16.8365 35.6621C17.2743 36.0758 17.7893 36.3962 18.351 36.6044C18.9128 36.8126 19.5099 36.9046 20.1072 36.8747" fill="#F58732"/>
<path d="M12.2956 40.3249C12.9286 40.9114 13.6696 41.3646 14.476 41.6586C15.2825 41.9528 16.1382 42.0817 16.9939 42.0382C19.7358 41.9239 22.4088 41.1323 24.7812 39.7319V37.3992C23.305 38.1025 21.7002 38.4841 20.0699 38.5194C19.2626 38.5524 18.4571 38.4199 17.7012 38.1301C16.9453 37.8403 16.2546 37.3991 15.6702 36.8326C13.6065 34.7371 13.5026 31.2448 15.06 27.6074H12.9315C10.18 32.7208 9.77772 37.676 12.3475 40.2854" fill="#F58732"/>
<path d="M6.82714 45.9142C7.60411 46.6401 8.51698 47.1997 9.51148 47.5597C10.506 47.9196 11.5617 48.0726 12.6157 48.0096C16.9334 47.7504 21.1085 46.3463 24.725 43.9374V41.552C22.3217 42.8491 19.6579 43.5704 16.9376 43.6606C15.8721 43.7056 14.8083 43.5353 13.8079 43.1598C12.8076 42.7843 11.8907 42.211 11.1102 41.473C8.13799 38.455 8.29371 33.144 11.0063 27.6484H8.76098C4.30922 35.1208 3.27087 42.3559 6.77517 45.9142" fill="#F58732"/>
<path d="M12.6176 49.6306C11.3541 49.6907 10.0916 49.4944 8.9038 49.0531C7.716 48.6118 6.62674 47.9345 5.6998 47.0606C2.94828 44.2536 2.41617 39.6016 4.19428 33.9479C4.90775 31.7559 5.84292 29.6448 6.98478 27.6484H0.0410156V52.6881H24.7009V45.7692C21.046 48.0606 16.8813 49.3796 12.5917 49.6043" fill="#F58732"/>
<path d="M48.319 11.6237C47.0508 11.2655 45.7415 11.0794 44.4253 11.0702C43.6215 11.0372 42.8183 11.1442 42.05 11.3865C41.9034 11.4356 41.7504 11.4622 41.5959 11.4655C41.4282 11.4745 41.2627 11.4232 41.1287 11.3206C40.8172 11.0702 41.0119 10.4376 41.0248 10.4112C41.6381 7.71164 41.3599 4.88218 40.2331 2.35901C39.847 1.51731 39.3633 0.725371 38.7923 0H27.1113V25.0397H51.7712V13.3237C50.6988 12.5584 49.511 11.9753 48.2541 11.5973" fill="#B0D140"/>
<path d="M44.4696 9.48532C45.9087 9.49676 47.3401 9.70058 48.7267 10.0915C49.5169 10.3141 50.2824 10.6188 51.011 11.0009L46.4165 6.33557L41.5234 1.36719C41.5234 1.47262 41.6402 1.57803 41.6922 1.68346C42.7981 4.15755 43.1897 6.89958 42.8213 9.59072C43.368 9.5203 43.9186 9.4851 44.4696 9.48532Z" fill="#B0D140"/>
<path d="M36.2658 27.6484H32.9043V52.7145H36.2658V27.6484Z" fill="#2CAD97"/>
<path d="M41.2229 27.6484H37.8613V52.7145H41.2229V27.6484Z" fill="#2CAD97"/>
<path d="M46.1916 27.6484H42.8301V52.7145H46.1916V27.6484Z" fill="#2CAD97"/>
<path d="M51.8774 27.6484H47.7891V52.7145H51.8774V27.6484Z" fill="#2CAD97"/>
<path d="M31.3064 27.6484H27.2051V52.7145H31.3064V27.6484Z" fill="#2CAD97"/>
<path d="M19.689 12.8869C17.9498 16.4978 16.1587 20.2275 12.3559 20.2275C8.55304 20.2275 6.74901 16.4978 5.00984 12.8869C3.59514 9.948 2.25833 7.15408 0 6.57422V25.0245H24.6599V6.57422C22.4146 7.16726 21.0647 9.96118 19.663 12.8869" fill="#B16531"/>
<path d="M6.48963 12.1772C8.07305 15.4851 9.57859 18.6084 12.395 18.6084C15.2115 18.6084 16.7039 15.4851 18.2873 12.1772C19.8708 8.8693 21.5191 5.46918 24.7768 4.92885V0H0.116943V4.91569C3.32273 5.45602 4.97105 8.8693 6.60639 12.1772" fill="#B16531"/>
<path d="M0.0565944 70.7536C0.0793317 69.1491 0.584329 67.587 1.50816 66.264C2.43198 64.9411 3.73323 63.9164 5.24823 63.319C6.76314 62.7216 8.42403 62.5781 10.0217 62.9066C11.6194 63.2352 13.0824 64.0212 14.2268 65.1654C15.3711 66.3097 16.1455 67.7613 16.4525 69.3374C16.7595 70.9134 16.5853 72.5435 15.9519 74.0224C15.3185 75.5013 14.2542 76.763 12.8929 77.6486C11.5318 78.5341 9.93451 79.004 8.3022 78.999C7.20603 79.0039 6.11995 78.793 5.108 78.3785C4.09606 77.9642 3.17878 77.3547 2.41022 76.5863C1.64166 75.8177 1.03748 74.9057 0.633255 73.904C0.229025 72.9023 0.0329723 71.8311 0.0565944 70.7536ZM14.6987 70.7536C14.7319 69.9051 14.5914 69.0586 14.2856 68.2644C13.9796 67.4703 13.5146 66.7447 12.9181 66.1305C12.3214 65.5165 11.6055 65.0264 10.8125 64.6896C10.0196 64.3527 9.16596 64.1758 8.3022 64.1695C4.59522 64.1695 1.95884 67.0832 1.95884 70.7536C1.92557 71.6014 2.0658 72.4472 2.3712 73.2407C2.67652 74.0343 3.14082 74.7596 3.73642 75.3735C4.3321 75.9875 5.04704 76.4777 5.83887 76.8151C6.63078 77.1525 7.48348 77.3303 8.34644 77.3377C12.0623 77.3377 14.6987 74.424 14.6987 70.7536Z" fill="#E2DAD2"/>
<path d="M18.9648 62.7344H29.6826V64.2908H20.6602V68.9271H25.0777C28.2563 68.9271 30.783 70.2858 30.783 73.3246C30.783 76.3633 28.5986 77.8373 25.2733 77.8373H18.9975L18.9648 62.7344ZM25.1103 76.2809C27.5555 76.2809 29.0633 75.4162 29.0633 73.2422C29.0633 71.3399 27.4983 70.4341 25.0288 70.4341H20.6602V76.2809H25.1103Z" fill="#E2DAD2"/>
<path d="M41.115 77.3394C36.0303 77.3394 33.1445 74.7337 33.1445 70.7754C33.1445 66.8171 36.0475 64.2364 41.115 64.2364V62.7344H42.9101V64.2364C47.9688 64.2364 50.8718 66.8171 50.8718 70.7754C50.8718 74.7337 47.9946 77.3394 42.9101 77.3394V78.9991H41.1322L41.115 77.3394ZM41.115 65.7965C37.2242 65.7965 34.9911 67.5806 34.9911 70.7754C34.9911 73.9703 37.2242 75.7544 41.115 75.7544V65.7965ZM49.0081 70.7754C49.0081 67.5557 46.7836 65.7965 42.8929 65.7965V75.7544C46.7836 75.7544 49.0081 74.0118 49.0081 70.7754Z" fill="#E2DAD2"/>
</g>
<defs>
<clipPath id="clip0_446_2765">
<rect width="52" height="79" fill="white"/>
</clipPath>
</defs>
</svg>
