<svg width="24" height="24" viewBox="0 0 24 24" fill="none" xmlns="http://www.w3.org/2000/svg">
<path d="M9.29077 3.33569C10.7611 3.04322 12.2856 3.19362 13.6707 3.76733C15.0557 4.34104 16.2401 5.31188 17.073 6.55835C17.9059 7.80487 18.3503 9.27108 18.3503 10.7703C18.3503 11.7655 18.1541 12.7511 17.7732 13.6707C17.3923 14.5903 16.8335 15.4258 16.1296 16.1296C15.4258 16.8335 14.5903 17.3923 13.6707 17.7732C12.7511 18.1541 11.7655 18.3503 10.7703 18.3503C9.27108 18.3503 7.80487 17.9059 6.55835 17.073C5.31188 16.2401 4.34104 15.0557 3.76733 13.6707C3.19362 12.2856 3.04322 10.7611 3.33569 9.29077C3.62822 7.82056 4.34993 6.46989 5.40991 5.40991C6.46989 4.34993 7.82056 3.62822 9.29077 3.33569ZM10.7703 4.79956C9.59358 4.79956 8.44301 5.14882 7.4646 5.80249C6.48613 6.45628 5.72353 7.38617 5.27319 8.47339C4.82292 9.56055 4.70476 10.7568 4.93433 11.9109C5.16392 13.065 5.73016 14.1257 6.56226 14.9578C7.39436 15.7899 8.45498 16.3561 9.60913 16.5857C10.7633 16.8153 11.9595 16.6971 13.0466 16.2468C14.1339 15.7965 15.0637 15.0339 15.7175 14.0554C16.3712 13.077 16.7205 11.9264 16.7205 10.7498C16.7204 9.17181 16.0931 7.65851 14.9773 6.54272C13.8615 5.42695 12.3482 4.79963 10.7703 4.79956Z" fill="#E2DAD2" stroke="#E2DAD2" stroke-width="0.1"/>
<path d="M15.875 15.0889C16.0303 15.0863 16.1816 15.1291 16.3115 15.21L16.4336 15.3038L16.4355 15.3047L20.5654 19.4346C20.7152 19.5846 20.7988 19.7881 20.7988 20.0001C20.7988 20.1857 20.7348 20.3646 20.6182 20.5069L20.5654 20.5655C20.4917 20.6401 20.4036 20.699 20.3066 20.7393C20.2337 20.7696 20.1565 20.7895 20.0781 20.7969L20 20.7999C19.8949 20.8003 19.7905 20.7796 19.6934 20.7393C19.6205 20.7091 19.5527 20.6684 19.4922 20.6182L19.4346 20.5655L15.3047 16.4356L15.3037 16.4337C15.1978 16.32 15.1273 16.1792 15.1006 16.0284L15.0889 15.8751C15.0925 15.6678 15.1767 15.4699 15.3232 15.3233C15.4698 15.1767 15.6677 15.0926 15.875 15.0889Z" fill="#E2DAD2" stroke="#E2DAD2" stroke-width="0.1"/>
</svg>
