<svg width="24" height="24" viewBox="0 0 24 24" fill="none" xmlns="http://www.w3.org/2000/svg">
<path d="M9.29102 3.33569C10.7614 3.04322 12.2858 3.19362 13.6709 3.76733C15.0559 4.34104 16.2404 5.31188 17.0732 6.55835C17.9061 7.80487 18.3506 9.27108 18.3506 10.7703C18.3506 11.7655 18.1543 12.7511 17.7734 13.6707C17.3925 14.5903 16.8338 15.4258 16.1299 16.1296C15.426 16.8335 14.5905 17.3923 13.6709 17.7732C12.7514 18.1541 11.7658 18.3503 10.7705 18.3503C9.27133 18.3503 7.80512 17.9059 6.55859 17.073C5.31212 16.2401 4.34128 15.0557 3.76758 13.6707C3.19387 12.2856 3.04346 10.7611 3.33594 9.29077C3.62847 7.82056 4.35018 6.46989 5.41016 5.40991C6.47013 4.34993 7.82081 3.62822 9.29102 3.33569ZM10.7705 4.79956C9.59383 4.79956 8.44325 5.14882 7.46484 5.80249C6.48637 6.45628 5.72378 7.38617 5.27344 8.47339C4.82317 9.56055 4.705 10.7568 4.93457 11.9109C5.16417 13.065 5.7304 14.1257 6.5625 14.9578C7.3946 15.7899 8.45522 16.3561 9.60938 16.5857C10.7635 16.8153 11.9597 16.6971 13.0469 16.2468C14.1341 15.7965 15.064 15.0339 15.7178 14.0554C16.3714 13.077 16.7207 11.9264 16.7207 10.7498C16.7206 9.17181 16.0933 7.65851 14.9775 6.54272C13.8618 5.42695 12.3484 4.79963 10.7705 4.79956Z" fill="#5E524E" stroke="#5E524E" stroke-width="0.1"/>
<path d="M15.875 15.0889C16.0303 15.0862 16.1816 15.129 16.3115 15.21L16.4336 15.3037L16.4355 15.3047L20.5654 19.4346C20.7152 19.5846 20.7988 19.788 20.7988 20C20.7988 20.1856 20.7348 20.3645 20.6182 20.5068L20.5654 20.5654C20.4917 20.6401 20.4036 20.699 20.3066 20.7393C20.2337 20.7695 20.1565 20.7894 20.0781 20.7969L20 20.7998C19.8949 20.8003 19.7905 20.7796 19.6934 20.7393C19.6205 20.709 19.5527 20.6683 19.4922 20.6182L19.4346 20.5654L15.3047 16.4355L15.3037 16.4336C15.1978 16.3199 15.1273 16.1792 15.1006 16.0283L15.0889 15.875C15.0925 15.6677 15.1767 15.4698 15.3232 15.3232C15.4698 15.1767 15.6677 15.0925 15.875 15.0889Z" fill="#5E524E" stroke="#5E524E" stroke-width="0.1"/>
</svg>
