<svg width="41" height="30" viewBox="0 0 41 30" fill="none" xmlns="http://www.w3.org/2000/svg">
<g filter="url(#filter0_ii_2369_185)">
<path d="M31.0006 18C31.4466 18 31.8746 17.932 32.3006 17.87C32.1626 18.334 32.0206 18.806 31.7926 19.23C31.5646 19.846 31.2086 20.38 30.8546 20.918C30.5586 21.5 30.0366 21.894 29.6526 22.392C29.2506 22.876 28.7026 23.198 28.2686 23.6C27.8426 24.02 27.2846 24.23 26.8406 24.526C26.3766 24.792 25.9726 25.086 25.5406 25.226L24.4626 25.67L23.5146 26.064L24.4846 29.94L25.6786 29.652C26.0606 29.556 26.5266 29.444 27.0566 29.31C27.5986 29.21 28.1766 28.936 28.8206 28.686C29.4566 28.402 30.1926 28.21 30.8766 27.754C31.5646 27.318 32.3586 26.954 33.0586 26.37C33.7366 25.768 34.5546 25.246 35.1586 24.48C35.8186 23.764 36.4706 23.012 36.9766 22.156C37.5626 21.34 37.9606 20.444 38.3806 19.558C38.7606 18.672 39.0666 17.766 39.3166 16.886C39.7906 15.122 40.0026 13.446 40.0846 12.012C40.1526 10.576 40.1126 9.382 40.0286 8.518C39.9986 8.11 39.9426 7.714 39.9026 7.44L39.8526 7.10401L39.8006 7.116C39.4449 5.45434 38.626 3.92735 37.4387 2.71164C36.2514 1.49594 34.7441 0.641222 33.0913 0.246354C31.4386 -0.148513 29.7077 -0.0673914 28.0991 0.480336C26.4905 1.02806 25.0698 2.02001 24.0014 3.34144C22.933 4.66286 22.2605 6.25976 22.0618 7.94741C21.863 9.63506 22.1462 11.3445 22.8784 12.878C23.6106 14.4114 24.7619 15.7063 26.1993 16.6127C27.6367 17.5191 29.3013 18.0001 31.0006 18ZM9.00062 18C9.44662 18 9.87462 17.932 10.3006 17.87C10.1626 18.334 10.0206 18.806 9.79262 19.23C9.56462 19.846 9.20862 20.38 8.85462 20.918C8.55862 21.5 8.03662 21.894 7.65262 22.392C7.25062 22.876 6.70262 23.198 6.26862 23.6C5.84263 24.02 5.28462 24.23 4.84062 24.526C4.37662 24.792 3.97262 25.086 3.54062 25.226L2.46262 25.67L1.51462 26.064L2.48462 29.94L3.67862 29.652C4.06062 29.556 4.52662 29.444 5.05662 29.31C5.59862 29.21 6.17662 28.936 6.82062 28.686C7.45462 28.4 8.19262 28.21 8.87662 27.752C9.56462 27.316 10.3586 26.952 11.0586 26.368C11.7366 25.766 12.5546 25.244 13.1586 24.48C13.8186 23.764 14.4706 23.012 14.9766 22.156C15.5626 21.34 15.9606 20.444 16.3806 19.558C16.7606 18.672 17.0666 17.766 17.3166 16.886C17.7906 15.122 18.0026 13.446 18.0846 12.012C18.1526 10.576 18.1126 9.382 18.0286 8.518C17.9986 8.11 17.9426 7.714 17.9026 7.44L17.8526 7.104L17.8006 7.116C17.4449 5.45434 16.626 3.92734 15.4387 2.71164C14.2514 1.49594 12.7441 0.64122 11.0913 0.246353C9.43855 -0.148515 7.70773 -0.0673933 6.09912 0.480334C4.4905 1.02806 3.06982 2.02001 2.00141 3.34144C0.933001 4.66286 0.260531 6.25976 0.0617886 7.94741C-0.136953 9.63506 0.14615 11.3445 0.878358 12.878C1.61056 14.4114 2.76195 15.7063 4.19932 16.6127C5.63669 17.5191 7.30131 18.0001 9.00062 18Z" fill="#2D2421"/>
</g>
<defs>
<filter id="filter0_ii_2369_185" x="-1" y="-1" width="42.1191" height="32.94" filterUnits="userSpaceOnUse" color-interpolation-filters="sRGB">
<feFlood flood-opacity="0" result="BackgroundImageFix"/>
<feBlend mode="normal" in="SourceGraphic" in2="BackgroundImageFix" result="shape"/>
<feColorMatrix in="SourceAlpha" type="matrix" values="0 0 0 0 0 0 0 0 0 0 0 0 0 0 0 0 0 0 127 0" result="hardAlpha"/>
<feOffset dx="1" dy="2"/>
<feGaussianBlur stdDeviation="1"/>
<feComposite in2="hardAlpha" operator="arithmetic" k2="-1" k3="1"/>
<feColorMatrix type="matrix" values="0 0 0 0 0.0705299 0 0 0 0 0.0536747 0 0 0 0 0.0473539 0 0 0 1 0"/>
<feBlend mode="normal" in2="shape" result="effect1_innerShadow_2369_185"/>
<feColorMatrix in="SourceAlpha" type="matrix" values="0 0 0 0 0 0 0 0 0 0 0 0 0 0 0 0 0 0 127 0" result="hardAlpha"/>
<feOffset dx="-1" dy="-1"/>
<feGaussianBlur stdDeviation="1"/>
<feComposite in2="hardAlpha" operator="arithmetic" k2="-1" k3="1"/>
<feColorMatrix type="matrix" values="0 0 0 0 1 0 0 0 0 1 0 0 0 0 1 0 0 0 0.12 0"/>
<feBlend mode="normal" in2="effect1_innerShadow_2369_185" result="effect2_innerShadow_2369_185"/>
</filter>
</defs>
</svg>
