<svg width="21" height="15" viewBox="0 0 21 15" fill="none" xmlns="http://www.w3.org/2000/svg">
<g filter="url(#filter0_ii_2611_885)">
<path d="M15.4994 9.00003C15.7224 9.00003 15.9364 8.96603 16.1494 8.93503C16.0804 9.16703 16.0094 9.40303 15.8954 9.61503C15.7814 9.92303 15.6034 10.19 15.4264 10.459C15.2784 10.75 15.0174 10.947 14.8254 11.196C14.6244 11.438 14.3504 11.599 14.1334 11.8C13.9204 12.01 13.6414 12.115 13.4194 12.263C13.1874 12.396 12.9854 12.543 12.7694 12.613L12.2304 12.835L11.7564 13.032L12.2414 14.97L12.8384 14.826C13.0294 14.778 13.2624 14.722 13.5274 14.655C13.7984 14.605 14.0874 14.468 14.4094 14.343C14.7274 14.201 15.0954 14.105 15.4374 13.877C15.7814 13.659 16.1784 13.477 16.5284 13.185C16.8674 12.884 17.2764 12.623 17.5784 12.24C17.9084 11.882 18.2344 11.506 18.4874 11.078C18.7804 10.67 18.9794 10.222 19.1894 9.77903C19.3794 9.33603 19.5324 8.88303 19.6574 8.44303C19.8944 7.56103 20.0004 6.72303 20.0414 6.00603C20.0754 5.28803 20.0554 4.69103 20.0134 4.25903C19.9984 4.05503 19.9704 3.85703 19.9504 3.72003L19.9254 3.55203L19.8994 3.55803C19.7215 2.7272 19.3121 1.9637 18.7184 1.35585C18.1247 0.748002 17.3711 0.32064 16.5447 0.123207C15.7183 -0.0742268 14.8529 -0.0336661 14.0486 0.240198C13.2443 0.514061 12.534 1.01004 11.9998 1.67075C11.4656 2.33146 11.1293 3.12991 11.0299 3.97374C10.9306 4.81756 11.0721 5.67227 11.4382 6.43901C11.8043 7.20574 12.38 7.85317 13.0987 8.30638C13.8174 8.7596 14.6497 9.00009 15.4994 9.00003ZM4.49937 9.00003C4.72237 9.00003 4.93636 8.96603 5.14936 8.93503C5.08036 9.16703 5.00937 9.40303 4.89537 9.61503C4.78136 9.92303 4.60337 10.19 4.42637 10.459C4.27837 10.75 4.01736 10.947 3.82537 11.196C3.62437 11.438 3.35036 11.599 3.13337 11.8C2.92037 12.01 2.64137 12.115 2.41937 12.263C2.18736 12.396 1.98537 12.543 1.76937 12.613L1.23037 12.835L0.756365 13.032L1.24137 14.97L1.83837 14.826C2.02937 14.778 2.26237 14.722 2.52736 14.655C2.79836 14.605 3.08736 14.468 3.40936 14.343C3.72636 14.2 4.09536 14.105 4.43736 13.876C4.78136 13.658 5.17836 13.476 5.52836 13.184C5.86736 12.883 6.27637 12.622 6.57837 12.24C6.90837 11.882 7.23437 11.506 7.48737 11.078C7.78037 10.67 7.97937 10.222 8.18937 9.77903C8.37937 9.33603 8.53237 8.88303 8.65737 8.44303C8.89437 7.56103 9.00037 6.72303 9.04137 6.00603C9.07537 5.28803 9.05537 4.69103 9.01337 4.25903C8.99837 4.05503 8.97037 3.85703 8.95037 3.72003L8.92537 3.55203L8.89937 3.55803C8.72151 2.7272 8.31206 1.9637 7.7184 1.35585C7.12474 0.748001 6.37112 0.320639 5.54473 0.123206C4.71833 -0.0742277 3.85292 -0.0336671 3.04861 0.240197C2.2443 0.51406 1.53396 1.01004 0.999759 1.67075C0.465554 2.33146 0.129319 3.12991 0.0299482 3.97373C-0.0694228 4.81756 0.0721291 5.67227 0.438233 6.43901C0.804335 7.20574 1.38003 7.85317 2.09871 8.30638C2.8174 8.7596 3.64971 9.00009 4.49937 9.00003Z" fill="#CFC3B7"/>
</g>
<defs>
<filter id="filter0_ii_2611_885" x="-1" y="-1" width="22.0586" height="17.97" filterUnits="userSpaceOnUse" color-interpolation-filters="sRGB">
<feFlood flood-opacity="0" result="BackgroundImageFix"/>
<feBlend mode="normal" in="SourceGraphic" in2="BackgroundImageFix" result="shape"/>
<feColorMatrix in="SourceAlpha" type="matrix" values="0 0 0 0 0 0 0 0 0 0 0 0 0 0 0 0 0 0 127 0" result="hardAlpha"/>
<feOffset dx="1" dy="2"/>
<feGaussianBlur stdDeviation="1"/>
<feComposite in2="hardAlpha" operator="arithmetic" k2="-1" k3="1"/>
<feColorMatrix type="matrix" values="0 0 0 0 0.231373 0 0 0 0 0.196078 0 0 0 0 0.184314 0 0 0 0.4 0"/>
<feBlend mode="normal" in2="shape" result="effect1_innerShadow_2611_885"/>
<feColorMatrix in="SourceAlpha" type="matrix" values="0 0 0 0 0 0 0 0 0 0 0 0 0 0 0 0 0 0 127 0" result="hardAlpha"/>
<feOffset dx="-1" dy="-1"/>
<feGaussianBlur stdDeviation="1"/>
<feComposite in2="hardAlpha" operator="arithmetic" k2="-1" k3="1"/>
<feColorMatrix type="matrix" values="0 0 0 0 1 0 0 0 0 1 0 0 0 0 1 0 0 0 0.12 0"/>
<feBlend mode="normal" in2="effect1_innerShadow_2611_885" result="effect2_innerShadow_2611_885"/>
</filter>
</defs>
</svg>
