<svg width="41" height="30" viewBox="0 0 41 30" fill="none" xmlns="http://www.w3.org/2000/svg">
<g filter="url(#filter0_ii_2369_279)">
<path d="M9.11846 11.94C8.67246 11.94 8.24446 12.008 7.81846 12.07C7.95646 11.606 8.09846 11.134 8.32646 10.71C8.55446 10.094 8.91046 9.56 9.26446 9.022C9.56046 8.44 10.0825 8.046 10.4665 7.548C10.8685 7.064 11.4165 6.742 11.8505 6.34C12.2765 5.92 12.8345 5.71 13.2785 5.414C13.7425 5.148 14.1465 4.854 14.5785 4.714L15.6565 4.27L16.6045 3.876L15.6345 0L14.4405 0.287999C14.0585 0.383999 13.5925 0.495999 13.0625 0.629999C12.5205 0.729999 11.9425 1.004 11.2985 1.254C10.6625 1.538 9.92646 1.73 9.24246 2.186C8.55446 2.622 7.76046 2.986 7.06046 3.57C6.38246 4.172 5.56446 4.694 4.96045 5.46C4.30046 6.176 3.64846 6.928 3.14246 7.784C2.55646 8.6 2.15845 9.496 1.73845 10.382C1.35845 11.268 1.05245 12.174 0.802455 13.054C0.328455 14.818 0.116455 16.494 0.0344545 17.928C-0.0335455 19.364 0.00645451 20.558 0.0904545 21.422C0.120455 21.83 0.176455 22.226 0.216455 22.5L0.266454 22.836L0.318454 22.824C0.674177 24.4857 1.49306 26.0127 2.68038 27.2284C3.8677 28.4441 5.37494 29.2988 7.02773 29.6936C8.68053 30.0885 10.4113 30.0074 12.02 29.4597C13.6286 28.9119 15.0493 27.92 16.1177 26.5986C17.1861 25.2771 17.8585 23.6802 18.0573 21.9926C18.256 20.3049 17.9729 18.5955 17.2407 17.062C16.5085 15.5286 15.3571 14.2337 13.9198 13.3273C12.4824 12.4209 10.8178 11.9399 9.11846 11.94ZM31.1185 11.94C30.6725 11.94 30.2445 12.008 29.8185 12.07C29.9565 11.606 30.0985 11.134 30.3265 10.71C30.5545 10.094 30.9105 9.56 31.2645 9.022C31.5605 8.44 32.0825 8.046 32.4665 7.548C32.8685 7.064 33.4165 6.742 33.8505 6.34C34.2765 5.92 34.8345 5.71 35.2785 5.414C35.7425 5.148 36.1465 4.854 36.5785 4.714L37.6565 4.27L38.6045 3.876L37.6345 0L36.4405 0.287999C36.0585 0.383999 35.5925 0.495999 35.0625 0.629999C34.5205 0.729999 33.9425 1.004 33.2985 1.254C32.6645 1.54 31.9265 1.73 31.2425 2.188C30.5545 2.624 29.7605 2.988 29.0605 3.572C28.3825 4.174 27.5645 4.696 26.9605 5.46C26.3005 6.176 25.6485 6.928 25.1425 7.784C24.5565 8.6 24.1585 9.496 23.7385 10.382C23.3585 11.268 23.0525 12.174 22.8025 13.054C22.3285 14.818 22.1165 16.494 22.0345 17.928C21.9665 19.364 22.0065 20.558 22.0905 21.422C22.1205 21.83 22.1765 22.226 22.2165 22.5L22.2665 22.836L22.3185 22.824C22.6742 24.4857 23.4931 26.0127 24.6804 27.2284C25.8677 28.4441 27.3749 29.2988 29.0277 29.6936C30.6805 30.0885 32.4114 30.0074 34.02 29.4597C35.6286 28.9119 37.0493 27.92 38.1177 26.5986C39.1861 25.2771 39.8586 23.6802 40.0573 21.9926C40.256 20.3049 39.9729 18.5955 39.2407 17.062C38.5085 15.5286 37.3571 14.2337 35.9198 13.3273C34.4824 12.4209 32.8178 11.9399 31.1185 11.94Z" fill="#2D2421"/>
</g>
<defs>
<filter id="filter0_ii_2369_279" x="-1" y="-1" width="42.1191" height="32.94" filterUnits="userSpaceOnUse" color-interpolation-filters="sRGB">
<feFlood flood-opacity="0" result="BackgroundImageFix"/>
<feBlend mode="normal" in="SourceGraphic" in2="BackgroundImageFix" result="shape"/>
<feColorMatrix in="SourceAlpha" type="matrix" values="0 0 0 0 0 0 0 0 0 0 0 0 0 0 0 0 0 0 127 0" result="hardAlpha"/>
<feOffset dx="1" dy="2"/>
<feGaussianBlur stdDeviation="1"/>
<feComposite in2="hardAlpha" operator="arithmetic" k2="-1" k3="1"/>
<feColorMatrix type="matrix" values="0 0 0 0 0.0705299 0 0 0 0 0.0536747 0 0 0 0 0.0473539 0 0 0 1 0"/>
<feBlend mode="normal" in2="shape" result="effect1_innerShadow_2369_279"/>
<feColorMatrix in="SourceAlpha" type="matrix" values="0 0 0 0 0 0 0 0 0 0 0 0 0 0 0 0 0 0 127 0" result="hardAlpha"/>
<feOffset dx="-1" dy="-1"/>
<feGaussianBlur stdDeviation="1"/>
<feComposite in2="hardAlpha" operator="arithmetic" k2="-1" k3="1"/>
<feColorMatrix type="matrix" values="0 0 0 0 1 0 0 0 0 1 0 0 0 0 1 0 0 0 0.12 0"/>
<feBlend mode="normal" in2="effect1_innerShadow_2369_279" result="effect2_innerShadow_2369_279"/>
</filter>
</defs>
</svg>
