<svg width="158" height="158" viewBox="0 0 158 158" fill="none" xmlns="http://www.w3.org/2000/svg">
<path d="M53.0596 108.584L46.3328 100.6L45.0042 102.544L43.4865 101.469L45.3786 98.4622L46.5624 97.4648L54.739 107.169L53.0596 108.584ZM59.9092 103.096C58.7804 104.047 57.4279 104.527 55.8515 104.537L55.6836 102.466C56.9097 102.469 57.899 102.153 58.6515 101.519C59.349 100.932 59.6722 100.188 59.6213 99.2899C59.5626 98.3822 59.1643 97.4625 58.4263 96.5308C58.4295 97.6892 57.9631 98.6628 57.027 99.4515C55.9992 100.317 54.9375 100.733 53.8418 100.699C52.7461 100.665 51.8039 100.18 51.0153 99.2443C50.2111 98.2899 49.8773 97.2139 50.0137 96.0162C50.1501 94.8186 50.746 93.7752 51.8014 92.886C52.9026 91.9582 54.0788 91.5477 55.3301 91.6546C56.7674 91.7775 58.1973 92.6832 59.62 94.3717C60.9422 95.941 61.6375 97.5205 61.706 99.1104C61.7837 100.693 61.1848 102.021 59.9092 103.096ZM54.2427 98.5493C54.8712 98.5689 55.4837 98.3274 56.0802 97.8249C56.6767 97.3223 57.0063 96.7543 57.069 96.1209C57.1408 95.4799 56.9679 94.9115 56.5504 94.416C56.1174 93.9021 55.5782 93.6346 54.9328 93.6135C54.2796 93.5832 53.6502 93.8232 53.0445 94.3335C52.4572 94.8284 52.1361 95.3971 52.0811 96.0396C52.0277 96.6652 52.2213 97.2396 52.662 97.7627C53.0873 98.2674 53.6142 98.5296 54.2427 98.5493ZM65.5323 98.0756L62.9886 86.2847L58.1432 90.3672L56.8906 88.8805L63.6632 83.1744L64.7418 84.4545L67.4319 96.4751L65.5323 98.0756ZM72.5213 92.1871L71.3963 90.8518L72.3362 85.2348C72.5359 84.0936 72.6096 83.2313 72.5573 82.6477C72.5064 82.0472 72.3032 81.5359 71.9475 81.1138C71.5609 80.6549 71.1087 80.4162 70.5908 80.3974C70.0651 80.3696 69.5775 80.545 69.1278 80.9239C68.7057 81.2796 68.4215 81.7152 68.2752 82.2307C68.1382 82.7385 68.085 83.4109 68.1156 84.2482L66.1294 84.3211C66.0373 83.2061 66.1175 82.2677 66.3699 81.5058C66.6239 80.727 67.1592 79.9935 67.9759 79.3053C68.9212 78.5089 69.9117 78.1295 70.9475 78.1669C71.9832 78.2043 72.8684 78.6589 73.6029 79.5307C73.9199 79.907 74.1601 80.2852 74.3235 80.6653C74.4792 81.0363 74.5691 81.4783 74.5934 81.9914C74.6192 82.4875 74.6026 82.9801 74.5438 83.469C74.4864 83.941 74.3854 84.5753 74.2407 85.372L73.6502 88.6939L78.2341 84.8318L79.4867 86.3185L72.5213 92.1871ZM77.7821 81.9409L76.402 80.3029L80.4766 76.8699L81.8567 78.508L77.7821 81.9409ZM85.7566 81.0358L84.6316 79.7006L85.5715 74.0835C85.7712 72.9424 85.8449 72.0801 85.7926 71.4965C85.7417 70.896 85.5384 70.3847 85.1828 69.9625C84.7962 69.5037 84.3439 69.2649 83.826 69.2462C83.3004 69.2183 82.8128 69.3938 82.3631 69.7727C81.941 70.1284 81.6568 70.5639 81.5105 71.0794C81.3734 71.5872 81.3202 72.2597 81.3509 73.0969L79.3646 73.1699C79.2725 72.0549 79.3527 71.1165 79.6052 70.3546C79.8591 69.5757 80.3945 68.8422 81.2112 68.1541C82.1564 67.3577 83.1469 66.9782 84.1827 67.0156C85.2185 67.0531 86.1037 67.5077 86.8382 68.3795C87.1552 68.7557 87.3954 69.134 87.5588 69.5141C87.7144 69.8851 87.8044 70.3271 87.8287 70.8402C87.8544 71.3363 87.8379 71.8288 87.7791 72.3177C87.7217 72.7897 87.6207 73.4241 87.4759 74.2207L86.8854 77.5427L91.4693 73.6806L92.7219 75.1673L85.7566 81.0358ZM98.2197 70.8176C96.9717 71.8691 95.564 72.247 93.9967 71.9513C92.4218 71.6464 91.035 70.7827 89.8366 69.3603C88.6536 67.9562 88.0501 66.4483 88.026 64.8367C88.0033 63.2082 88.6115 61.872 89.8504 60.8282C91.0892 59.7844 92.4962 59.4149 94.0712 59.7199C95.6553 60.0171 97.0428 60.8723 98.2335 62.2855C99.4165 63.6896 100.019 65.2059 100.042 66.8344C100.066 68.4461 99.4586 69.7738 98.2197 70.8176ZM94.3353 69.783C95.3509 70.0572 96.2257 69.885 96.9599 69.2664C97.694 68.6479 98.0069 67.8272 97.8984 66.8045C97.7914 65.7649 97.3203 64.7496 96.4853 63.7585C95.6657 62.7857 94.7481 62.1623 93.7326 61.8881C92.7093 61.6048 91.8352 61.7685 91.1102 62.3794C90.376 62.9979 90.0625 63.827 90.1695 64.8666C90.278 65.8893 90.7497 66.8962 91.5848 67.8873C92.4044 68.8601 93.3212 69.492 94.3353 69.783ZM103.199 66.3395L102.074 65.0043L103.014 59.3872C103.214 58.2461 103.288 57.3837 103.235 56.8002C103.185 56.1997 102.981 55.6884 102.626 55.2662C102.239 54.8074 101.787 54.5686 101.269 54.5499C100.743 54.522 100.256 54.6975 99.806 55.0764C99.3838 55.432 99.0996 55.8676 98.9534 56.3831C98.8163 56.8909 98.7631 57.5634 98.7938 58.4006L96.8075 58.4736C96.7154 57.3586 96.7956 56.4202 97.0481 55.6582C97.302 54.8794 97.8373 54.1459 98.6541 53.4578C99.5993 52.6614 100.59 52.2819 101.626 52.3193C102.661 52.3567 103.547 52.8114 104.281 53.6832C104.598 54.0594 104.838 54.4376 105.002 54.8178C105.157 55.1888 105.247 55.6308 105.272 56.1438C105.297 56.64 105.281 57.1325 105.222 57.6214C105.165 58.0934 105.064 58.7278 104.919 59.5244L104.328 62.8464L108.912 58.9843L110.165 60.471L103.199 66.3395ZM113.004 58.0785L106.278 50.0946L104.949 52.0377L103.431 50.9627L105.323 47.9564L106.507 46.9589L114.684 56.6636L113.004 58.0785Z" fill="#5E524E"/>
<g filter="url(#filter0_g_2281_2627)">
<circle cx="79" cy="79" r="70.5" stroke="#5E524E"/>
</g>
<g filter="url(#filter1_g_2281_2627)">
<circle cx="79" cy="79" r="77" stroke="#5E524E" stroke-width="2"/>
</g>
<path d="M35.1378 55.5397L27.3759 50.7897L30.572 45.567L31.8028 46.3203L29.4346 50.1901L35.9657 54.187L35.1378 55.5397ZM43.6285 42.513C43.7066 43.7976 43.2839 44.9514 42.3606 45.9743C41.4373 46.9972 40.3388 47.5351 39.0652 47.5881C37.7915 47.641 36.6658 47.2261 35.6879 46.3434C34.7229 45.4724 34.2013 44.3945 34.1233 43.1099C34.0453 41.8253 34.4679 40.6715 35.3913 39.6486C36.3146 38.6257 37.413 38.0877 38.6867 38.0348C39.9603 37.9819 41.0861 38.3968 42.064 39.2795C43.029 40.1505 43.5505 41.2283 43.6285 42.513ZM39.1032 45.9937C39.9613 45.9744 40.6894 45.6334 41.2875 44.9707C41.8857 44.3081 42.1448 43.5554 42.0648 42.7127C41.9907 41.8635 41.6158 41.1341 40.9403 40.5243C40.2712 39.9204 39.5076 39.6281 38.6496 39.6475C37.7908 39.6546 37.0624 39.9895 36.4643 40.6522C35.8662 41.3148 35.6042 42.0707 35.6783 42.9199C35.7583 43.7626 36.136 44.4888 36.8115 45.0985C37.4806 45.7025 38.2445 46.0009 39.1032 45.9937ZM47.1897 43.2794L45.1995 40.5475L45.914 40.027C45.6392 38.3399 44.6981 36.3932 43.0905 34.1866L42.3327 33.1464L47.4602 29.4108L51.9766 35.6101L52.8908 34.9441L54.7024 37.8061L53.6307 38.5869L52.4824 37.0108L47.3024 40.7847L48.3245 42.4527L47.1897 43.2794ZM47.2904 39.0242L50.6842 36.5516L47.0175 31.5187L44.4222 33.4094L45.0346 34.25C46.2849 35.9662 47.0369 37.5576 47.2904 39.0242ZM54.9985 35.4906L51.3555 27.1516L52.8088 26.5167L54.1203 29.5187L56.0383 28.6808C56.9913 28.2644 57.8504 28.1634 58.6155 28.3777C59.385 28.5806 59.9502 29.095 60.3111 29.921C60.6788 30.7628 60.6884 31.5531 60.3396 32.2918C59.9874 33.0226 59.3268 33.5997 58.3579 34.0229L54.9985 35.4906ZM55.8794 33.5452L57.7616 32.7229C58.3096 32.4835 58.6784 32.1805 58.8682 31.8139C59.0624 31.4359 59.0572 31.0126 58.8525 30.544C58.6652 30.1151 58.372 29.8554 57.9731 29.7649C57.5707 29.6664 57.0915 29.7386 56.5356 29.9815L54.6772 30.7934L55.8794 33.5452ZM62.4916 32.2171L58.8486 23.8781L60.302 23.2432L63.945 31.5821L62.4916 32.2171ZM128.411 91.7063L137.087 94.4497L136.005 97.8708C135.687 98.8789 135.169 99.5969 134.452 100.025C133.735 100.452 132.93 100.525 132.038 100.243C131.104 99.9477 130.481 99.3872 130.17 98.5616C129.855 97.7441 129.856 96.8355 130.173 95.8356L130.717 94.1127L127.928 93.2309L128.411 91.7063ZM132.093 94.5477L131.533 96.3202C131.353 96.8904 131.353 97.3906 131.536 97.8209C131.718 98.2511 132.044 98.5407 132.515 98.6897C133.011 98.8464 133.445 98.7972 133.816 98.542C134.193 98.2977 134.473 97.8863 134.656 97.3079L135.217 95.5354L132.093 94.5477ZM125.963 99.2022L132.122 107.083L131.417 108.386L121.451 107.551L122.254 106.064L124.626 106.297L126.672 102.511L125.184 100.643L125.963 99.2022ZM127.64 103.7L126.151 106.456L130.101 106.803L127.64 103.7ZM120.53 108.781L127.555 114.566L123.241 119.805L122.127 118.887L125.432 114.873L123.817 113.543L122.205 115.5C121.561 116.282 120.864 116.747 120.114 116.893C119.36 117.046 118.648 116.848 117.979 116.297C117.283 115.724 116.938 115.052 116.943 114.282C116.949 113.512 117.288 112.719 117.96 111.902L120.53 108.781ZM120.625 110.915L119.287 112.541C118.824 113.103 118.563 113.583 118.503 113.983C118.45 114.389 118.631 114.762 119.045 115.104C119.734 115.671 120.47 115.48 121.252 114.53L122.773 112.683L120.625 110.915ZM109.25 121.57C109.371 120.289 109.966 119.214 111.036 118.346C112.106 117.477 113.275 117.115 114.541 117.259C115.808 117.403 116.856 117.987 117.686 119.01C118.505 120.019 118.854 121.164 118.734 122.446C118.613 123.727 118.017 124.802 116.947 125.67C115.877 126.538 114.709 126.901 113.442 126.756C112.176 126.612 111.127 126.029 110.297 125.006C109.478 123.997 109.129 122.851 109.25 121.57ZM114.258 118.828C113.407 118.715 112.635 118.94 111.942 119.503C111.249 120.065 110.877 120.769 110.826 121.614C110.768 122.464 111.026 123.243 111.599 123.949C112.167 124.649 112.877 125.056 113.728 125.169C114.577 125.294 115.348 125.076 116.042 124.513C116.735 123.951 117.11 123.244 117.168 122.394C117.219 121.549 116.957 120.773 116.384 120.066C115.816 119.366 115.107 118.954 114.258 118.828ZM103.853 123.544L107.444 130.263L109.989 128.902L110.687 130.209L104.175 133.69L103.477 132.383L106.022 131.023L102.431 124.304L103.853 123.544ZM98.3086 126.236L100.867 134.969L99.3451 135.415L98.424 132.271L96.4155 132.86C95.4174 133.152 94.5525 133.144 93.8206 132.834C93.0829 132.536 92.5873 131.954 92.3339 131.089C92.0756 130.207 92.1662 129.422 92.6057 128.733C93.0475 128.053 93.7758 127.564 94.7905 127.267L98.3086 126.236ZM97.1886 128.055L95.2175 128.632C94.6436 128.8 94.2394 129.054 94.0047 129.394C93.7642 129.744 93.7158 130.165 93.8596 130.655C93.9912 131.105 94.2491 131.399 94.6334 131.54C95.0201 131.688 95.5046 131.677 96.0867 131.507L98.0329 130.936L97.1886 128.055ZM90.4615 128.535L93.02 137.268L91.4979 137.714L88.9394 128.981L90.4615 128.535Z" fill="#5E524E"/>
<defs>
<filter id="filter0_g_2281_2627" x="7" y="7" width="144" height="144" filterUnits="userSpaceOnUse" color-interpolation-filters="sRGB">
<feFlood flood-opacity="0" result="BackgroundImageFix"/>
<feBlend mode="normal" in="SourceGraphic" in2="BackgroundImageFix" result="shape"/>
<feTurbulence type="fractalNoise" baseFrequency="0.5 0.5" numOctaves="3" seed="9727" />
<feDisplacementMap in="shape" scale="2" xChannelSelector="R" yChannelSelector="G" result="displacedImage" width="100%" height="100%" />
<feMerge result="effect1_texture_2281_2627">
<feMergeNode in="displacedImage"/>
</feMerge>
</filter>
<filter id="filter1_g_2281_2627" x="0" y="0" width="158" height="158" filterUnits="userSpaceOnUse" color-interpolation-filters="sRGB">
<feFlood flood-opacity="0" result="BackgroundImageFix"/>
<feBlend mode="normal" in="SourceGraphic" in2="BackgroundImageFix" result="shape"/>
<feTurbulence type="fractalNoise" baseFrequency="0.5 0.5" numOctaves="3" seed="9727" />
<feDisplacementMap in="shape" scale="2" xChannelSelector="R" yChannelSelector="G" result="displacedImage" width="100%" height="100%" />
<feMerge result="effect1_texture_2281_2627">
<feMergeNode in="displacedImage"/>
</feMerge>
</filter>
</defs>
</svg>
