<svg width="122" height="122" viewBox="0 0 122 122" fill="none" xmlns="http://www.w3.org/2000/svg">
<path d="M40.3648 83.0852L39.503 82.0624L40.223 77.7595C40.376 76.8854 40.4324 76.2248 40.3923 75.7777C40.3534 75.3177 40.1976 74.9261 39.9252 74.6027C39.629 74.2512 39.2826 74.0683 38.8859 74.0539C38.4832 74.0326 38.1097 74.167 37.7652 74.4572C37.4418 74.7297 37.2241 75.0634 37.1121 75.4583C37.0071 75.8472 36.9663 76.3624 36.9898 77.0037L35.4683 77.0596C35.3977 76.2055 35.4592 75.4866 35.6526 74.903C35.8471 74.3064 36.2572 73.7445 36.8828 73.2173C37.6069 72.6073 38.3657 72.3166 39.1591 72.3452C39.9526 72.3739 40.6306 72.7222 41.1933 73.39C41.4362 73.6782 41.6202 73.9679 41.7453 74.2592C41.8645 74.5433 41.9335 74.8819 41.9521 75.275C41.9718 75.655 41.9591 76.0323 41.9141 76.4068C41.8701 76.7684 41.7927 77.2543 41.6818 77.8646L41.2295 80.4094L44.7409 77.4508L45.7005 78.5897L40.3648 83.0852ZM49.912 75.2577C48.9559 76.0632 47.8776 76.3527 46.677 76.1261C45.4705 75.8926 44.4082 75.2309 43.4902 74.1413C42.584 73.0657 42.1216 71.9107 42.1032 70.6761C42.0859 69.4286 42.5517 68.405 43.5007 67.6054C44.4498 66.8058 45.5275 66.5228 46.734 66.7564C47.9476 66.9841 49.0104 67.6392 49.9226 68.7218C50.8288 69.7974 51.2905 70.9589 51.3079 72.2064C51.3263 73.441 50.861 74.4581 49.912 75.2577ZM46.9364 74.4652C47.7144 74.6752 48.3845 74.5433 48.9469 74.0694C49.5093 73.5956 49.749 72.967 49.6659 72.1835C49.5839 71.3872 49.223 70.6093 48.5834 69.8501C47.9555 69.1049 47.2526 68.6274 46.4747 68.4174C45.6908 68.2003 45.0212 68.3258 44.4658 68.7937C43.9034 69.2675 43.6632 69.9026 43.7452 70.699C43.8283 71.4824 44.1897 72.2538 44.8294 73.013C45.4572 73.7582 46.1596 74.2422 46.9364 74.4652ZM55.1899 70.5944L50.0369 64.4784L49.0193 65.9669L47.8566 65.1434L49.306 62.8405L50.2129 62.0764L56.4764 69.5105L55.1899 70.5944ZM58.2952 67.9781L56.3467 58.9458L52.6349 62.0732L51.6754 60.9343L56.8635 56.5632L57.6897 57.5438L59.7504 66.7521L58.2952 67.9781ZM61.683 60.6703L60.6257 59.4155L63.747 56.7857L64.8042 58.0405L61.683 60.6703ZM68.224 59.6127L62.0049 52.2313L63.3019 51.1385L65.8873 54.2071L69.4093 51.2397L66.8239 48.1711L68.1209 47.0783L74.3401 54.4597L73.043 55.5525L70.4221 52.4418L66.9001 55.4092L69.5211 58.5199L68.224 59.6127ZM75.6873 53.3246L74.4702 51.8799L75.8726 50.6983L77.0898 52.1429L75.6873 53.3246ZM78.4348 51.0097L72.2157 43.6283L75.5268 40.8386C76.3774 40.1219 77.2043 39.7979 78.0073 39.8665C78.6161 39.9185 79.1308 40.1941 79.5513 40.6932C80.1673 41.4243 80.2778 42.2688 79.8828 43.2267C81.1383 42.7338 82.1363 42.9267 82.8767 43.8054C83.4216 44.4522 83.5961 45.1586 83.4001 45.9247C83.2042 46.6908 82.6879 47.4263 81.8514 48.1311L78.4348 51.0097ZM76.1126 45.664L77.8841 44.1714C78.3129 43.8101 78.5793 43.4415 78.6832 43.0654C78.7882 42.6765 78.6985 42.3133 78.4142 41.9758C78.1655 41.6806 77.8605 41.5469 77.4993 41.5747C77.1322 41.5955 76.7413 41.7807 76.3265 42.1301L74.46 43.7027L76.1126 45.664ZM78.7424 48.7853L80.8935 46.9729C81.3434 46.5938 81.6174 46.2127 81.7153 45.8297C81.8203 45.4407 81.7307 45.0775 81.4464 44.7401C80.8896 44.0792 80.1051 44.1753 79.0928 45.0282L77.0365 46.7607L78.7424 48.7853ZM85.4965 45.06L84.2793 43.6153L85.6818 42.4337L86.899 43.8783L85.4965 45.06Z" fill="#5E524E"/>
<g filter="url(#filter0_g_2294_6219)">
<circle cx="60.5215" cy="60.517" r="54.0057" stroke="#5E524E" stroke-width="0.766038"/>
</g>
<g filter="url(#filter1_g_2294_6219)">
<circle cx="60.5205" cy="60.517" r="58.9849" stroke="#5E524E" stroke-width="1.53208"/>
</g>
<path d="M26.9205 42.5456L20.9746 38.9069L23.423 34.9061L24.3658 35.4831L22.5517 38.4476L27.5547 41.5093L26.9205 42.5456ZM33.4247 32.5666C33.4845 33.5507 33.1608 34.4345 32.4535 35.2181C31.7462 36.0017 30.9047 36.4138 29.929 36.4543C28.9534 36.4948 28.091 36.177 27.3419 35.5009C26.6027 34.8336 26.2032 34.0079 26.1434 33.0239C26.0836 32.0398 26.4074 31.156 27.1147 30.3724C27.822 29.5888 28.6634 29.1767 29.6391 29.1362C30.6148 29.0956 31.4771 29.4134 32.2262 30.0896C32.9655 30.7569 33.365 31.5825 33.4247 32.5666ZM29.9582 35.233C30.6155 35.2182 31.1733 34.9569 31.6315 34.4493C32.0896 33.9417 32.2881 33.3651 32.2269 32.7196C32.1701 32.0691 31.8829 31.5103 31.3655 31.0432C30.8529 30.5806 30.268 30.3567 29.6107 30.3715C28.9529 30.377 28.3949 30.6335 27.9367 31.1412C27.4785 31.6488 27.2778 32.2278 27.3346 32.8783C27.3958 33.5238 27.6852 34.0802 28.2027 34.5472C28.7152 35.0099 29.3004 35.2385 29.9582 35.233ZM36.1528 33.1537L34.6281 31.061L35.1755 30.6622C34.965 29.3699 34.2441 27.8786 33.0126 26.1883L32.4321 25.3914L36.36 22.5298L39.8197 27.2787L40.52 26.7685L41.9078 28.961L41.0868 29.5591L40.2072 28.3517L36.2391 31.2427L37.0221 32.5204L36.1528 33.1537ZM36.2299 29.894L38.8297 28L36.0209 24.1445L34.0328 25.5929L34.5019 26.2368C35.4597 27.5515 36.0357 28.7706 36.2299 29.894ZM42.1346 27.1871L39.3439 20.7992L40.4572 20.3128L41.4619 22.6125L42.9311 21.9706C43.6611 21.6517 44.3192 21.5743 44.9053 21.7384C45.4948 21.8938 45.9278 22.2879 46.2042 22.9206C46.4859 23.5655 46.4932 24.1709 46.2261 24.7368C45.9562 25.2966 45.4502 25.7386 44.708 26.0629L42.1346 27.1871ZM42.8094 25.6969L44.2512 25.067C44.671 24.8836 44.9536 24.6515 45.0989 24.3707C45.2477 24.0811 45.2437 23.7568 45.0869 23.3979C44.9434 23.0693 44.7188 22.8704 44.4132 22.8011C44.105 22.7256 43.7379 22.7809 43.312 22.967L41.8884 23.5889L42.8094 25.6969ZM47.8746 24.6795L45.0839 18.2915L46.1973 17.8052L48.9879 24.1931L47.8746 24.6795ZM98.3699 70.2546L105.016 72.3568L104.187 74.9774C103.943 75.7496 103.546 76.2996 102.997 76.6272C102.448 76.9548 101.831 77.0105 101.148 76.7943C100.433 76.568 99.9556 76.1387 99.717 75.5061C99.4764 74.8799 99.4772 74.1839 99.7194 73.418L100.137 72.0982L98.0005 71.4225L98.3699 70.2546ZM101.191 72.4315L100.761 73.7893C100.623 74.2261 100.624 74.6092 100.763 74.9388C100.903 75.2684 101.153 75.4903 101.514 75.6044C101.894 75.7246 102.226 75.6869 102.51 75.4914C102.799 75.3043 103.014 74.9892 103.154 74.5461L103.584 73.1883L101.191 72.4315ZM96.4948 75.9966L101.212 82.034L100.672 83.0326L93.037 82.3913L93.6528 81.2525L95.4695 81.4311L97.0374 78.5316L95.898 77.1003L96.4948 75.9966ZM97.779 79.442L96.6375 81.5532L99.6634 81.8195L97.779 79.442ZM92.3315 83.3341L97.7123 87.7659L94.4075 91.7785L93.5542 91.0757L96.0867 88.001L94.8491 86.9817L93.6145 88.4806C93.1207 89.0802 92.5868 89.436 92.0128 89.5481C91.4346 89.6654 90.8893 89.513 90.3768 89.0909C89.8438 88.6519 89.5795 88.1375 89.5837 87.5475C89.588 86.9576 89.8476 86.35 90.3625 85.7248L92.3315 83.3341ZM92.4047 84.9684L91.379 86.2136C91.0245 86.6441 90.8243 87.0125 90.7784 87.3188C90.7377 87.6293 90.8762 87.9154 91.194 88.1771C91.7218 88.6118 92.2854 88.4653 92.8847 87.7376L94.0497 86.3232L92.4047 84.9684ZM83.6897 93.1297C83.7825 92.1482 84.2387 91.3249 85.0584 90.6598C85.8782 89.9947 86.7731 89.7174 87.7434 89.8279C88.7136 89.9384 89.5166 90.3854 90.1524 91.1691C90.7799 91.9424 91.0472 92.8198 90.9544 93.8013C90.8616 94.7828 90.4054 95.6061 89.5857 96.2712C88.766 96.9363 87.871 97.2136 86.9008 97.1031C85.9305 96.9927 85.1275 96.5456 84.4917 95.762C83.8642 94.9886 83.5969 94.1112 83.6897 93.1297ZM87.5261 91.0301C86.8744 90.9433 86.283 91.1154 85.752 91.5462C85.221 91.9771 84.9359 92.5161 84.8968 93.1634C84.8526 93.8149 85.0501 94.4112 85.4893 94.9526C85.9243 95.4887 86.4677 95.8002 87.1194 95.887C87.7702 95.983 88.3611 95.8157 88.8921 95.3848C89.4231 94.954 89.7108 94.4128 89.755 93.7614C89.7941 93.1141 89.594 92.5198 89.1548 91.9785C88.7198 91.4423 88.1769 91.1262 87.5261 91.0301ZM79.555 94.6416L82.3053 99.7885L84.2552 98.7466L84.7902 99.7479L79.8015 102.414L79.2664 101.412L81.2162 100.371L78.4658 95.2236L79.555 94.6416ZM75.3079 96.7035L77.267 103.393L76.101 103.735L75.3958 101.326L73.8571 101.777C73.0925 102.001 72.4299 101.994 71.8693 101.757C71.3042 101.529 70.9247 101.083 70.7306 100.42C70.5328 99.7448 70.6023 99.1434 70.939 98.6159C71.2775 98.0947 71.8354 97.7203 72.6128 97.4927L75.3079 96.7035ZM74.4498 98.0962L72.9397 98.5384C72.5001 98.6671 72.1904 98.8616 72.0106 99.1218C71.8264 99.3902 71.7893 99.7124 71.8994 100.088C72.0001 100.432 72.1977 100.658 72.492 100.766C72.7883 100.879 73.1594 100.871 73.6054 100.74L75.0963 100.304L74.4498 98.0962ZM69.2964 98.4639L71.2556 105.154L70.0896 105.495L68.1305 98.8053L69.2964 98.4639Z" fill="#5E524E"/>
<defs>
<filter id="filter0_g_2294_6219" x="5.36677" y="5.36226" width="110.309" height="110.309" filterUnits="userSpaceOnUse" color-interpolation-filters="sRGB">
<feFlood flood-opacity="0" result="BackgroundImageFix"/>
<feBlend mode="normal" in="SourceGraphic" in2="BackgroundImageFix" result="shape"/>
<feTurbulence type="fractalNoise" baseFrequency="0.65270936489105225 0.65270936489105225" numOctaves="3" seed="9727" />
<feDisplacementMap in="shape" scale="1.5320755243301392" xChannelSelector="R" yChannelSelector="G" result="displacedImage" width="100%" height="100%" />
<feMerge result="effect1_texture_2294_6219">
<feMergeNode in="displacedImage"/>
</feMerge>
</filter>
<filter id="filter1_g_2294_6219" x="0.00349349" y="-7.7486e-07" width="121.034" height="121.034" filterUnits="userSpaceOnUse" color-interpolation-filters="sRGB">
<feFlood flood-opacity="0" result="BackgroundImageFix"/>
<feBlend mode="normal" in="SourceGraphic" in2="BackgroundImageFix" result="shape"/>
<feTurbulence type="fractalNoise" baseFrequency="0.65270936489105225 0.65270936489105225" numOctaves="3" seed="9727" />
<feDisplacementMap in="shape" scale="1.5320755243301392" xChannelSelector="R" yChannelSelector="G" result="displacedImage" width="100%" height="100%" />
<feMerge result="effect1_texture_2294_6219">
<feMergeNode in="displacedImage"/>
</feMerge>
</filter>
</defs>
</svg>
