<svg width="130" height="130" viewBox="0 0 130 130" fill="none" xmlns="http://www.w3.org/2000/svg">
<path d="M39.3476 92.6077L38.4232 91.5106L39.1955 86.8953C39.3596 85.9577 39.4201 85.2491 39.3771 84.7696C39.3353 84.2762 39.1683 83.8561 38.8761 83.5093C38.5584 83.1322 38.1868 82.936 37.7613 82.9207C37.3294 82.8978 36.9287 83.042 36.5593 83.3532C36.2124 83.6455 35.9789 84.0034 35.8587 84.427C35.7461 84.8442 35.7024 85.3967 35.7276 86.0846L34.0955 86.1446C34.0199 85.2285 34.0858 84.4574 34.2932 83.8313C34.5019 83.1914 34.9417 82.5888 35.6128 82.0233C36.3895 81.369 37.2033 81.0572 38.0544 81.0879C38.9054 81.1187 39.6327 81.4922 40.2362 82.2085C40.4967 82.5177 40.6941 82.8284 40.8283 83.1408C40.9562 83.4456 41.0301 83.8088 41.0501 84.2303C41.0712 84.638 41.0576 85.0427 41.0093 85.4444C40.9622 85.8322 40.8792 86.3534 40.7602 87.008L40.2751 89.7375L44.0415 86.5642L45.0706 87.7857L39.3476 92.6077ZM49.588 84.2118C48.5625 85.0758 47.4059 85.3863 46.1181 85.1433C44.824 84.8928 43.6846 84.1831 42.6999 83.0144C41.7279 81.8607 41.232 80.6218 41.2122 79.2976C41.1936 77.9595 41.6933 76.8616 42.7112 76.004C43.7291 75.1463 44.8852 74.8428 46.1793 75.0933C47.4809 75.3375 48.6209 76.0402 49.5993 77.2014C50.5713 78.3551 51.0666 79.6009 51.0852 80.939C51.105 82.2632 50.6059 83.3541 49.588 84.2118ZM46.3963 83.3618C47.2307 83.587 47.9496 83.4455 48.5528 82.9373C49.156 82.429 49.4131 81.7548 49.3239 80.9145C49.236 80.0603 48.849 79.226 48.1628 78.4116C47.4894 77.6124 46.7355 77.1001 45.9011 76.8748C45.0603 76.6421 44.342 76.7766 43.7464 77.2785C43.1431 77.7867 42.8855 78.4679 42.9734 79.3221C43.0626 80.1625 43.4502 80.9898 44.1363 81.8041C44.8097 82.6034 45.5631 83.1226 46.3963 83.3618ZM55.2491 79.21L49.722 72.6499L48.6304 74.2465L47.3834 73.3632L48.938 70.8931L49.9107 70.0735L56.629 78.0474L55.2491 79.21ZM60.8771 74.7002C59.9497 75.4817 58.8383 75.8765 57.5431 75.8848L57.4051 74.1831C58.4126 74.1852 59.2254 73.9258 59.8438 73.4049C60.4168 72.922 60.6824 72.3115 60.6405 71.5732C60.5923 70.8273 60.2651 70.0716 59.6587 69.3061C59.6614 70.258 59.2781 71.0579 58.509 71.7059C57.6645 72.4174 56.7921 72.7592 55.8918 72.7313C54.9915 72.7033 54.2174 72.3048 53.5694 71.5357C52.9087 70.7515 52.6344 69.8674 52.7464 68.8833C52.8585 67.8993 53.3481 67.0419 54.2153 66.3113C55.1201 65.549 56.0866 65.2117 57.1147 65.2996C58.2956 65.4005 59.4706 66.1447 60.6395 67.5321C61.7259 68.8215 62.2972 70.1193 62.3535 71.4257C62.4174 72.7256 61.9252 73.8172 60.8771 74.7002ZM56.2212 70.9646C56.7377 70.9807 57.2409 70.7823 57.731 70.3694C58.2212 69.9564 58.492 69.4898 58.5434 68.9694C58.6024 68.4426 58.4604 67.9756 58.1174 67.5685C57.7616 67.1462 57.3185 66.9264 56.7882 66.9091C56.2515 66.8842 55.7344 67.0814 55.2367 67.5007C54.7541 67.9073 54.4903 68.3746 54.4452 68.9025C54.4012 69.4166 54.5603 69.8885 54.9225 70.3183C55.2719 70.733 55.7048 70.9484 56.2212 70.9646ZM62.7437 68.1186L61.6097 66.7727L64.9576 63.952L66.0916 65.2979L62.7437 68.1186ZM69.296 67.3749L68.3716 66.2778L69.1439 61.6626C69.308 60.7249 69.3685 60.0164 69.3256 59.5369C69.2838 59.0435 69.1167 58.6234 68.8245 58.2765C68.5068 57.8995 68.1353 57.7033 67.7097 57.6879C67.2778 57.665 66.8772 57.8092 66.5077 58.1205C66.1608 58.4127 65.9273 58.7707 65.8072 59.1942C65.6945 59.6114 65.6508 60.164 65.676 60.8519L64.044 60.9118C63.9683 59.9957 64.0342 59.2246 64.2417 58.5986C64.4503 57.9587 64.8902 57.356 65.5612 56.7906C66.3379 56.1362 67.1517 55.8244 68.0028 55.8552C68.8539 55.8859 69.5812 56.2595 70.1847 56.9758C70.4452 57.2849 70.6425 57.5957 70.7768 57.9081C70.9047 58.2129 70.9786 58.5761 70.9985 58.9976C71.0197 59.4053 71.0061 59.8099 70.9578 60.2117C70.9106 60.5995 70.8276 61.1207 70.7087 61.7753L70.2235 64.5048L73.9899 61.3315L75.0191 62.553L69.296 67.3749ZM79.5364 58.9791C78.5109 59.8431 77.3543 60.1536 76.0666 59.9106C74.7725 59.66 73.633 58.9504 72.6483 57.7816C71.6763 56.628 71.1804 55.389 71.1606 54.0648C71.142 52.7268 71.6417 51.6289 72.6596 50.7712C73.6776 49.9136 74.8336 49.61 76.1277 49.8606C77.4293 50.1047 78.5694 50.8074 79.5477 51.9686C80.5197 53.1223 81.015 54.3682 81.0336 55.7063C81.0534 57.0305 80.5543 58.1214 79.5364 58.9791ZM76.3448 58.129C77.1792 58.3543 77.898 58.2128 78.5012 57.7045C79.1045 57.1963 79.3615 56.522 79.2724 55.6817C79.1844 54.8275 78.7974 53.9932 78.1113 53.1789C77.4379 52.3796 76.6839 51.8674 75.8495 51.6421C75.0087 51.4093 74.2905 51.5439 73.6948 52.0457C73.0916 52.554 72.8339 53.2352 72.9219 54.0894C73.011 54.9297 73.3986 55.757 74.0848 56.5714C74.7582 57.3707 75.5115 57.8899 76.3448 58.129ZM83.628 55.2996L82.7037 54.2025L83.4759 49.5873C83.64 48.6496 83.7006 47.9411 83.6576 47.4616C83.6158 46.9682 83.4488 46.5481 83.1565 46.2012C82.8389 45.8242 82.4673 45.628 82.0418 45.6126C81.6099 45.5897 81.2092 45.7339 80.8397 46.0452C80.4929 46.3374 80.2594 46.6953 80.1392 47.1189C80.0266 47.5361 79.9829 48.0887 80.008 48.7766L78.376 48.8365C78.3004 47.9204 78.3663 47.1493 78.5737 46.5233C78.7823 45.8834 79.2222 45.2807 79.8933 44.7153C80.6699 44.0609 81.4838 43.7491 82.3348 43.7799C83.1859 43.8106 83.9132 44.1841 84.5167 44.9005C84.7772 45.2096 84.9746 45.5204 85.1088 45.8327C85.2367 46.1376 85.3106 46.5007 85.3306 46.9223C85.3517 47.33 85.3381 47.7346 85.2898 48.1364C85.2427 48.5242 85.1596 49.0454 85.0407 49.7L84.5556 52.4295L88.3219 49.2562L89.3511 50.4777L83.628 55.2996ZM93.8684 46.9038C92.843 47.7678 91.6863 48.0783 90.3986 47.8353C89.1045 47.5847 87.9651 46.8751 86.9804 45.7063C86.0084 44.5527 85.5125 43.3137 85.4927 41.9895C85.4741 40.6514 85.9737 39.5536 86.9917 38.6959C88.0096 37.8383 89.1657 37.5347 90.4598 37.7852C91.7614 38.0294 92.9014 38.7321 93.8798 39.8933C94.8518 41.047 95.3471 42.2929 95.3657 43.631C95.3855 44.9552 94.8864 46.0461 93.8684 46.9038ZM90.6768 46.0537C91.5112 46.279 92.2301 46.1375 92.8333 45.6292C93.4365 45.121 93.6936 44.4467 93.6044 43.6064C93.5165 42.7522 93.1295 41.9179 92.4433 41.1036C91.7699 40.3043 91.016 39.792 90.1816 39.5668C89.3408 39.334 88.6225 39.4685 88.0268 39.9704C87.4236 40.4787 87.166 41.1599 87.2539 42.0141C87.343 42.8544 87.7307 43.6817 88.4168 44.4961C89.0902 45.2954 89.8436 45.8146 90.6768 46.0537Z" fill="#9B8C87"/>
<g filter="url(#filter0_g_2294_5586)">
<circle cx="64.9099" cy="64.9108" r="57.9268" stroke="#9B8C87" stroke-width="0.821656"/>
</g>
<g filter="url(#filter1_g_2294_5586)">
<circle cx="64.9114" cy="64.9108" r="63.2675" stroke="#9B8C87" stroke-width="1.64331"/>
</g>
<path d="M26.2236 51.8045L17.2725 47.8147L19.0621 43.7995C19.5219 42.768 20.1339 42.1058 20.898 41.8128C21.4772 41.5908 22.0695 41.6146 22.6748 41.8844C23.5614 42.2796 24.0363 43.0022 24.0996 44.0523C25.0285 43.0459 26.0257 42.7802 27.0913 43.2552C27.8756 43.6047 28.3478 44.1729 28.5081 44.9596C28.6684 45.7463 28.5224 46.6469 28.0702 47.6614L26.2236 51.8045ZM21.7344 47.9489L22.6919 45.8006C22.9237 45.2806 23.0038 44.8258 22.9322 44.4362C22.8558 44.0343 22.6131 43.7422 22.2039 43.5598C21.8458 43.4002 21.508 43.4131 21.1903 43.5985C20.8641 43.7801 20.589 44.1224 20.3648 44.6254L19.3559 46.8887L21.7344 47.9489ZM25.5194 49.6359L26.6821 47.0273C26.9253 46.4818 27.0068 46.0123 26.9267 45.6189C26.8504 45.217 26.6076 44.9249 26.1984 44.7425C25.3971 44.3853 24.7228 44.8205 24.1757 46.0481L23.0642 48.5416L25.5194 49.6359ZM30.4009 43.1235L22.5667 37.2358L26.932 31.4273L28.1631 32.3525L24.8324 36.7844L26.8693 38.3152L29.8215 34.3869L31.0526 35.3121L28.1003 39.2404L30.2044 40.8217L33.5772 36.3338L34.8083 37.259L30.4009 43.1235ZM35.4112 36.6497L34.9268 30.5382L29.1999 29.0682L30.7516 27.7594L34.8793 28.875L34.4866 24.6093L35.9955 23.3366L36.4712 29.199L42.4209 30.7376L40.8691 32.0464L36.508 30.8712L36.9201 35.3771L35.4112 36.6497ZM43.6027 30.1351L39.2594 21.3501L40.778 20.5993L43.9485 27.0124L45.2207 18.4029L46.6639 17.6893L51.0072 26.4743L49.4886 27.2251L46.3242 20.8246L45.0585 29.4153L43.6027 30.1351ZM103.803 80.2186L111.412 83.2848L112.574 80.402L114.054 80.9985L111.082 88.3742L109.602 87.7777L110.764 84.895L103.154 81.8288L103.803 80.2186ZM101.233 85.872L109.322 91.4036L107.141 94.5932C106.499 95.5332 105.741 96.1119 104.869 96.3295C103.996 96.547 103.144 96.3713 102.312 95.8023C101.441 95.207 100.974 94.4353 100.91 93.487C100.841 92.5465 101.125 91.6101 101.763 90.6779L102.861 89.0715L100.261 87.2935L101.233 85.872ZM104.144 89.9487L103.014 91.6012C102.65 92.1329 102.495 92.6488 102.549 93.149C102.603 93.6493 102.849 94.0496 103.288 94.3499C103.75 94.666 104.213 94.7504 104.675 94.6031C105.14 94.4687 105.557 94.1319 105.926 93.5926L107.056 91.94L104.144 89.9487ZM94.6459 94.0879C95.1379 93.6302 95.7172 93.3143 96.3839 93.1402L96.7795 94.5314C96.3731 94.629 96.0093 94.8272 95.6882 95.126C95.2577 95.5265 95.1234 96.1359 95.2854 96.954L103.333 99.602L101.918 100.918L95.8024 98.8251L97.7155 104.828L96.3523 106.096L93.9343 97.8859C93.4452 96.2503 93.6824 94.9843 94.6459 94.0879ZM88.5909 97.1015L90.3561 100.285L89.5235 100.747C89.5937 102.586 90.3417 104.791 91.7674 107.362L92.4396 108.574L86.4647 111.888L82.459 104.664L81.3938 105.255L79.8367 101.956L81.0856 101.263L82.104 103.1L88.14 99.7528L87.2686 97.8348L88.5909 97.1015ZM87.9196 101.636L83.965 103.829L87.2171 109.694L90.2412 108.017L89.6981 107.037C88.5891 105.037 87.9963 103.237 87.9196 101.636ZM80.3897 103.931L78.6946 114.567L77.1498 114.968L70.4972 106.497L72.2589 106.04L73.8152 108.081L78.3007 106.917L78.6822 104.374L80.3897 103.931ZM78.0741 108.552L74.8083 109.4L77.4324 112.769L78.0741 108.552Z" fill="#9B8C87"/>
<defs>
<filter id="filter0_g_2294_5586" x="5.75061" y="5.75159" width="118.319" height="118.318" filterUnits="userSpaceOnUse" color-interpolation-filters="sRGB">
<feFlood flood-opacity="0" result="BackgroundImageFix"/>
<feBlend mode="normal" in="SourceGraphic" in2="BackgroundImageFix" result="shape"/>
<feTurbulence type="fractalNoise" baseFrequency="0.60852712392807007 0.60852712392807007" numOctaves="3" seed="9727" />
<feDisplacementMap in="shape" scale="1.6433120965957642" xChannelSelector="R" yChannelSelector="G" result="displacedImage" width="100%" height="100%" />
<feMerge result="effect1_texture_2294_5586">
<feMergeNode in="displacedImage"/>
</feMerge>
</filter>
<filter id="filter1_g_2294_5586" x="0.000609577" y="-7.7486e-07" width="129.821" height="129.822" filterUnits="userSpaceOnUse" color-interpolation-filters="sRGB">
<feFlood flood-opacity="0" result="BackgroundImageFix"/>
<feBlend mode="normal" in="SourceGraphic" in2="BackgroundImageFix" result="shape"/>
<feTurbulence type="fractalNoise" baseFrequency="0.60852712392807007 0.60852712392807007" numOctaves="3" seed="9727" />
<feDisplacementMap in="shape" scale="1.6433120965957642" xChannelSelector="R" yChannelSelector="G" result="displacedImage" width="100%" height="100%" />
<feMerge result="effect1_texture_2294_5586">
<feMergeNode in="displacedImage"/>
</feMerge>
</filter>
</defs>
</svg>
