<svg width="122" height="122" viewBox="0 0 122 122" fill="none" xmlns="http://www.w3.org/2000/svg">
<path d="M40.2586 83.1763L39.3968 82.1534L40.1168 77.8506C40.2698 76.9764 40.3262 76.3158 40.2862 75.8688C40.2472 75.4088 40.0915 75.0171 39.819 74.6938C39.5229 74.3423 39.1764 74.1593 38.7797 74.145C38.3771 74.1236 38.0035 74.2581 37.659 74.5483C37.3357 74.8208 37.118 75.1544 37.0059 75.5493C36.9009 75.9383 36.8602 76.4535 36.8836 77.0948L35.3621 77.1507C35.2916 76.2966 35.353 75.5777 35.5464 74.994C35.7409 74.3974 36.151 73.8356 36.7767 73.3084C37.5007 72.6983 38.2595 72.4076 39.0529 72.4363C39.8464 72.465 40.5245 72.8132 41.0871 73.4811C41.33 73.7693 41.514 74.059 41.6391 74.3502C41.7584 74.6344 41.8273 74.973 41.8459 75.366C41.8656 75.7461 41.8529 76.1234 41.8079 76.4979C41.7639 76.8595 41.6865 77.3454 41.5757 77.9557L41.1233 80.5004L44.6348 77.5419L45.5943 78.6808L40.2586 83.1763ZM49.8058 75.3487C48.8498 76.1543 47.7714 76.4438 46.5709 76.2172C45.3644 75.9836 44.3021 75.322 43.384 74.2324C42.4778 73.1568 42.0155 72.0017 41.997 70.7672C41.9797 69.5197 42.4455 68.4961 43.3946 67.6965C44.3436 66.8969 45.4214 66.6139 46.6279 66.8475C47.8414 67.0751 48.9042 67.7303 49.8164 68.8129C50.7226 69.8884 51.1844 71.05 51.2017 72.2975C51.2202 73.5321 50.7549 74.5491 49.8058 75.3487ZM46.8302 74.5562C47.6082 74.7662 48.2783 74.6343 48.8407 74.1605C49.4031 73.6867 49.6428 73.058 49.5597 72.2746C49.4777 71.4782 49.1169 70.7004 48.4772 69.9412C47.8493 69.196 47.1465 68.7184 46.3685 68.5084C45.5846 68.2914 44.915 68.4168 44.3597 68.8847C43.7973 69.3586 43.5571 69.9937 43.639 70.7901C43.7221 71.5735 44.0835 72.3448 44.7232 73.1041C45.351 73.8492 46.0534 74.3333 46.8302 74.5562ZM55.0838 70.6855L49.9308 64.5695L48.9131 66.058L47.7505 65.2345L49.1998 62.9315L50.1067 62.1675L56.3702 69.6016L55.0838 70.6855ZM60.4818 66.3178C59.6663 67.0048 58.8256 67.3766 57.9596 67.4331C57.1007 67.4836 56.4047 67.1926 55.8716 66.5599C55.1727 65.7303 55.1092 64.7561 55.681 63.6372C54.6442 63.8618 53.8177 63.6085 53.2017 62.8774C52.722 62.308 52.5647 61.6291 52.7299 60.8408C52.8951 60.0525 53.3468 59.3474 54.085 58.7255C54.8231 58.1036 55.5946 57.7781 56.3995 57.749C57.2044 57.7199 57.8527 57.9971 58.3443 58.5806C58.9484 59.2977 59.0519 60.1481 58.6547 61.1318C59.884 60.7933 60.8303 61.0177 61.4937 61.805C62.0386 62.4518 62.2133 63.1941 62.0177 64.032C61.8163 64.8629 61.3043 65.6248 60.4818 66.3178ZM55.5969 62.446C56.0218 62.4366 56.424 62.272 56.8036 61.9522C57.1832 61.6324 57.4102 61.2669 57.4845 60.8557C57.5598 60.4316 57.4613 60.0578 57.1889 59.7344C56.946 59.4462 56.6186 59.3073 56.2068 59.3178C55.7889 59.3212 55.3867 59.4858 55.0001 59.8116C54.6134 60.1374 54.383 60.5058 54.3087 60.917C54.2285 61.3211 54.3128 61.6708 54.5615 61.9661C54.834 62.2895 55.1791 62.4494 55.5969 62.446ZM58.1718 65.8659C58.6307 65.8399 59.0957 65.6285 59.5667 65.2317C60.0377 64.8348 60.3249 64.4125 60.4284 63.9647C60.526 63.5098 60.4386 63.1207 60.1661 62.7973C59.8878 62.4669 59.5151 62.3242 59.048 62.3691C58.5751 62.4069 58.1172 62.6125 57.6743 62.9856C57.2314 63.3587 56.9512 63.7751 56.8336 64.2348C56.7101 64.6874 56.7935 65.086 57.0837 65.4305C57.3443 65.7398 57.707 65.8849 58.1718 65.8659ZM61.793 60.5792L60.7358 59.3243L63.8571 56.6945L64.9143 57.9494L61.793 60.5792ZM68.3341 59.5216L62.115 52.1402L63.412 51.0474L65.9974 54.1159L69.5194 51.1485L66.934 48.08L68.231 46.9872L74.4501 54.3686L73.1531 55.4614L70.5322 52.3506L67.0102 55.318L69.6311 58.4288L68.3341 59.5216ZM75.7974 53.2335L74.5802 51.7888L75.9827 50.6072L77.1999 52.0518L75.7974 53.2335ZM78.5449 50.9186L72.3258 43.5372L75.6369 40.7474C76.4875 40.0308 77.3143 39.7067 78.1174 39.7754C78.7262 39.8274 79.2409 40.103 79.6614 40.6021C80.2774 41.3332 80.3879 42.1777 79.9929 43.1355C81.2484 42.6427 82.2464 42.8356 82.9867 43.7143C83.5317 44.3611 83.7061 45.0675 83.5102 45.8336C83.3143 46.5997 82.798 47.3352 81.9614 48.04L78.5449 50.9186ZM76.2226 45.5729L77.9942 44.0803C78.423 43.719 78.6894 43.3503 78.7933 42.9743C78.8983 42.5853 78.8086 42.2221 78.5243 41.8847C78.2755 41.5894 77.9706 41.4557 77.6094 41.4836C77.2423 41.5044 76.8513 41.6895 76.4366 42.039L74.5701 43.6115L76.2226 45.5729ZM78.8524 48.6942L81.0036 46.8817C81.4535 46.5027 81.7274 46.1216 81.8254 45.7385C81.9304 45.3496 81.8408 44.9864 81.5565 44.6489C80.9997 43.9881 80.2152 44.0842 79.2029 44.9371L77.1466 46.6695L78.8524 48.6942ZM85.6066 44.9688L84.3894 43.5242L85.7919 42.3425L87.0091 43.7872L85.6066 44.9688Z" fill="#5E524E"/>
<g filter="url(#filter0_g_2294_6186)">
<circle cx="60.5215" cy="60.517" r="54.0057" stroke="#5E524E" stroke-width="0.766038"/>
</g>
<g filter="url(#filter1_g_2294_6186)">
<circle cx="60.5224" cy="60.517" r="58.9849" stroke="#5E524E" stroke-width="1.53208"/>
</g>
<path d="M26.9225 42.5456L20.9766 38.9069L23.4249 34.9061L24.3678 35.4831L22.5536 38.4476L27.5567 41.5093L26.9225 42.5456ZM33.4267 32.5666C33.4865 33.5507 33.1627 34.4345 32.4554 35.2181C31.7481 36.0017 30.9066 36.4138 29.931 36.4543C28.9553 36.4949 28.093 36.177 27.3439 35.5009C26.6046 34.8336 26.2051 34.008 26.1453 33.0239C26.0856 32.0398 26.4093 31.156 27.1166 30.3724C27.8239 29.5888 28.6654 29.1767 29.641 29.1362C30.6167 29.0957 31.4791 29.4135 32.2282 30.0896C32.9674 30.7569 33.3669 31.5825 33.4267 32.5666ZM29.9601 35.233C30.6175 35.2182 31.1752 34.9569 31.6334 34.4493C32.0916 33.9417 32.2901 33.3651 32.2288 32.7196C32.172 32.0691 31.8849 31.5103 31.3674 31.0432C30.8549 30.5806 30.2699 30.3567 29.6126 30.3716C28.9548 30.377 28.3968 30.6336 27.9386 31.1412C27.4804 31.6488 27.2798 32.2278 27.3365 32.8783C27.3978 33.5239 27.6871 34.0802 28.2046 34.5473C28.7172 35.0099 29.3023 35.2385 29.9601 35.233ZM36.1547 33.1537L34.6301 31.061L35.1774 30.6622C34.967 29.3699 34.246 27.8786 33.0146 26.1883L32.434 25.3915L36.3619 22.5299L39.8217 27.2787L40.5219 26.7686L41.9097 28.961L41.0887 29.5591L40.2091 28.3518L36.241 31.2427L37.024 32.5204L36.1547 33.1537ZM36.2318 29.8941L38.8316 28L36.0228 24.1446L34.0347 25.593L34.5038 26.2369C35.4616 27.5515 36.0376 28.7706 36.2318 29.8941ZM42.1365 27.1872L39.3458 20.7992L40.4592 20.3128L41.4638 22.6125L42.933 21.9706C43.6631 21.6517 44.3212 21.5743 44.9073 21.7385C45.4968 21.8939 45.9298 22.2879 46.2062 22.9206C46.4879 23.5655 46.4952 24.1709 46.228 24.7368C45.9582 25.2966 45.4522 25.7387 44.7099 26.0629L42.1365 27.1872ZM42.8113 25.697L44.2532 25.0671C44.6729 24.8837 44.9555 24.6516 45.1009 24.3707C45.2497 24.0811 45.2457 23.7568 45.0889 23.3979C44.9453 23.0694 44.7208 22.8704 44.4152 22.8011C44.1069 22.7256 43.7398 22.781 43.314 22.967L41.8904 23.5889L42.8113 25.697ZM47.8766 24.6795L45.0859 18.2916L46.1992 17.8052L48.9899 24.1932L47.8766 24.6795ZM98.3719 70.2546L105.018 72.3568L104.189 74.9774C103.945 75.7497 103.548 76.2996 102.999 76.6272C102.45 76.9548 101.833 77.0105 101.15 76.7943C100.435 76.5681 99.9576 76.1387 99.7189 75.5062C99.4783 74.88 99.4791 74.1839 99.7214 73.418L100.139 72.0982L98.0025 71.4225L98.3719 70.2546ZM101.193 72.4316L100.763 73.7893C100.625 74.2261 100.626 74.6093 100.765 74.9389C100.905 75.2685 101.155 75.4903 101.516 75.6044C101.895 75.7246 102.228 75.6869 102.512 75.4914C102.801 75.3043 103.016 74.9892 103.156 74.5461L103.585 73.1884L101.193 72.4316ZM96.4967 75.9966L101.214 82.034L100.674 83.0326L93.039 82.3913L93.6547 81.2526L95.4715 81.4311L97.0393 78.5316L95.8999 77.1004L96.4967 75.9966ZM97.781 79.4421L96.6394 81.5532L99.6653 81.8195L97.781 79.4421ZM92.3335 83.3342L97.7143 87.7659L94.4094 91.7785L93.5562 91.0758L96.0886 88.001L94.8511 86.9817L93.6165 88.4806C93.1227 89.0802 92.5888 89.4361 92.0148 89.5482C91.4366 89.6654 90.8912 89.513 90.3788 89.0909C89.8458 88.652 89.5814 88.1375 89.5857 87.5475C89.59 86.9576 89.8495 86.35 90.3645 85.7248L92.3335 83.3342ZM92.4066 84.9684L91.381 86.2137C91.0264 86.6441 90.8262 87.0125 90.7804 87.3188C90.7397 87.6293 90.8782 87.9154 91.1959 88.1771C91.7238 88.6118 92.2873 88.4653 92.8867 87.7376L94.0516 86.3232L92.4066 84.9684ZM83.6916 93.1297C83.7844 92.1482 84.2407 91.3249 85.0604 90.6598C85.8801 89.9947 86.7751 89.7174 87.7453 89.8279C88.7155 89.9384 89.5186 90.3855 90.1544 91.1691C90.7818 91.9424 91.0491 92.8198 90.9564 93.8013C90.8636 94.7828 90.4073 95.6062 89.5876 96.2712C88.7679 96.9363 87.8729 97.2136 86.9027 97.1032C85.9325 96.9927 85.1295 96.5456 84.4936 95.762C83.8662 94.9887 83.5989 94.1113 83.6916 93.1297ZM87.5281 91.0301C86.8763 90.9434 86.2849 91.1154 85.7539 91.5462C85.2229 91.9771 84.9379 92.5161 84.8988 93.1634C84.8545 93.8149 85.052 94.4113 85.4912 94.9526C85.9263 95.4888 86.4697 95.8002 87.1214 95.887C87.7722 95.9831 88.3631 95.8157 88.8941 95.3848C89.4251 94.954 89.7127 94.4128 89.757 93.7614C89.7961 93.1141 89.596 92.5198 89.1568 91.9785C88.7218 91.4423 88.1788 91.1262 87.5281 91.0301ZM79.5569 94.6417L82.3073 99.7886L84.2571 98.7466L84.7922 99.7479L79.8034 102.414L79.2683 101.413L81.2182 100.371L78.4678 95.2237L79.5569 94.6417ZM75.3098 96.7035L77.269 103.393L76.103 103.735L75.3977 101.327L73.859 101.777C73.0944 102.001 72.4319 101.994 71.8713 101.757C71.3062 101.529 70.9266 101.083 70.7326 100.42C70.5348 99.7448 70.6042 99.1434 70.9409 98.6159C71.2795 98.0948 71.8374 97.7204 72.6147 97.4927L75.3098 96.7035ZM74.4517 98.0962L72.9417 98.5384C72.5021 98.6672 72.1924 98.8616 72.0126 99.1218C71.8283 99.3902 71.7912 99.7124 71.9013 100.088C72.0021 100.432 72.1996 100.658 72.494 100.766C72.7902 100.879 73.1613 100.871 73.6073 100.741L75.0982 100.304L74.4517 98.0962ZM69.2984 98.4639L71.2575 105.154L70.0916 105.495L68.1324 98.8054L69.2984 98.4639Z" fill="#5E524E"/>
<defs>
<filter id="filter0_g_2294_6186" x="5.36677" y="5.36226" width="110.309" height="110.309" filterUnits="userSpaceOnUse" color-interpolation-filters="sRGB">
<feFlood flood-opacity="0" result="BackgroundImageFix"/>
<feBlend mode="normal" in="SourceGraphic" in2="BackgroundImageFix" result="shape"/>
<feTurbulence type="fractalNoise" baseFrequency="0.65270936489105225 0.65270936489105225" numOctaves="3" seed="9727" />
<feDisplacementMap in="shape" scale="1.5320755243301392" xChannelSelector="R" yChannelSelector="G" result="displacedImage" width="100%" height="100%" />
<feMerge result="effect1_texture_2294_6186">
<feMergeNode in="displacedImage"/>
</feMerge>
</filter>
<filter id="filter1_g_2294_6186" x="0.00544661" y="1.44839e-05" width="121.034" height="121.034" filterUnits="userSpaceOnUse" color-interpolation-filters="sRGB">
<feFlood flood-opacity="0" result="BackgroundImageFix"/>
<feBlend mode="normal" in="SourceGraphic" in2="BackgroundImageFix" result="shape"/>
<feTurbulence type="fractalNoise" baseFrequency="0.65270936489105225 0.65270936489105225" numOctaves="3" seed="9727" />
<feDisplacementMap in="shape" scale="1.5320755243301392" xChannelSelector="R" yChannelSelector="G" result="displacedImage" width="100%" height="100%" />
<feMerge result="effect1_texture_2294_6186">
<feMergeNode in="displacedImage"/>
</feMerge>
</filter>
</defs>
</svg>
