<svg width="158" height="158" viewBox="0 0 158 158" fill="none" xmlns="http://www.w3.org/2000/svg">
<path d="M52.9789 108.652L46.2521 100.668L44.9236 102.611L43.4059 101.536L45.2979 98.5299L46.4817 97.5325L54.6583 107.237L52.9789 108.652ZM59.8285 103.163C58.6998 104.114 57.3472 104.595 55.7708 104.605L55.6029 102.534C56.829 102.537 57.8183 102.221 58.5709 101.587C59.2683 100.999 59.5916 100.256 59.5406 99.3576C59.4819 98.4499 59.0836 97.5302 58.3457 96.5985C58.3489 97.7569 57.8824 98.7305 56.9464 99.5192C55.9186 100.385 54.8568 100.801 53.7611 100.767C52.6654 100.733 51.7233 100.248 50.9346 99.312C50.1305 98.3576 49.7966 97.2816 49.933 96.0839C50.0695 94.8863 50.6653 93.8429 51.7207 92.9537C52.8219 92.0259 53.9982 91.6154 55.2494 91.7223C56.6867 91.8452 58.1167 92.7509 59.5394 94.4394C60.8615 96.0087 61.5569 97.5883 61.6254 99.1781C61.7031 100.76 61.1041 102.089 59.8285 103.163ZM54.162 98.617C54.7906 98.6366 55.4031 98.3951 55.9996 97.8926C56.5961 97.39 56.9257 96.822 56.9883 96.1887C57.0601 95.5476 56.8873 94.9792 56.4697 94.4837C56.0367 93.9698 55.4975 93.7023 54.8521 93.6812C54.1989 93.6509 53.5695 93.8909 52.9638 94.4012C52.3765 94.8961 52.0554 95.4648 52.0005 96.1073C51.947 96.7329 52.1407 97.3073 52.5814 97.8304C53.0066 98.3351 53.5335 98.5973 54.162 98.617ZM64.7342 98.7478L63.6092 97.4125L64.5491 91.7955C64.7488 90.6544 64.8225 89.792 64.7702 89.2085C64.7193 88.608 64.516 88.0967 64.1603 87.6745C63.7737 87.2157 63.3215 86.9769 62.8036 86.9582C62.278 86.9303 61.7903 87.1058 61.3407 87.4847C60.9185 87.8403 60.6343 88.2759 60.4881 88.7914C60.351 89.2992 60.2978 89.9717 60.3284 90.8089L58.3422 90.8819C58.2501 89.7669 58.3303 88.8284 58.5828 88.0665C58.8367 87.2877 59.372 86.5542 60.1888 85.8661C61.134 85.0697 62.1245 84.6902 63.1603 84.7276C64.1961 84.765 65.0812 85.2197 65.8158 86.0915C66.1328 86.4677 66.373 86.8459 66.5364 87.2261C66.692 87.5971 66.782 88.0391 66.8063 88.5521C66.832 89.0483 66.8155 89.5408 66.7566 90.0297C66.6993 90.5017 66.5982 91.1361 66.4535 91.9327L65.863 95.2547L70.4469 91.3926L71.6995 92.8792L64.7342 98.7478ZM73.5479 91.3219L71.0043 79.531L66.1589 83.6134L64.9063 82.1268L71.6789 76.4206L72.7575 77.7008L75.4476 89.7213L73.5479 91.3219ZM77.5536 82.1332L76.1735 80.4952L80.248 77.0622L81.6282 78.7003L77.5536 82.1332ZM86.8871 80.0831L80.1603 72.0991L78.8318 74.0423L77.3141 72.9673L79.2061 69.9609L80.3899 68.9635L88.5665 78.6681L86.8871 80.0831ZM93.7367 74.5945C92.6079 75.5455 91.2554 76.026 89.679 76.0361L89.5111 73.9651C90.7372 73.9677 91.7265 73.652 92.479 73.0179C93.1765 72.4303 93.4997 71.6872 93.4488 70.7887C93.3901 69.8809 92.9918 68.9612 92.2539 68.0295C92.257 69.188 91.7906 70.1615 90.8546 70.9502C89.8267 71.8162 88.765 72.2322 87.6693 72.1981C86.5736 72.1641 85.6315 71.6791 84.8428 70.743C84.0387 69.7886 83.7048 68.7126 83.8412 67.515C83.9776 66.3173 84.5735 65.2739 85.6289 64.3847C86.7301 63.4569 87.9064 63.0464 89.1576 63.1534C90.5949 63.2762 92.0249 64.1819 93.4475 65.8704C94.7697 67.4397 95.465 69.0193 95.5336 70.6091C95.6113 72.1913 95.0123 73.5197 93.7367 74.5945ZM88.0702 70.048C88.6987 70.0676 89.3113 69.8262 89.9078 69.3236C90.5043 68.821 90.8338 68.253 90.8965 67.6197C90.9683 66.9786 90.7954 66.4103 90.3779 65.9147C89.9449 65.4008 89.4057 65.1333 88.7603 65.1122C88.1071 65.0819 87.4777 65.322 86.872 65.8323C86.2847 66.3271 85.9636 66.8958 85.9087 67.5383C85.8552 68.164 86.0488 68.7383 86.4896 69.2614C86.9148 69.7661 87.4417 70.0283 88.0702 70.048ZM102.88 66.8905C101.77 67.8261 100.598 68.2411 99.3633 68.1357C98.6362 68.0735 97.932 67.843 97.2507 67.4442C96.5709 67.0284 95.8367 66.3525 95.048 65.4164C93.7568 63.8839 93.0554 62.3251 92.9439 60.74C92.8415 59.1473 93.4465 57.7981 94.7588 56.6924C95.8325 55.7878 97.116 55.3183 98.6093 55.2841L98.8025 57.3573C97.6059 57.4083 96.6726 57.7161 96.0027 58.2805C95.3053 58.8681 94.9943 59.6165 95.0699 60.5257C95.147 61.418 95.5453 62.3377 96.2649 63.2849C96.3844 62.0858 96.88 61.119 97.7518 60.3845C98.7246 59.5649 99.7595 59.1636 100.857 59.1807C101.955 59.181 102.903 59.6537 103.699 60.5989C104.496 61.5441 104.812 62.6187 104.65 63.8226C104.489 65.0097 103.899 66.0323 102.88 66.8905ZM101.61 65.4662C102.197 64.9713 102.526 64.4118 102.596 63.7876C102.667 63.1635 102.481 62.5898 102.041 62.0667C101.631 61.5804 101.111 61.3358 100.481 61.3331C99.8526 61.3134 99.2447 61.551 98.6574 62.0459C98.07 62.5407 97.7366 63.1041 97.657 63.736C97.5775 64.3679 97.7426 64.9271 98.1524 65.4134C98.5699 65.909 99.1014 66.1673 99.7468 66.1884C100.392 66.2095 101.013 65.9688 101.61 65.4662ZM112.394 58.5923L110.573 56.4311L105.714 60.5252L104.377 59.5806L104.397 48.7369L105.842 47.5191L111.026 53.6723L112.403 52.5125L113.574 53.9028L112.198 55.0626L114.019 57.2237L112.394 58.5923ZM106.236 57.7083L109.402 55.0408L106.189 51.2278L106.236 57.7083Z" fill="#5E524E"/>
<g filter="url(#filter0_g_2281_2661)">
<circle cx="79" cy="79" r="70.5" stroke="#5E524E"/>
</g>
<g filter="url(#filter1_g_2281_2661)">
<circle cx="79" cy="79" r="77" stroke="#5E524E" stroke-width="2"/>
</g>
<path d="M35.1378 55.5397L27.3759 50.7897L30.572 45.567L31.8028 46.3203L29.4346 50.1901L35.9657 54.187L35.1378 55.5397ZM43.6285 42.513C43.7066 43.7976 43.2839 44.9514 42.3606 45.9743C41.4373 46.9972 40.3388 47.5351 39.0652 47.5881C37.7915 47.641 36.6658 47.2261 35.6879 46.3434C34.7229 45.4724 34.2013 44.3945 34.1233 43.1099C34.0453 41.8253 34.4679 40.6715 35.3913 39.6486C36.3146 38.6257 37.413 38.0877 38.6867 38.0348C39.9603 37.9819 41.0861 38.3968 42.064 39.2795C43.029 40.1505 43.5505 41.2283 43.6285 42.513ZM39.1032 45.9937C39.9613 45.9744 40.6894 45.6334 41.2875 44.9707C41.8857 44.3081 42.1448 43.5554 42.0648 42.7127C41.9907 41.8635 41.6158 41.1341 40.9403 40.5243C40.2712 39.9204 39.5076 39.6281 38.6496 39.6475C37.7908 39.6546 37.0624 39.9895 36.4643 40.6522C35.8662 41.3148 35.6042 42.0707 35.6783 42.9199C35.7583 43.7626 36.136 44.4888 36.8115 45.0985C37.4806 45.7025 38.2445 46.0009 39.1032 45.9937ZM47.1897 43.2794L45.1995 40.5475L45.914 40.027C45.6392 38.3399 44.6981 36.3932 43.0905 34.1866L42.3327 33.1464L47.4602 29.4108L51.9766 35.6101L52.8908 34.9441L54.7024 37.8061L53.6307 38.5869L52.4824 37.0108L47.3024 40.7847L48.3245 42.4527L47.1897 43.2794ZM47.2904 39.0242L50.6842 36.5516L47.0175 31.5187L44.4222 33.4094L45.0346 34.25C46.2849 35.9662 47.0369 37.5576 47.2904 39.0242ZM54.9985 35.4906L51.3555 27.1516L52.8088 26.5167L54.1203 29.5187L56.0383 28.6808C56.9913 28.2644 57.8504 28.1634 58.6155 28.3777C59.385 28.5806 59.9502 29.095 60.3111 29.921C60.6788 30.7628 60.6884 31.5531 60.3396 32.2918C59.9874 33.0226 59.3268 33.5997 58.3579 34.0229L54.9985 35.4906ZM55.8794 33.5452L57.7616 32.7229C58.3096 32.4835 58.6784 32.1805 58.8682 31.8139C59.0624 31.4359 59.0572 31.0126 58.8525 30.544C58.6652 30.1151 58.372 29.8554 57.9731 29.7649C57.5707 29.6664 57.0915 29.7386 56.5356 29.9815L54.6772 30.7934L55.8794 33.5452ZM62.4916 32.2171L58.8486 23.8781L60.302 23.2432L63.945 31.5821L62.4916 32.2171ZM128.411 91.7063L137.087 94.4497L136.005 97.8708C135.687 98.8789 135.169 99.5969 134.452 100.025C133.735 100.452 132.93 100.525 132.038 100.243C131.104 99.9477 130.481 99.3872 130.17 98.5616C129.855 97.7441 129.856 96.8355 130.173 95.8356L130.717 94.1127L127.928 93.2309L128.411 91.7063ZM132.093 94.5477L131.533 96.3202C131.353 96.8904 131.353 97.3906 131.536 97.8209C131.718 98.2511 132.044 98.5407 132.515 98.6897C133.011 98.8464 133.445 98.7972 133.816 98.542C134.193 98.2977 134.473 97.8863 134.656 97.3079L135.217 95.5354L132.093 94.5477ZM125.963 99.2022L132.122 107.083L131.417 108.386L121.451 107.551L122.254 106.064L124.626 106.297L126.672 102.511L125.184 100.643L125.963 99.2022ZM127.64 103.7L126.151 106.456L130.101 106.803L127.64 103.7ZM120.53 108.781L127.555 114.566L123.241 119.805L122.127 118.887L125.432 114.873L123.817 113.543L122.205 115.5C121.561 116.282 120.864 116.747 120.114 116.893C119.36 117.046 118.648 116.848 117.979 116.297C117.283 115.724 116.938 115.052 116.943 114.282C116.949 113.512 117.288 112.719 117.96 111.902L120.53 108.781ZM120.625 110.915L119.287 112.541C118.824 113.103 118.563 113.583 118.503 113.983C118.45 114.389 118.631 114.762 119.045 115.104C119.734 115.671 120.47 115.48 121.252 114.53L122.773 112.683L120.625 110.915ZM109.25 121.57C109.371 120.289 109.966 119.214 111.036 118.346C112.106 117.477 113.275 117.115 114.541 117.259C115.808 117.403 116.856 117.987 117.686 119.01C118.505 120.019 118.854 121.164 118.734 122.446C118.613 123.727 118.017 124.802 116.947 125.67C115.877 126.538 114.709 126.901 113.442 126.756C112.176 126.612 111.127 126.029 110.297 125.006C109.478 123.997 109.129 122.851 109.25 121.57ZM114.258 118.828C113.407 118.715 112.635 118.94 111.942 119.503C111.249 120.065 110.877 120.769 110.826 121.614C110.768 122.464 111.026 123.243 111.599 123.949C112.167 124.649 112.877 125.056 113.728 125.169C114.577 125.294 115.348 125.076 116.042 124.513C116.735 123.951 117.11 123.244 117.168 122.394C117.219 121.549 116.957 120.773 116.384 120.066C115.816 119.366 115.107 118.954 114.258 118.828ZM103.853 123.544L107.444 130.263L109.989 128.902L110.687 130.209L104.175 133.69L103.477 132.383L106.022 131.023L102.431 124.304L103.853 123.544ZM98.3086 126.236L100.867 134.969L99.3451 135.415L98.424 132.271L96.4155 132.86C95.4174 133.152 94.5525 133.144 93.8206 132.834C93.0829 132.536 92.5873 131.954 92.3339 131.089C92.0756 130.207 92.1662 129.422 92.6057 128.733C93.0475 128.053 93.7758 127.564 94.7905 127.267L98.3086 126.236ZM97.1886 128.055L95.2175 128.632C94.6436 128.8 94.2394 129.054 94.0047 129.394C93.7642 129.744 93.7158 130.165 93.8596 130.655C93.9912 131.105 94.2491 131.399 94.6334 131.54C95.0201 131.688 95.5046 131.677 96.0867 131.507L98.0329 130.936L97.1886 128.055ZM90.4615 128.535L93.02 137.268L91.4979 137.714L88.9394 128.981L90.4615 128.535Z" fill="#5E524E"/>
<defs>
<filter id="filter0_g_2281_2661" x="7" y="7" width="144" height="144" filterUnits="userSpaceOnUse" color-interpolation-filters="sRGB">
<feFlood flood-opacity="0" result="BackgroundImageFix"/>
<feBlend mode="normal" in="SourceGraphic" in2="BackgroundImageFix" result="shape"/>
<feTurbulence type="fractalNoise" baseFrequency="0.5 0.5" numOctaves="3" seed="9727" />
<feDisplacementMap in="shape" scale="2" xChannelSelector="R" yChannelSelector="G" result="displacedImage" width="100%" height="100%" />
<feMerge result="effect1_texture_2281_2661">
<feMergeNode in="displacedImage"/>
</feMerge>
</filter>
<filter id="filter1_g_2281_2661" x="0" y="0" width="158" height="158" filterUnits="userSpaceOnUse" color-interpolation-filters="sRGB">
<feFlood flood-opacity="0" result="BackgroundImageFix"/>
<feBlend mode="normal" in="SourceGraphic" in2="BackgroundImageFix" result="shape"/>
<feTurbulence type="fractalNoise" baseFrequency="0.5 0.5" numOctaves="3" seed="9727" />
<feDisplacementMap in="shape" scale="2" xChannelSelector="R" yChannelSelector="G" result="displacedImage" width="100%" height="100%" />
<feMerge result="effect1_texture_2281_2661">
<feMergeNode in="displacedImage"/>
</feMerge>
</filter>
</defs>
</svg>
