<svg width="130" height="130" viewBox="0 0 130 130" fill="none" xmlns="http://www.w3.org/2000/svg">
<path d="M39.1279 92.7927L38.2036 91.6956L38.9759 87.0803C39.14 86.1427 39.2005 85.4341 39.1575 84.9546C39.1157 84.4613 38.9487 84.0411 38.6565 83.6943C38.3388 83.3173 37.9672 83.1211 37.5417 83.1057C37.1098 83.0828 36.7091 83.227 36.3397 83.5383C35.9928 83.8305 35.7593 84.1884 35.6391 84.612C35.5265 85.0292 35.4828 85.5818 35.508 86.2697L33.8759 86.3296C33.8003 85.4135 33.8662 84.6424 34.0736 84.0164C34.2823 83.3764 34.7221 82.7738 35.3932 82.2084C36.1699 81.554 36.9837 81.2422 37.8348 81.2729C38.6858 81.3037 39.4131 81.6772 40.0166 82.3935C40.2771 82.7027 40.4745 83.0135 40.6087 83.3258C40.7366 83.6306 40.8105 83.9938 40.8305 84.4154C40.8516 84.823 40.838 85.2277 40.7897 85.6294C40.7426 86.0173 40.6596 86.5385 40.5406 87.1931L40.0555 89.9226L43.8219 86.7492L44.851 87.9708L39.1279 92.7927ZM49.3684 84.3968C48.3429 85.2608 47.1863 85.5713 45.8985 85.3283C44.6044 85.0778 43.465 84.3682 42.4803 83.1994C41.5083 82.0457 41.0124 80.8068 40.9926 79.4826C40.974 78.1445 41.4737 77.0466 42.4916 76.189C43.5095 75.3313 44.6656 75.0278 45.9597 75.2783C47.2613 75.5225 48.4013 76.2252 49.3797 77.3864C50.3517 78.5401 50.847 79.786 50.8656 81.124C50.8854 82.4482 50.3863 83.5392 49.3684 84.3968ZM46.1767 83.5468C47.0111 83.772 47.73 83.6305 48.3332 83.1223C48.9364 82.6141 49.1935 81.9398 49.1043 81.0995C49.0164 80.2453 48.6294 79.411 47.9432 78.5967C47.2698 77.7974 46.5159 77.2851 45.6815 77.0599C44.8407 76.8271 44.1224 76.9616 43.5268 77.4635C42.9235 77.9718 42.6659 78.653 42.7538 79.5072C42.843 80.3475 43.2306 81.1748 43.9167 81.9892C44.5901 82.7884 45.3435 83.3076 46.1767 83.5468ZM53.46 80.7174L52.5356 79.6203L53.3079 75.005C53.472 74.0674 53.5325 73.3588 53.4896 72.8793C53.4478 72.3859 53.2807 71.9658 52.9885 71.619C52.6708 71.242 52.2993 71.0458 51.8737 71.0304C51.4418 71.0075 51.0412 71.1517 50.6717 71.463C50.3248 71.7552 50.0913 72.1131 49.9712 72.5367C49.8585 72.9539 49.8148 73.5064 49.84 74.1943L48.208 74.2543C48.1323 73.3382 48.1982 72.5671 48.4057 71.9411C48.6143 71.3011 49.0542 70.6985 49.7252 70.133C50.5019 69.4787 51.3157 69.1669 52.1668 69.1976C53.0179 69.2284 53.7452 69.6019 54.3487 70.3182C54.6092 70.6274 54.8065 70.9381 54.9408 71.2505C55.0687 71.5553 55.1426 71.9185 55.1625 72.3401C55.1837 72.7477 55.1701 73.1524 55.1218 73.5541C55.0746 73.9419 54.9916 74.4632 54.8727 75.1177L54.3875 77.8473L58.1539 74.6739L59.1831 75.8955L53.46 80.7174ZM63.1349 72.798C61.8756 73.8589 60.4745 74.2465 58.9315 73.9607L59.1419 72.2363C60.3145 72.4345 61.3004 72.1969 62.0997 71.5235C62.4994 71.1868 62.7352 70.8011 62.8074 70.3664C62.8732 69.9242 62.7504 69.5183 62.4391 69.1489C62.1151 68.7643 61.6983 68.6062 61.1886 68.6746C60.6801 68.7292 60.1469 68.9915 59.5889 69.4616L58.9442 70.0048L57.9842 69.3245L58.2065 65.25L54.7794 68.1374L53.7598 66.9272L58.9965 62.515L59.8732 63.5556L59.5736 67.6759C60.3499 67.1895 61.1086 66.9499 61.8497 66.9573C62.5844 66.9571 63.2345 67.2926 63.7999 67.9636C64.4162 68.6951 64.6611 69.5137 64.5347 70.4196C64.4158 71.3191 63.9492 72.1119 63.1349 72.798ZM64.435 66.6937L63.301 65.3477L66.6489 62.527L67.7829 63.873L64.435 66.6937ZM70.9872 65.95L70.0629 64.8529L70.8351 60.2376C70.9992 59.3 71.0598 58.5914 71.0168 58.1119C70.975 57.6185 70.808 57.1984 70.5157 56.8516C70.1981 56.4746 69.8265 56.2784 69.401 56.263C68.9691 56.2401 68.5684 56.3843 68.1989 56.6956C67.8521 56.9878 67.6186 57.3457 67.4984 57.7693C67.3858 58.1865 67.3421 58.739 67.3672 59.4269L65.7352 59.4869C65.6596 58.5708 65.7255 57.7997 65.9329 57.1737C66.1415 56.5337 66.5814 55.9311 67.2525 55.3656C68.0291 54.7113 68.843 54.3995 69.6941 54.4302C70.5451 54.461 71.2724 54.8345 71.8759 55.5508C72.1364 55.86 72.3338 56.1707 72.468 56.4831C72.5959 56.7879 72.6698 57.1511 72.6898 57.5727C72.7109 57.9803 72.6973 58.385 72.649 58.7867C72.6019 59.1745 72.5188 59.6958 72.3999 60.3503L71.9148 63.0799L75.6811 59.9065L76.7103 61.1281L70.9872 65.95ZM81.2276 57.5541C80.2022 58.4181 79.0455 58.7286 77.7578 58.4856C76.4637 58.2351 75.3243 57.5255 74.3396 56.3567C73.3676 55.203 72.8717 53.9641 72.8519 52.6399C72.8333 51.3018 73.333 50.2039 74.3509 49.3463C75.3688 48.4886 76.5249 48.1851 77.819 48.4356C79.1206 48.6798 80.2606 49.3825 81.239 50.5437C82.211 51.6974 82.7063 52.9432 82.7249 54.2813C82.7447 55.6055 82.2456 56.6965 81.2276 57.5541ZM78.036 56.7041C78.8704 56.9293 79.5893 56.7878 80.1925 56.2796C80.7957 55.7714 81.0528 55.0971 80.9636 54.2568C80.8757 53.4026 80.4887 52.5683 79.8025 51.7539C79.1291 50.9547 78.3752 50.4424 77.5408 50.2172C76.7 49.9844 75.9817 50.1189 75.3861 50.6208C74.7828 51.129 74.5252 51.8103 74.6131 52.6645C74.7023 53.5048 75.0899 54.3321 75.776 55.1465C76.4494 55.9457 77.2028 56.4649 78.036 56.7041ZM85.3193 53.8747L84.3949 52.7776L85.1672 48.1623C85.3313 47.2247 85.3918 46.5161 85.3488 46.0366C85.307 45.5432 85.14 45.1231 84.8478 44.7763C84.5301 44.3992 84.1585 44.2031 83.733 44.1877C83.3011 44.1648 82.9005 44.309 82.531 44.6203C82.1841 44.9125 81.9506 45.2704 81.8305 45.694C81.7178 46.1112 81.6741 46.6637 81.6993 47.3516L80.0673 47.4116C79.9916 46.4955 80.0575 45.7244 80.265 45.0984C80.4736 44.4584 80.9134 43.8558 81.5845 43.2903C82.3612 42.636 83.175 42.3242 84.0261 42.3549C84.8771 42.3857 85.6044 42.7592 86.208 43.4755C86.4685 43.7847 86.6658 44.0954 86.8001 44.4078C86.9279 44.7126 87.0019 45.0758 87.0218 45.4974C87.043 45.905 87.0294 46.3097 86.9811 46.7114C86.9339 47.0992 86.8509 47.6204 86.732 48.275L86.2468 51.0045L90.0132 47.8312L91.0424 49.0527L85.3193 53.8747ZM95.8013 45.0432L94.3051 43.2675L90.3125 46.6314L89.2138 45.8552L89.23 36.9454L90.4176 35.9448L94.6773 41.0006L95.8083 40.0477L96.7708 41.19L95.6398 42.143L97.1359 43.9187L95.8013 45.0432ZM90.7412 44.3169L93.3426 42.1251L90.703 38.9921L90.7412 44.3169Z" fill="#9B8C87"/>
<g filter="url(#filter0_g_2294_5614)">
<circle cx="64.9118" cy="64.9108" r="57.9268" stroke="#9B8C87" stroke-width="0.821656"/>
</g>
<g filter="url(#filter1_g_2294_5614)">
<circle cx="64.9114" cy="64.9108" r="63.2675" stroke="#9B8C87" stroke-width="1.64331"/>
</g>
<path d="M26.2236 51.8045L17.2725 47.8147L19.0621 43.7995C19.5219 42.768 20.1339 42.1058 20.898 41.8128C21.4772 41.5908 22.0695 41.6146 22.6748 41.8844C23.5614 42.2796 24.0363 43.0022 24.0996 44.0523C25.0285 43.0459 26.0257 42.7802 27.0913 43.2552C27.8756 43.6047 28.3478 44.1729 28.5081 44.9596C28.6684 45.7463 28.5224 46.6469 28.0702 47.6614L26.2236 51.8045ZM21.7344 47.9489L22.6919 45.8006C22.9237 45.2806 23.0038 44.8258 22.9322 44.4362C22.8558 44.0343 22.6131 43.7422 22.2039 43.5598C21.8458 43.4002 21.508 43.4131 21.1903 43.5985C20.8641 43.7801 20.589 44.1224 20.3648 44.6254L19.3559 46.8887L21.7344 47.9489ZM25.5194 49.6359L26.6821 47.0273C26.9253 46.4818 27.0068 46.0123 26.9267 45.6189C26.8504 45.217 26.6076 44.9249 26.1984 44.7425C25.3971 44.3853 24.7228 44.8205 24.1757 46.0481L23.0642 48.5416L25.5194 49.6359ZM30.4009 43.1235L22.5667 37.2358L26.932 31.4273L28.1631 32.3525L24.8324 36.7844L26.8693 38.3152L29.8215 34.3869L31.0526 35.3121L28.1003 39.2404L30.2044 40.8217L33.5772 36.3338L34.8083 37.259L30.4009 43.1235ZM35.4112 36.6497L34.9268 30.5382L29.1999 29.0682L30.7516 27.7594L34.8793 28.875L34.4866 24.6093L35.9955 23.3366L36.4712 29.199L42.4209 30.7376L40.8691 32.0464L36.508 30.8712L36.9201 35.3771L35.4112 36.6497ZM43.6027 30.1351L39.2594 21.3501L40.778 20.5993L43.9485 27.0124L45.2207 18.4029L46.6639 17.6893L51.0072 26.4743L49.4886 27.2251L46.3242 20.8246L45.0585 29.4153L43.6027 30.1351ZM103.803 80.2186L111.412 83.2848L112.574 80.402L114.054 80.9985L111.082 88.3742L109.602 87.7777L110.764 84.895L103.154 81.8288L103.803 80.2186ZM101.233 85.872L109.322 91.4036L107.141 94.5932C106.499 95.5332 105.741 96.1119 104.869 96.3295C103.996 96.547 103.144 96.3713 102.312 95.8023C101.441 95.207 100.974 94.4353 100.91 93.487C100.841 92.5465 101.125 91.6101 101.763 90.6779L102.861 89.0715L100.261 87.2935L101.233 85.872ZM104.144 89.9487L103.014 91.6012C102.65 92.1329 102.495 92.6488 102.549 93.149C102.603 93.6493 102.849 94.0496 103.288 94.3499C103.75 94.666 104.213 94.7504 104.675 94.6031C105.14 94.4687 105.557 94.1319 105.926 93.5926L107.056 91.94L104.144 89.9487ZM94.6459 94.0879C95.1379 93.6302 95.7172 93.3143 96.3839 93.1402L96.7795 94.5314C96.3731 94.629 96.0093 94.8272 95.6882 95.126C95.2577 95.5265 95.1234 96.1359 95.2854 96.954L103.333 99.602L101.918 100.918L95.8024 98.8251L97.7155 104.828L96.3523 106.096L93.9343 97.8859C93.4452 96.2503 93.6824 94.9843 94.6459 94.0879ZM88.5909 97.1015L90.3561 100.285L89.5235 100.747C89.5937 102.586 90.3417 104.791 91.7674 107.362L92.4396 108.574L86.4647 111.888L82.459 104.664L81.3938 105.255L79.8367 101.956L81.0856 101.263L82.104 103.1L88.14 99.7528L87.2686 97.8348L88.5909 97.1015ZM87.9196 101.636L83.965 103.829L87.2171 109.694L90.2412 108.017L89.6981 107.037C88.5891 105.037 87.9963 103.237 87.9196 101.636ZM80.3897 103.931L78.6946 114.567L77.1498 114.968L70.4972 106.497L72.2589 106.04L73.8152 108.081L78.3007 106.917L78.6822 104.374L80.3897 103.931ZM78.0741 108.552L74.8083 109.4L77.4324 112.769L78.0741 108.552Z" fill="#9B8C87"/>
<defs>
<filter id="filter0_g_2294_5614" x="5.75256" y="5.75159" width="118.319" height="118.318" filterUnits="userSpaceOnUse" color-interpolation-filters="sRGB">
<feFlood flood-opacity="0" result="BackgroundImageFix"/>
<feBlend mode="normal" in="SourceGraphic" in2="BackgroundImageFix" result="shape"/>
<feTurbulence type="fractalNoise" baseFrequency="0.60852712392807007 0.60852712392807007" numOctaves="3" seed="9727" />
<feDisplacementMap in="shape" scale="1.6433120965957642" xChannelSelector="R" yChannelSelector="G" result="displacedImage" width="100%" height="100%" />
<feMerge result="effect1_texture_2294_5614">
<feMergeNode in="displacedImage"/>
</feMerge>
</filter>
<filter id="filter1_g_2294_5614" x="0.000609577" y="-7.7486e-07" width="129.821" height="129.822" filterUnits="userSpaceOnUse" color-interpolation-filters="sRGB">
<feFlood flood-opacity="0" result="BackgroundImageFix"/>
<feBlend mode="normal" in="SourceGraphic" in2="BackgroundImageFix" result="shape"/>
<feTurbulence type="fractalNoise" baseFrequency="0.60852712392807007 0.60852712392807007" numOctaves="3" seed="9727" />
<feDisplacementMap in="shape" scale="1.6433120965957642" xChannelSelector="R" yChannelSelector="G" result="displacedImage" width="100%" height="100%" />
<feMerge result="effect1_texture_2294_5614">
<feMergeNode in="displacedImage"/>
</feMerge>
</filter>
</defs>
</svg>
