<svg width="158" height="157" viewBox="0 0 158 157" fill="none" xmlns="http://www.w3.org/2000/svg">
<path d="M55.9431 80.0368L52.4904 67.1514L49.8995 68.679L48.7266 66.6122L52.5461 64.1601L54.4567 63.6481L58.6535 79.3106L55.9431 80.0368ZM67.0668 77.342C65.245 77.8301 63.4195 77.6525 61.5903 76.8093L62.5192 74.3221C63.9364 74.9901 65.2522 75.1613 66.4667 74.8359C67.5923 74.5343 68.3693 73.8499 68.7977 72.7826C69.2221 71.7006 69.2601 70.4205 68.9116 68.9423C68.287 70.2843 67.2194 71.1578 65.7087 71.5626C64.0499 72.007 62.5958 71.9125 61.3466 71.2789C60.0974 70.6453 59.2704 69.5731 58.8656 68.0624C58.4529 66.5221 58.6502 65.0961 59.4575 63.7844C60.2649 62.4728 61.5202 61.5888 63.2235 61.1324C65.0008 60.6562 66.5843 60.8192 67.9739 61.6215C69.5702 62.5431 70.7334 64.3665 71.4636 67.0917C72.1423 69.6244 72.0901 71.829 71.3071 73.7056C70.5389 75.5782 69.1255 76.7904 67.0668 77.342ZM62.9766 69.0087C63.6931 69.3723 64.5327 69.4251 65.4954 69.1671C66.4581 68.9092 67.1475 68.4308 67.5635 67.732C67.9942 67.0292 68.1025 66.2779 67.8882 65.4781C67.6659 64.6487 67.1872 64.0468 66.4519 63.6724C65.7126 63.2831 64.8542 63.2194 63.8767 63.4814C62.9288 63.7353 62.2488 64.2192 61.8368 64.9328C61.4357 65.6276 61.3482 66.3971 61.5744 67.2414C61.7927 68.056 62.2601 68.6451 62.9766 69.0087ZM81.313 73.5247C79.1358 74.1081 77.0203 73.8257 74.9664 72.6775L76.1251 70.2478C77.7914 71.1347 79.2911 71.3996 80.624 71.0425C81.5571 70.7924 82.2396 70.3477 82.6714 69.7081C83.0993 69.0537 83.2021 68.3118 82.9799 67.4824C82.7696 66.6974 82.2993 66.1567 81.569 65.8603C80.8496 65.5451 80.0159 65.5145 79.068 65.7685C78.1349 66.0185 77.2411 66.504 76.3866 67.2251L74.451 66.577L72.8535 58.8378L82.1399 56.3495L82.7887 58.7711L75.8572 60.6283L76.5891 64.3373C77.3244 63.8228 78.1067 63.4544 78.9361 63.2322C80.5208 62.8076 81.9299 62.8824 83.1632 63.4568C84.3966 64.0311 85.2276 65.1181 85.6562 66.7177C86.0808 68.3024 85.8889 69.7191 85.0805 70.9675C84.2869 72.212 83.031 73.0644 81.313 73.5247ZM95.9551 69.6014C93.9408 70.1411 92.1072 69.8149 90.4543 68.6227C88.7975 67.4158 87.6615 65.6644 87.0464 63.3688C86.4392 61.1027 86.5587 59.0308 87.4049 57.1532C88.2619 55.2567 89.6902 54.0407 91.6896 53.5049C93.6891 52.9691 95.5173 53.3047 97.1741 54.5117C98.8458 55.7147 99.9872 57.4567 100.598 59.7375C101.206 62.0036 101.081 64.0848 100.224 65.9813C99.3774 67.8589 97.9545 69.0656 95.9551 69.6014ZM92.022 66.2978C93.0483 67.1657 94.1539 67.441 95.3387 67.1235C96.5236 66.806 97.3306 66.0262 97.7598 64.7842C98.1998 63.5233 98.2055 62.0931 97.7769 60.4935C97.3562 58.9236 96.6327 57.7046 95.6064 56.8367C94.5762 55.9539 93.476 55.6693 92.306 55.9828C91.1211 56.3003 90.3087 57.0895 89.8687 58.3503C89.4395 59.5924 89.4393 61.0132 89.8679 62.6128C90.2885 64.1827 91.0066 65.411 92.022 66.2978ZM61.349 100.329L57.182 84.7777L67.6458 81.9739L68.3066 84.44L60.5531 86.5175L64.0593 99.6029L61.349 100.329ZM86.7991 91.2715C85.6794 93.2542 83.9421 94.561 81.5872 95.192C79.2323 95.823 77.0837 95.5654 75.1415 94.419C73.1993 93.2726 71.9266 91.5738 71.3233 89.3225C70.7281 87.1009 70.9903 84.9987 72.1099 83.0161C73.2296 81.0334 74.9669 79.7265 77.3218 79.0955C79.6767 78.4645 81.8253 78.7222 83.7675 79.8686C85.7097 81.015 86.9825 82.7138 87.5857 84.9651C88.181 87.1867 87.9188 89.2888 86.7991 91.2715ZM76.7314 92.0881C78.0243 92.8846 79.4335 93.0785 80.959 92.6697C82.4845 92.2609 83.5932 91.3924 84.2849 90.0641C84.9915 88.7318 85.1365 87.2881 84.7198 85.733C84.307 84.1926 83.4542 83.0242 82.1614 82.2277C80.8793 81.4124 79.4756 81.2091 77.95 81.6179C76.4245 82.0267 75.3085 82.8972 74.6019 84.2294C73.9101 85.5578 73.7726 86.9995 74.1893 88.5546C74.602 90.0949 75.4494 91.2728 76.7314 92.0881ZM91.642 95.7838L90.0943 90.0076L91.605 89.6028C92.2247 86.6429 91.9095 82.8302 90.6594 78.1648L90.0701 75.9654L100.912 73.0604L104.424 86.168L106.357 85.6501L107.527 91.5276L105.261 92.1347L104.368 88.8023L93.415 91.7371L94.0414 95.1409L91.642 95.7838ZM94.5153 88.823L101.691 86.9002L98.8398 76.2586L93.3523 77.729L93.8286 79.5063C94.8009 83.1349 95.0298 86.2405 94.5153 88.823Z" fill="#5E524E"/>
<circle cx="79" cy="78" r="70.5" stroke="#5E524E"/>
<circle cx="79" cy="78" r="77" stroke="#5E524E" stroke-width="2"/>
<path d="M29.8392 87.1069L20.7827 87.9953L20.058 80.6077L29.1145 79.7193L29.2706 81.3107L21.6502 82.0582L22.0627 86.263L29.6831 85.5155L29.8392 87.1069ZM29.1016 77.4043L20.0347 76.6282L20.6101 69.9058L22.0349 70.0277L21.5959 75.157L23.9533 75.3588L24.3424 70.8124L25.7672 70.9344L25.378 75.4807L27.8131 75.6892L28.2577 70.4952L29.6825 70.6171L29.1016 77.4043ZM30.0395 68.772L21.2352 66.4707L22.1426 62.9993C22.41 61.9763 22.8909 61.2331 23.5854 60.7697C24.2798 60.3062 25.0798 60.1929 25.9854 60.4296C26.9329 60.6772 27.5831 61.2055 27.936 62.0144C28.2911 62.8149 28.3361 63.7224 28.0709 64.737L27.6139 66.4852L30.4438 67.2249L30.0395 68.772ZM26.2178 66.1203L26.6879 64.3217C26.8392 63.7432 26.813 63.2437 26.6093 62.8232C26.4057 62.4027 26.065 62.13 25.587 62.005C25.0839 61.8735 24.6533 61.9446 24.2951 62.2183C23.9307 62.4813 23.6718 62.9063 23.5184 63.4933L23.0483 65.2919L26.2178 66.1203ZM32.4318 60.4539L24.1869 56.6026L25.9145 52.9042C26.3584 51.9541 26.9374 51.3493 27.6517 51.0899C28.1931 50.8932 28.7426 50.9251 29.3001 51.1855C30.1167 51.567 30.5458 52.2457 30.5873 53.2217C31.4662 52.3026 32.3964 52.0723 33.3779 52.5308C34.1004 52.8682 34.5295 53.4035 34.6653 54.1366C34.8012 54.8696 34.6509 55.7033 34.2144 56.6378L32.4318 60.4539ZM28.3273 56.8005L29.2516 54.8217C29.4753 54.3427 29.5572 53.9218 29.4971 53.5589C29.4328 53.1846 29.2123 52.9093 28.8354 52.7333C28.5056 52.5792 28.1917 52.5857 27.8937 52.7526C27.5879 52.9158 27.3268 53.2291 27.1103 53.6924L26.1365 55.7771L28.3273 56.8005ZM31.8137 58.429L32.9361 56.0263C33.1708 55.5237 33.2542 55.0892 33.1863 54.7227C33.122 54.3483 32.9014 54.0731 32.5245 53.897C31.7864 53.5522 31.1533 53.9452 30.6251 55.0759L29.5522 57.3727L31.8137 58.429ZM36.6083 52.0952L29.3597 46.5936L30.3186 45.3302L32.9281 47.3108L34.1934 45.6436C34.8222 44.8152 35.5228 44.3079 36.2952 44.1216C37.0659 43.9232 37.8103 44.0965 38.5282 44.6414C39.26 45.1968 39.6539 45.882 39.7099 46.697C39.759 47.5068 39.4639 48.3328 38.8247 49.175L36.6083 52.0952ZM36.4281 49.9673L37.6699 48.3312C38.0314 47.8548 38.2056 47.4104 38.1924 46.9977C38.1775 46.573 37.9663 46.206 37.559 45.8969C37.1863 45.614 36.8037 45.5303 36.4113 45.6459C36.012 45.7563 35.6289 46.0531 35.2621 46.5364L34.0361 48.1518L36.4281 49.9673ZM41.5519 45.5818L34.3033 40.0802L35.2621 38.8168L42.5108 44.3184L41.5519 45.5818ZM41.4288 31.4092C41.3589 31.8893 41.1158 32.306 40.6996 32.6594C40.2833 33.0127 39.8327 33.185 39.3477 33.1761C38.8571 33.1607 38.3931 32.9691 37.9558 32.6013L38.5813 31.8315C39.0883 32.1742 39.5531 32.1661 39.976 31.8071C40.3856 31.4593 40.4691 31.0019 40.2264 30.4349L41.0775 29.951C41.376 30.4365 41.4931 30.9226 41.4288 31.4092ZM44.0888 42.6572L38.1992 35.7201L39.3983 34.7021L43.6977 39.7661L42.9065 31.7236L44.0461 30.756L49.9357 37.6931L48.7366 38.7111L44.4456 33.657L45.2384 41.6812L44.0888 42.6572ZM103.058 23.7793C103.919 24.1482 104.533 24.6616 104.901 25.3195C105.27 25.9773 105.314 26.6328 105.034 27.2859C104.648 28.186 103.896 28.6319 102.777 28.6237C103.214 28.9902 103.508 29.4039 103.659 29.8649C103.811 30.3258 103.775 30.8151 103.553 31.3329C103.249 32.0417 102.715 32.5059 101.952 32.7254C101.188 32.9448 100.348 32.8581 99.4323 32.4653C98.6438 32.1272 98.0106 31.7236 97.5328 31.2546C97.0663 30.7811 96.6892 30.2092 96.4014 29.5388L97.6374 28.8666C98.1004 29.9421 98.8695 30.7104 99.9447 31.1715C100.407 31.3697 100.841 31.4238 101.247 31.334C101.665 31.2397 101.956 31.0013 102.12 30.619C102.297 30.2048 102.253 29.823 101.988 29.4736C101.723 29.1242 101.304 28.8265 100.731 28.5805L99.7867 28.1758L100.309 26.9571L101.241 27.3567C101.783 27.589 102.249 27.6665 102.641 27.5892C103.036 27.504 103.317 27.2662 103.484 26.8759C103.635 26.5254 103.609 26.1795 103.406 25.838C103.212 25.5 102.879 25.2302 102.409 25.0287C101.493 24.6359 100.58 24.6118 99.668 24.9564L99.2893 23.6624C100.536 23.1972 101.792 23.2362 103.058 23.7793ZM103.529 34.1309L111.963 28.7556L113.193 29.582L111.406 39.4225L110.003 38.4802L110.462 36.1418L106.89 33.7424L104.888 35.0442L103.529 34.1309ZM108.166 32.8923L110.767 34.6393L111.491 30.7406L108.166 32.8923ZM112.54 40.4588L118.989 34.0383L124.226 39.2987L117.777 45.7192L116.649 44.5861L122.076 39.1837L119.095 36.1896L113.668 41.592L112.54 40.4588ZM120.002 48.8933C119.654 48.3753 119.449 47.798 119.387 47.1612L120.72 47.0013C120.751 47.3882 120.879 47.7507 121.106 48.0888C121.411 48.542 121.95 48.754 122.724 48.7247L126.326 41.7313L127.326 43.2204L124.515 48.5235L130.299 47.6444L131.263 49.0795L123.382 50.0997C121.81 50.3097 120.684 49.9076 120.002 48.8933ZM125.863 59.4537C125.347 58.2415 125.331 57.0523 125.814 55.886C126.305 54.7163 127.161 53.8718 128.381 53.3527C129.593 52.8369 130.791 52.8076 131.974 53.2648C133.158 53.722 134.016 54.5766 134.549 55.8286C134.857 56.5543 135.007 57.2159 134.998 57.8133C134.991 58.4187 134.872 59.0346 134.639 59.661L133.149 59.1792C133.524 58.1343 133.538 57.2052 133.192 56.3918C132.853 55.5943 132.284 55.0545 131.486 54.7725C130.691 54.4984 129.875 54.5396 129.038 54.8958C128.208 55.2487 127.614 55.8122 127.256 56.5862C126.906 57.3569 126.899 58.1369 127.235 58.9264C127.438 59.4049 127.706 59.7903 128.037 60.0825C128.377 60.3713 128.813 60.633 129.346 60.8677L128.791 62.2199C128.097 61.9597 127.514 61.6191 127.043 61.1979C126.571 60.7768 126.178 60.1954 125.863 59.4537ZM127.893 64.3887L136.787 62.4612L137.125 64.024L132.653 64.9932L138.042 68.2547L138.458 70.1732L133.833 67.3048L129.6 72.2658L129.19 70.3728L132.534 66.4689L130.811 65.3924L128.232 65.9514L127.893 64.3887ZM116.301 112.899L122.371 119.678L121.103 120.814L116.169 119.456L116.977 124.509L115.708 125.645L109.638 118.865L110.829 117.798L115.182 122.66L114.461 117.548L114.5 117.513L119.465 118.791L115.129 113.948L116.301 112.899ZM108.444 119.823L109.503 129.769L108.216 130.502L100.199 124.522L101.667 123.686L103.557 125.137L107.296 123.007L107.021 120.634L108.444 119.823ZM107.489 124.527L104.767 126.079L107.936 128.462L107.489 124.527ZM98.7503 125.022L101.209 133.784L99.6819 134.212L97.6096 126.827L94.1676 127.793L96.2398 135.178L94.7003 135.61L92.628 128.225L89.186 129.191L91.2582 136.576L89.7312 137.004L87.2726 128.243L98.7503 125.022ZM85.0296 128.584L85.3352 137.678L83.7631 137.731L83.54 131.092L79.1637 137.886L77.6696 137.936L77.3639 128.841L78.936 128.788L79.1587 135.415L83.5224 128.634L85.0296 128.584ZM75.0383 128.692L73.572 137.673L71.9939 137.415L72.6035 133.682L68.3182 132.982L67.7086 136.716L66.1305 136.458L67.5969 127.477L69.175 127.735L68.557 131.52L72.8423 132.219L73.4602 128.434L75.0383 128.692ZM65.3757 126.857L61.9938 135.305L60.5214 134.716L61.7389 131.674L59.7958 130.896C58.8302 130.51 58.1553 129.969 57.7708 129.274C57.3751 128.583 57.3447 127.82 57.6797 126.983C58.0211 126.13 58.5773 125.568 59.3482 125.298C60.1159 125.036 60.9906 125.101 61.9722 125.494L65.3757 126.857ZM63.3718 127.595L61.4649 126.832C60.9098 126.609 60.435 126.559 60.0407 126.682C59.6351 126.809 59.3373 127.11 59.1473 127.584C58.9733 128.019 58.9941 128.41 59.2097 128.757C59.4221 129.113 59.8098 129.404 60.373 129.629L62.2558 130.383L63.3718 127.595ZM57.7843 123.818L54.4024 132.266L52.93 131.677L56.3119 123.229L57.7843 123.818Z" fill="#5E524E"/>
</svg>
