<svg width="158" height="158" viewBox="0 0 158 158" fill="none" xmlns="http://www.w3.org/2000/svg">
<path d="M56.2799 105.872L49.5531 97.8883L48.2246 99.8315L46.7069 98.7565L48.5989 95.7501L49.7828 94.7527L57.9593 104.457L56.2799 105.872ZM63.1296 100.384C62.0008 101.335 60.6482 101.815 59.0719 101.825L58.9039 99.7543C60.1301 99.7569 61.1194 99.4412 61.8719 98.8072C62.5693 98.2195 62.8926 97.4764 62.8416 96.5779C62.7829 95.6701 62.3846 94.7504 61.6467 93.8187C61.6499 94.9772 61.1835 95.9508 60.2474 96.7394C59.2196 97.6054 58.1578 98.0214 57.0622 97.9874C55.9665 97.9533 55.0243 97.4683 54.2356 96.5322C53.4315 95.5778 53.0977 94.5018 53.2341 93.3042C53.3705 92.1065 53.9664 91.0631 55.0217 90.1739C56.123 89.2461 57.2992 88.8357 58.5505 88.9426C59.9877 89.0654 61.4177 89.9711 62.8404 91.6597C64.1625 93.2289 64.8579 94.8085 64.9264 96.3984C65.0041 97.9805 64.4052 99.3089 63.1296 100.384ZM57.4631 95.8372C58.0916 95.8569 58.7041 95.6154 59.3006 95.1128C59.8971 94.6102 60.2267 94.0423 60.2893 93.4089C60.3611 92.7678 60.1883 92.1995 59.7708 91.7039C59.3378 91.19 58.7986 90.9225 58.1531 90.9014C57.5 90.8712 56.8705 91.1112 56.2649 91.6215C55.6775 92.1163 55.3564 92.685 55.3015 93.3276C55.248 93.9532 55.4417 94.5275 55.8824 95.0506C56.3077 95.5554 56.8345 95.8176 57.4631 95.8372ZM69.9454 94.3586L63.2186 86.3747L61.89 88.3178L60.3724 87.2428L62.2644 84.2365L63.4482 83.239L71.6248 92.9437L69.9454 94.3586ZM74.9902 90.1082L68.2634 82.1242L66.9349 84.0673L65.4172 82.9923L67.3092 79.986L68.493 78.9886L76.6696 88.6932L74.9902 90.1082ZM75.4909 83.8726L74.1108 82.2345L78.1854 78.8015L79.5655 80.4396L75.4909 83.8726ZM84.8244 81.8225L78.0976 73.8385L76.7691 75.7816L75.2514 74.7066L77.1434 71.7003L78.3273 70.7029L86.5038 80.4075L84.8244 81.8225ZM91.674 76.3338C90.5453 77.2849 89.1927 77.7654 87.6164 77.7755L87.4484 75.7045C88.6745 75.707 89.6639 75.3913 90.4164 74.7573C91.1138 74.1697 91.4371 73.4266 91.3861 72.528C91.3274 71.6203 90.9291 70.7006 90.1912 69.7688C90.1944 70.9273 89.728 71.9009 88.7919 72.6896C87.7641 73.5555 86.7023 73.9715 85.6066 73.9375C84.511 73.9035 83.5688 73.4184 82.7801 72.4824C81.976 71.528 81.6422 70.452 81.7786 69.2543C81.915 68.0567 82.5109 67.0133 83.5662 66.1241C84.6675 65.1962 85.8437 64.7858 87.095 64.8927C88.5322 65.0155 89.9622 65.9212 91.3849 67.6098C92.707 69.1791 93.4024 70.7586 93.4709 72.3485C93.5486 73.9306 92.9496 75.2591 91.674 76.3338ZM86.0076 71.7873C86.6361 71.807 87.2486 71.5655 87.8451 71.063C88.4416 70.5604 88.7712 69.9924 88.8338 69.359C88.9056 68.7179 88.7328 68.1496 88.3153 67.6541C87.8823 67.1402 87.3431 66.8727 86.6976 66.8516C86.0445 66.8213 85.415 67.0613 84.8094 67.5716C84.222 68.0665 83.9009 68.6352 83.846 69.2777C83.7925 69.9033 83.9862 70.4777 84.4269 71.0008C84.8521 71.5055 85.379 71.7677 86.0076 71.7873ZM101.711 67.5949L99.8901 65.4337L95.0309 69.5278L93.6937 68.5832L93.7134 57.7394L95.1588 56.5217L100.343 62.6748L101.72 61.515L102.891 62.9053L101.514 64.0651L103.335 66.2263L101.711 67.5949ZM95.5527 66.7109L98.7187 64.0434L95.5061 60.2303L95.5527 66.7109ZM109.32 61.4663C107.971 62.6029 106.378 63.1055 104.541 62.974L104.555 60.8675C106.031 60.9425 107.182 60.632 108.007 59.9361C108.586 59.449 108.921 58.9071 109.015 58.3105C109.101 57.7047 108.927 57.1448 108.494 56.6309C108.084 56.1445 107.572 55.9176 106.956 55.9501C106.341 55.9657 105.74 56.2209 105.153 56.7158C104.575 57.2029 104.103 57.8438 103.737 58.6386L102.15 58.8224L98.447 53.8689L104.201 49.0209L105.465 50.5214L101.17 54.1399L102.921 56.525C103.271 55.9162 103.703 55.3953 104.217 54.9624C105.199 54.135 106.222 53.72 107.287 53.7174C108.352 53.7147 109.302 54.2089 110.137 55.2C110.964 56.1819 111.299 57.2495 111.14 58.4027C110.991 59.5482 110.385 60.5694 109.32 61.4663Z" fill="#5E524E"/>
<g filter="url(#filter0_g_2281_2697)">
<circle cx="79" cy="79" r="70.5" stroke="#5E524E"/>
</g>
<g filter="url(#filter1_g_2281_2697)">
<circle cx="79" cy="79" r="77" stroke="#5E524E" stroke-width="2"/>
</g>
<path d="M35.1378 55.5397L27.3759 50.7897L30.572 45.567L31.8028 46.3203L29.4346 50.1901L35.9657 54.187L35.1378 55.5397ZM43.6285 42.513C43.7066 43.7976 43.2839 44.9514 42.3606 45.9743C41.4373 46.9972 40.3388 47.5351 39.0652 47.5881C37.7915 47.641 36.6658 47.2261 35.6879 46.3434C34.7229 45.4724 34.2013 44.3945 34.1233 43.1099C34.0453 41.8253 34.4679 40.6715 35.3913 39.6486C36.3146 38.6257 37.413 38.0877 38.6867 38.0348C39.9603 37.9819 41.0861 38.3968 42.064 39.2795C43.029 40.1505 43.5505 41.2283 43.6285 42.513ZM39.1032 45.9937C39.9613 45.9744 40.6894 45.6334 41.2875 44.9707C41.8857 44.3081 42.1448 43.5554 42.0648 42.7127C41.9907 41.8635 41.6158 41.1341 40.9403 40.5243C40.2712 39.9204 39.5076 39.6281 38.6496 39.6475C37.7908 39.6546 37.0624 39.9895 36.4643 40.6522C35.8662 41.3148 35.6042 42.0707 35.6783 42.9199C35.7583 43.7626 36.136 44.4888 36.8115 45.0985C37.4806 45.7025 38.2445 46.0009 39.1032 45.9937ZM47.1897 43.2794L45.1995 40.5475L45.914 40.027C45.6392 38.3399 44.6981 36.3932 43.0905 34.1866L42.3327 33.1464L47.4602 29.4108L51.9766 35.6101L52.8908 34.9441L54.7024 37.8061L53.6307 38.5869L52.4824 37.0108L47.3024 40.7847L48.3245 42.4527L47.1897 43.2794ZM47.2904 39.0242L50.6842 36.5516L47.0175 31.5187L44.4222 33.4094L45.0346 34.25C46.2849 35.9662 47.0369 37.5576 47.2904 39.0242ZM54.9985 35.4906L51.3555 27.1516L52.8088 26.5167L54.1203 29.5187L56.0383 28.6808C56.9913 28.2644 57.8504 28.1634 58.6155 28.3777C59.385 28.5806 59.9502 29.095 60.3111 29.921C60.6788 30.7628 60.6884 31.5531 60.3396 32.2918C59.9874 33.0226 59.3268 33.5997 58.3579 34.0229L54.9985 35.4906ZM55.8794 33.5452L57.7616 32.7229C58.3096 32.4835 58.6784 32.1805 58.8682 31.8139C59.0624 31.4359 59.0572 31.0126 58.8525 30.544C58.6652 30.1151 58.372 29.8554 57.9731 29.7649C57.5707 29.6664 57.0915 29.7386 56.5356 29.9815L54.6772 30.7934L55.8794 33.5452ZM62.4916 32.2171L58.8486 23.8781L60.302 23.2432L63.945 31.5821L62.4916 32.2171ZM128.411 91.7063L137.087 94.4497L136.005 97.8708C135.687 98.8789 135.169 99.5969 134.452 100.025C133.735 100.452 132.93 100.525 132.038 100.243C131.104 99.9477 130.481 99.3872 130.17 98.5616C129.855 97.7441 129.856 96.8355 130.173 95.8356L130.717 94.1127L127.928 93.2309L128.411 91.7063ZM132.093 94.5477L131.533 96.3202C131.353 96.8904 131.353 97.3906 131.536 97.8209C131.718 98.2511 132.044 98.5407 132.515 98.6897C133.011 98.8464 133.445 98.7972 133.816 98.542C134.193 98.2977 134.473 97.8863 134.656 97.3079L135.217 95.5354L132.093 94.5477ZM125.963 99.2022L132.122 107.083L131.417 108.386L121.451 107.551L122.254 106.064L124.626 106.297L126.672 102.511L125.184 100.643L125.963 99.2022ZM127.64 103.7L126.151 106.456L130.101 106.803L127.64 103.7ZM120.53 108.781L127.555 114.566L123.241 119.805L122.127 118.887L125.432 114.873L123.817 113.543L122.205 115.5C121.561 116.282 120.864 116.747 120.114 116.893C119.36 117.046 118.648 116.848 117.979 116.297C117.283 115.724 116.938 115.052 116.943 114.282C116.949 113.512 117.288 112.719 117.96 111.902L120.53 108.781ZM120.625 110.915L119.287 112.541C118.824 113.103 118.563 113.583 118.503 113.983C118.45 114.389 118.631 114.762 119.045 115.104C119.734 115.671 120.47 115.48 121.252 114.53L122.773 112.683L120.625 110.915ZM109.25 121.57C109.371 120.289 109.966 119.214 111.036 118.346C112.106 117.477 113.275 117.115 114.541 117.259C115.808 117.403 116.856 117.987 117.686 119.01C118.505 120.019 118.854 121.164 118.734 122.446C118.613 123.727 118.017 124.802 116.947 125.67C115.877 126.538 114.709 126.901 113.442 126.756C112.176 126.612 111.127 126.029 110.297 125.006C109.478 123.997 109.129 122.851 109.25 121.57ZM114.258 118.828C113.407 118.715 112.635 118.94 111.942 119.503C111.249 120.065 110.877 120.769 110.826 121.614C110.768 122.464 111.026 123.243 111.599 123.949C112.167 124.649 112.877 125.056 113.728 125.169C114.577 125.294 115.348 125.076 116.042 124.513C116.735 123.951 117.11 123.244 117.168 122.394C117.219 121.549 116.957 120.773 116.384 120.066C115.816 119.366 115.107 118.954 114.258 118.828ZM103.853 123.544L107.444 130.263L109.989 128.902L110.687 130.209L104.175 133.69L103.477 132.383L106.022 131.023L102.431 124.304L103.853 123.544ZM98.3086 126.236L100.867 134.969L99.3451 135.415L98.424 132.271L96.4155 132.86C95.4174 133.152 94.5525 133.144 93.8206 132.834C93.0829 132.536 92.5873 131.954 92.3339 131.089C92.0756 130.207 92.1662 129.422 92.6057 128.733C93.0475 128.053 93.7758 127.564 94.7905 127.267L98.3086 126.236ZM97.1886 128.055L95.2175 128.632C94.6436 128.8 94.2394 129.054 94.0047 129.394C93.7642 129.744 93.7158 130.165 93.8596 130.655C93.9912 131.105 94.2491 131.399 94.6334 131.54C95.0201 131.688 95.5046 131.677 96.0867 131.507L98.0329 130.936L97.1886 128.055ZM90.4615 128.535L93.02 137.268L91.4979 137.714L88.9394 128.981L90.4615 128.535Z" fill="#5E524E"/>
<defs>
<filter id="filter0_g_2281_2697" x="7" y="7" width="144" height="144" filterUnits="userSpaceOnUse" color-interpolation-filters="sRGB">
<feFlood flood-opacity="0" result="BackgroundImageFix"/>
<feBlend mode="normal" in="SourceGraphic" in2="BackgroundImageFix" result="shape"/>
<feTurbulence type="fractalNoise" baseFrequency="0.5 0.5" numOctaves="3" seed="9727" />
<feDisplacementMap in="shape" scale="2" xChannelSelector="R" yChannelSelector="G" result="displacedImage" width="100%" height="100%" />
<feMerge result="effect1_texture_2281_2697">
<feMergeNode in="displacedImage"/>
</feMerge>
</filter>
<filter id="filter1_g_2281_2697" x="0" y="0" width="158" height="158" filterUnits="userSpaceOnUse" color-interpolation-filters="sRGB">
<feFlood flood-opacity="0" result="BackgroundImageFix"/>
<feBlend mode="normal" in="SourceGraphic" in2="BackgroundImageFix" result="shape"/>
<feTurbulence type="fractalNoise" baseFrequency="0.5 0.5" numOctaves="3" seed="9727" />
<feDisplacementMap in="shape" scale="2" xChannelSelector="R" yChannelSelector="G" result="displacedImage" width="100%" height="100%" />
<feMerge result="effect1_texture_2281_2697">
<feMergeNode in="displacedImage"/>
</feMerge>
</filter>
</defs>
</svg>
