<svg width="130" height="130" viewBox="0 0 130 130" fill="none" xmlns="http://www.w3.org/2000/svg">
<path d="M55.2995 79.1666L54.3751 78.0695L55.1474 73.4543C55.3115 72.5167 55.3721 71.8081 55.3291 71.3286C55.2873 70.8352 55.1202 70.4151 54.828 70.0682C54.5103 69.6912 54.1388 69.495 53.7132 69.4796C53.2813 69.4567 52.8807 69.6009 52.5112 69.9122C52.1643 70.2045 51.9308 70.5624 51.8107 70.9859C51.698 71.4032 51.6543 71.9557 51.6795 72.6436L50.0475 72.7036C49.9718 71.7874 50.0377 71.0164 50.2452 70.3903C50.4538 69.7504 50.8937 69.1477 51.5647 68.5823C52.3414 67.9279 53.1552 67.6161 54.0063 67.6469C54.8574 67.6776 55.5847 68.0512 56.1882 68.7675C56.4487 69.0767 56.646 69.3874 56.7803 69.6998C56.9082 70.0046 56.9821 70.3678 57.002 70.7893C57.0232 71.197 57.0096 71.6017 56.9613 72.0034C56.9141 72.3912 56.8311 72.9124 56.7122 73.567L56.227 76.2965L59.9934 73.1232L61.0226 74.3447L55.2995 79.1666ZM65.5399 70.7708C64.5144 71.6348 63.3578 71.9453 62.0701 71.7023C60.776 71.4518 59.6365 70.7421 58.6518 69.5734C57.6798 68.4197 57.1839 67.1808 57.1641 65.8566C57.1455 64.5185 57.6452 63.4206 58.6631 62.5629C59.6811 61.7053 60.8371 61.4017 62.1312 61.6523C63.4329 61.8965 64.5729 62.5991 65.5512 63.7604C66.5232 64.914 67.0185 66.1599 67.0371 67.498C67.0569 68.8222 66.5578 69.9131 65.5399 70.7708ZM62.3483 69.9207C63.1827 70.146 63.9015 70.0045 64.5047 69.4963C65.108 68.988 65.365 68.3137 65.2759 67.4734C65.1879 66.6192 64.8009 65.785 64.1148 64.9706C63.4414 64.1713 62.6874 63.6591 61.853 63.4338C61.0122 63.201 60.294 63.3356 59.6983 63.8375C59.0951 64.3457 58.8374 65.0269 58.9254 65.8811C59.0145 66.7214 59.4021 67.5488 60.0883 68.3631C60.7617 69.1624 61.515 69.6816 62.3483 69.9207ZM69.6315 67.0913L68.7072 65.9942L69.4794 61.379C69.6435 60.4413 69.7041 59.7328 69.6611 59.2533C69.6193 58.7599 69.4523 58.3398 69.16 57.9929C68.8424 57.6159 68.4708 57.4197 68.0453 57.4043C67.6134 57.3814 67.2127 57.5256 66.8432 57.8369C66.4964 58.1292 66.2629 58.4871 66.1427 58.9106C66.0301 59.3278 65.9864 59.8804 66.0115 60.5683L64.3795 60.6283C64.3039 59.7121 64.3698 58.941 64.5772 58.315C64.7858 57.6751 65.2257 57.0724 65.8968 56.507C66.6734 55.8526 67.4873 55.5408 68.3383 55.5716C69.1894 55.6023 69.9167 55.9759 70.5202 56.6922C70.7807 57.0013 70.9781 57.3121 71.1123 57.6245C71.2402 57.9293 71.3141 58.2925 71.3341 58.714C71.3552 59.1217 71.3416 59.5264 71.2933 59.9281C71.2462 60.3159 71.1631 60.8371 71.0442 61.4917L70.5591 64.2212L74.3254 61.0479L75.3546 62.2694L69.6315 67.0913ZM79.3064 59.1719C78.0472 60.2329 76.6461 60.6205 75.1031 60.3347L75.3134 58.6103C76.486 58.8085 77.472 58.5708 78.2713 57.8974C78.6709 57.5607 78.9068 57.175 78.9789 56.7404C79.0447 56.2981 78.9219 55.8923 78.6106 55.5228C78.2866 55.1383 77.8698 54.9802 77.3601 55.0486C76.8517 55.1031 76.3184 55.3654 75.7605 55.8355L75.1158 56.3787L74.1558 55.6984L74.378 51.6239L70.951 54.5114L69.9313 53.3012L75.1681 48.889L76.0448 49.9295L75.7451 54.0499C76.5214 53.5634 77.2801 53.3239 78.0212 53.3312C78.756 53.3311 79.406 53.6665 79.9715 54.3376C80.5877 55.069 80.8326 55.8876 80.7062 56.7935C80.5874 57.693 80.1208 58.4858 79.3064 59.1719Z" fill="#9B8C87"/>
<g filter="url(#filter0_g_2294_5600)">
<circle cx="64.9118" cy="64.9108" r="57.9268" stroke="#9B8C87" stroke-width="0.821656"/>
</g>
<g filter="url(#filter1_g_2294_5600)">
<circle cx="64.9114" cy="64.9108" r="63.2675" stroke="#9B8C87" stroke-width="1.64331"/>
</g>
<path d="M26.2236 51.8045L17.2725 47.8147L19.0621 43.7995C19.5219 42.768 20.1339 42.1058 20.898 41.8128C21.4772 41.5908 22.0695 41.6146 22.6748 41.8844C23.5614 42.2796 24.0363 43.0022 24.0996 44.0523C25.0285 43.0459 26.0257 42.7802 27.0913 43.2552C27.8756 43.6047 28.3478 44.1729 28.5081 44.9596C28.6684 45.7463 28.5224 46.6469 28.0702 47.6614L26.2236 51.8045ZM21.7344 47.9489L22.6919 45.8006C22.9237 45.2806 23.0038 44.8258 22.9322 44.4362C22.8558 44.0343 22.6131 43.7422 22.2039 43.5598C21.8458 43.4002 21.508 43.4131 21.1903 43.5985C20.8641 43.7801 20.589 44.1224 20.3648 44.6254L19.3559 46.8887L21.7344 47.9489ZM25.5194 49.6359L26.6821 47.0273C26.9253 46.4818 27.0068 46.0123 26.9267 45.6189C26.8504 45.217 26.6076 44.9249 26.1984 44.7425C25.3971 44.3853 24.7228 44.8205 24.1757 46.0481L23.0642 48.5416L25.5194 49.6359ZM30.4009 43.1235L22.5667 37.2358L26.932 31.4273L28.1631 32.3525L24.8324 36.7844L26.8693 38.3152L29.8215 34.3869L31.0526 35.3121L28.1003 39.2404L30.2044 40.8217L33.5772 36.3338L34.8083 37.259L30.4009 43.1235ZM35.4112 36.6497L34.9268 30.5382L29.1999 29.0682L30.7516 27.7594L34.8793 28.875L34.4866 24.6093L35.9955 23.3366L36.4712 29.199L42.4209 30.7376L40.8691 32.0464L36.508 30.8712L36.9201 35.3771L35.4112 36.6497ZM43.6027 30.1351L39.2594 21.3501L40.778 20.5993L43.9485 27.0124L45.2207 18.4029L46.6639 17.6893L51.0072 26.4743L49.4886 27.2251L46.3242 20.8246L45.0585 29.4153L43.6027 30.1351ZM103.803 80.2186L111.412 83.2848L112.574 80.402L114.054 80.9985L111.082 88.3742L109.602 87.7777L110.764 84.895L103.154 81.8288L103.803 80.2186ZM101.233 85.872L109.322 91.4036L107.141 94.5932C106.499 95.5332 105.741 96.1119 104.869 96.3295C103.996 96.547 103.144 96.3713 102.312 95.8023C101.441 95.207 100.974 94.4353 100.91 93.487C100.841 92.5465 101.125 91.6101 101.763 90.6779L102.861 89.0715L100.261 87.2935L101.233 85.872ZM104.144 89.9487L103.014 91.6012C102.65 92.1329 102.495 92.6488 102.549 93.149C102.603 93.6493 102.849 94.0496 103.288 94.3499C103.75 94.666 104.213 94.7504 104.675 94.6031C105.14 94.4687 105.557 94.1319 105.926 93.5926L107.056 91.94L104.144 89.9487ZM94.6459 94.0879C95.1379 93.6302 95.7172 93.3143 96.3839 93.1402L96.7795 94.5314C96.3731 94.629 96.0093 94.8272 95.6882 95.126C95.2577 95.5265 95.1234 96.1359 95.2854 96.954L103.333 99.602L101.918 100.918L95.8024 98.8251L97.7155 104.828L96.3523 106.096L93.9343 97.8859C93.4452 96.2503 93.6824 94.9843 94.6459 94.0879ZM88.5909 97.1015L90.3561 100.285L89.5235 100.747C89.5937 102.586 90.3417 104.791 91.7674 107.362L92.4396 108.574L86.4647 111.888L82.459 104.664L81.3938 105.255L79.8367 101.956L81.0856 101.263L82.104 103.1L88.14 99.7528L87.2686 97.8348L88.5909 97.1015ZM87.9196 101.636L83.965 103.829L87.2171 109.694L90.2412 108.017L89.6981 107.037C88.5891 105.037 87.9963 103.237 87.9196 101.636ZM80.3897 103.931L78.6946 114.567L77.1498 114.968L70.4972 106.497L72.2589 106.04L73.8152 108.081L78.3007 106.917L78.6822 104.374L80.3897 103.931ZM78.0741 108.552L74.8083 109.4L77.4324 112.769L78.0741 108.552Z" fill="#9B8C87"/>
<defs>
<filter id="filter0_g_2294_5600" x="5.75256" y="5.75159" width="118.319" height="118.318" filterUnits="userSpaceOnUse" color-interpolation-filters="sRGB">
<feFlood flood-opacity="0" result="BackgroundImageFix"/>
<feBlend mode="normal" in="SourceGraphic" in2="BackgroundImageFix" result="shape"/>
<feTurbulence type="fractalNoise" baseFrequency="0.60852712392807007 0.60852712392807007" numOctaves="3" seed="9727" />
<feDisplacementMap in="shape" scale="1.6433120965957642" xChannelSelector="R" yChannelSelector="G" result="displacedImage" width="100%" height="100%" />
<feMerge result="effect1_texture_2294_5600">
<feMergeNode in="displacedImage"/>
</feMerge>
</filter>
<filter id="filter1_g_2294_5600" x="0.000609577" y="-7.7486e-07" width="129.821" height="129.822" filterUnits="userSpaceOnUse" color-interpolation-filters="sRGB">
<feFlood flood-opacity="0" result="BackgroundImageFix"/>
<feBlend mode="normal" in="SourceGraphic" in2="BackgroundImageFix" result="shape"/>
<feTurbulence type="fractalNoise" baseFrequency="0.60852712392807007 0.60852712392807007" numOctaves="3" seed="9727" />
<feDisplacementMap in="shape" scale="1.6433120965957642" xChannelSelector="R" yChannelSelector="G" result="displacedImage" width="100%" height="100%" />
<feMerge result="effect1_texture_2294_5600">
<feMergeNode in="displacedImage"/>
</feMerge>
</filter>
</defs>
</svg>
