<svg width="130" height="130" viewBox="0 0 130 130" fill="none" xmlns="http://www.w3.org/2000/svg">
<path d="M40.652 91.5085L39.7277 90.4114L40.4999 85.7962C40.664 84.8585 40.7246 84.15 40.6816 83.6705C40.6398 83.1771 40.4728 82.757 40.1805 82.4101C39.8629 82.0331 39.4913 81.8369 39.0658 81.8215C38.6339 81.7986 38.2332 81.9428 37.8637 82.2541C37.5169 82.5463 37.2834 82.9042 37.1632 83.3278C37.0506 83.745 37.0068 84.2976 37.032 84.9855L35.4 85.0454C35.3244 84.1293 35.3902 83.3582 35.5977 82.7322C35.8063 82.0923 36.2462 81.4896 36.9173 80.9242C37.6939 80.2698 38.5078 79.958 39.3588 79.9888C40.2099 80.0195 40.9372 80.393 41.5407 81.1094C41.8012 81.4185 41.9985 81.7293 42.1328 82.0416C42.2607 82.3465 42.3346 82.7097 42.3546 83.1312C42.3757 83.5389 42.3621 83.9435 42.3138 84.3453C42.2666 84.7331 42.1836 85.2543 42.0647 85.9089L41.5795 88.6384L45.3459 85.4651L46.3751 86.6866L40.652 91.5085ZM50.8924 83.1127C49.8669 83.9767 48.7103 84.2872 47.4226 84.0442C46.1285 83.7936 44.9891 83.084 44.0044 81.9152C43.0323 80.7616 42.5364 79.5226 42.5167 78.1984C42.4981 76.8604 42.9977 75.7625 44.0157 74.9048C45.0336 74.0472 46.1896 73.7436 47.4837 73.9941C48.7854 74.2383 49.9254 74.941 50.9037 76.1022C51.8757 77.2559 52.3711 78.5018 52.3897 79.8399C52.4094 81.1641 51.9104 82.255 50.8924 83.1127ZM47.7008 82.2626C48.5352 82.4879 49.254 82.3464 49.8573 81.8381C50.4605 81.3299 50.7175 80.6556 50.6284 79.8153C50.5405 78.9611 50.1534 78.1268 49.4673 77.3125C48.7939 76.5132 48.04 76.001 47.2055 75.7757C46.3647 75.5429 45.6465 75.6775 45.0508 76.1793C44.4476 76.6876 44.19 77.3688 44.2779 78.223C44.367 79.0633 44.7547 79.8906 45.4408 80.705C46.1142 81.5043 46.8675 82.0235 47.7008 82.2626ZM54.9841 79.4332L54.0597 78.3361L54.832 73.7208C54.9961 72.7832 55.0566 72.0747 55.0136 71.5952C54.9718 71.1018 54.8048 70.6817 54.5126 70.3348C54.1949 69.9578 53.8233 69.7616 53.3978 69.7462C52.9659 69.7233 52.5652 69.8675 52.1958 70.1788C51.8489 70.471 51.6154 70.8289 51.4952 71.2525C51.3826 71.6697 51.3389 72.2223 51.3641 72.9102L49.732 72.9701C49.6564 72.054 49.7223 71.2829 49.9297 70.6569C50.1384 70.017 50.5782 69.4143 51.2493 68.8489C52.026 68.1945 52.8398 67.8827 53.6909 67.9135C54.5419 67.9442 55.2692 68.3177 55.8728 69.0341C56.1332 69.3432 56.3306 69.654 56.4648 69.9663C56.5927 70.2712 56.6666 70.6343 56.6866 71.0559C56.7077 71.4635 56.6942 71.8682 56.6458 72.27C56.5987 72.6578 56.5157 73.179 56.3967 73.8336L55.9116 76.5631L59.678 73.3898L60.7072 74.6113L54.9841 79.4332ZM63.0403 72.6455L57.5132 66.0855L56.4216 67.682L55.1746 66.7988L56.7292 64.3286L57.7019 63.509L64.4202 71.4829L63.0403 72.6455ZM63.4517 67.522L62.3177 66.1761L65.6656 63.3553L66.7996 64.7013L63.4517 67.522ZM70.004 66.7783L69.0796 65.6812L69.8519 61.066C70.016 60.1283 70.0766 59.4198 70.0336 58.9403C69.9918 58.4469 69.8247 58.0268 69.5325 57.6799C69.2149 57.3029 68.8433 57.1067 68.4177 57.0913C67.9859 57.0684 67.5852 57.2126 67.2157 57.5239C66.8689 57.8161 66.6353 58.174 66.5152 58.5976C66.4025 59.0148 66.3588 59.5674 66.384 60.2553L64.752 60.3152C64.6763 59.3991 64.7422 58.628 64.9497 58.002C65.1583 57.3621 65.5982 56.7594 66.2693 56.194C67.0459 55.5396 67.8598 55.2278 68.7108 55.2586C69.5619 55.2893 70.2892 55.6628 70.8927 56.3792C71.1532 56.6883 71.3505 56.9991 71.4848 57.3114C71.6127 57.6163 71.6866 57.9794 71.7066 58.401C71.7277 58.8087 71.7141 59.2133 71.6658 59.6151C71.6186 60.0029 71.5356 60.5241 71.4167 61.1787L70.9315 63.9082L74.6979 60.7349L75.7271 61.9564L70.004 66.7783ZM80.2444 58.3825C79.2189 59.2465 78.0623 59.557 76.7746 59.314C75.4805 59.0634 74.3411 58.3538 73.3563 57.185C72.3843 56.0314 71.8884 54.7924 71.8686 53.4682C71.85 52.1301 72.3497 51.0323 73.3677 50.1746C74.3856 49.317 75.5416 49.0134 76.8357 49.2639C78.1374 49.5081 79.2774 50.2108 80.2557 51.372C81.2277 52.5257 81.723 53.7716 81.7416 55.1097C81.7614 56.4339 81.2624 57.5248 80.2444 58.3825ZM77.0528 57.5324C77.8872 57.7577 78.606 57.6162 79.2093 57.1079C79.8125 56.5997 80.0695 55.9254 79.9804 55.0851C79.8925 54.2309 79.5054 53.3966 78.8193 52.5823C78.1459 51.783 77.392 51.2707 76.5575 51.0455C75.7167 50.8127 74.9985 50.9472 74.4028 51.4491C73.7996 51.9574 73.542 52.6386 73.6299 53.4928C73.719 54.3331 74.1066 55.1604 74.7928 55.9748C75.4662 56.7741 76.2195 57.2933 77.0528 57.5324ZM84.336 54.703L83.4117 53.6059L84.184 48.9906C84.3481 48.053 84.4086 47.3445 84.3656 46.865C84.3238 46.3716 84.1568 45.9515 83.8645 45.6046C83.5469 45.2276 83.1753 45.0314 82.7498 45.016C82.3179 44.9931 81.9172 45.1373 81.5477 45.4486C81.2009 45.7408 80.9674 46.0987 80.8472 46.5223C80.7346 46.9395 80.6909 47.4921 80.7161 48.18L79.084 48.2399C79.0084 47.3238 79.0743 46.5527 79.2817 45.9267C79.4903 45.2868 79.9302 44.6841 80.6013 44.1187C81.3779 43.4643 82.1918 43.1525 83.0429 43.1833C83.8939 43.214 84.6212 43.5875 85.2247 44.3039C85.4852 44.613 85.6826 44.9238 85.8168 45.2361C85.9447 45.541 86.0186 45.9041 86.0386 46.3257C86.0597 46.7333 86.0461 47.138 85.9978 47.5397C85.9507 47.9276 85.8677 48.4488 85.7487 49.1034L85.2636 51.8329L89.03 48.6596L90.0591 49.8811L84.336 54.703ZM90.9332 49.1446L90.0089 48.0475L90.7811 43.4323C90.9452 42.4946 91.0058 41.7861 90.9628 41.3066C90.921 40.8132 90.754 40.3931 90.4617 40.0462C90.1441 39.6692 89.7725 39.473 89.347 39.4576C88.9151 39.4347 88.5144 39.5789 88.1449 39.8902C87.7981 40.1824 87.5646 40.5403 87.4444 40.9639C87.3318 41.3811 87.288 41.9337 87.3132 42.6216L85.6812 42.6815C85.6056 41.7654 85.6715 40.9943 85.8789 40.3683C86.0875 39.7284 86.5274 39.1257 87.1985 38.5603C87.9751 37.9059 88.789 37.5941 89.64 37.6249C90.4911 37.6556 91.2184 38.0291 91.8219 38.7455C92.0824 39.0546 92.2798 39.3654 92.414 39.6777C92.5419 39.9826 92.6158 40.3458 92.6358 40.7673C92.6569 41.175 92.6433 41.5796 92.595 41.9814C92.5479 42.3692 92.4648 42.8904 92.3459 43.545L91.8607 46.2745L95.6271 43.1012L96.6563 44.3227L90.9332 49.1446Z" fill="#9B8C87"/>
<g filter="url(#filter0_g_2294_5572)">
<circle cx="64.9118" cy="64.9108" r="57.9268" stroke="#9B8C87" stroke-width="0.821656"/>
</g>
<g filter="url(#filter1_g_2294_5572)">
<circle cx="64.9114" cy="64.9108" r="63.2675" stroke="#9B8C87" stroke-width="1.64331"/>
</g>
<path d="M26.2236 51.8045L17.2725 47.8147L19.0621 43.7995C19.5219 42.768 20.1339 42.1058 20.898 41.8128C21.4772 41.5908 22.0695 41.6146 22.6748 41.8844C23.5614 42.2796 24.0363 43.0022 24.0996 44.0523C25.0285 43.0459 26.0257 42.7802 27.0913 43.2552C27.8756 43.6047 28.3478 44.1729 28.5081 44.9596C28.6684 45.7463 28.5224 46.6469 28.0702 47.6614L26.2236 51.8045ZM21.7344 47.9489L22.6919 45.8006C22.9237 45.2806 23.0038 44.8258 22.9322 44.4362C22.8558 44.0343 22.6131 43.7422 22.2039 43.5598C21.8458 43.4002 21.508 43.4131 21.1903 43.5985C20.8641 43.7801 20.589 44.1224 20.3648 44.6254L19.3559 46.8887L21.7344 47.9489ZM25.5194 49.6359L26.6821 47.0273C26.9253 46.4818 27.0068 46.0123 26.9267 45.6189C26.8504 45.217 26.6076 44.9249 26.1984 44.7425C25.3971 44.3853 24.7228 44.8205 24.1757 46.0481L23.0642 48.5416L25.5194 49.6359ZM30.4009 43.1235L22.5667 37.2358L26.932 31.4273L28.1631 32.3525L24.8324 36.7844L26.8693 38.3152L29.8215 34.3869L31.0526 35.3121L28.1003 39.2404L30.2044 40.8217L33.5772 36.3338L34.8083 37.259L30.4009 43.1235ZM35.4112 36.6497L34.9268 30.5382L29.1999 29.0682L30.7516 27.7594L34.8793 28.875L34.4866 24.6093L35.9955 23.3366L36.4712 29.199L42.4209 30.7376L40.8691 32.0464L36.508 30.8712L36.9201 35.3771L35.4112 36.6497ZM43.6027 30.1351L39.2594 21.3501L40.778 20.5993L43.9485 27.0124L45.2207 18.4029L46.6639 17.6893L51.0072 26.4743L49.4886 27.2251L46.3242 20.8246L45.0585 29.4153L43.6027 30.1351ZM103.803 80.2186L111.412 83.2848L112.574 80.402L114.054 80.9985L111.082 88.3742L109.602 87.7777L110.764 84.895L103.154 81.8288L103.803 80.2186ZM101.233 85.872L109.322 91.4036L107.141 94.5932C106.499 95.5332 105.741 96.1119 104.869 96.3295C103.996 96.547 103.144 96.3713 102.312 95.8023C101.441 95.207 100.974 94.4353 100.91 93.487C100.841 92.5465 101.125 91.6101 101.763 90.6779L102.861 89.0715L100.261 87.2935L101.233 85.872ZM104.144 89.9487L103.014 91.6012C102.65 92.1329 102.495 92.6488 102.549 93.149C102.603 93.6493 102.849 94.0496 103.288 94.3499C103.75 94.666 104.213 94.7504 104.675 94.6031C105.14 94.4687 105.557 94.1319 105.926 93.5926L107.056 91.94L104.144 89.9487ZM94.6459 94.0879C95.1379 93.6302 95.7172 93.3143 96.3839 93.1402L96.7795 94.5314C96.3731 94.629 96.0093 94.8272 95.6882 95.126C95.2577 95.5265 95.1234 96.1359 95.2854 96.954L103.333 99.602L101.918 100.918L95.8024 98.8251L97.7155 104.828L96.3523 106.096L93.9343 97.8859C93.4452 96.2503 93.6824 94.9843 94.6459 94.0879ZM88.5909 97.1015L90.3561 100.285L89.5235 100.747C89.5937 102.586 90.3417 104.791 91.7674 107.362L92.4396 108.574L86.4647 111.888L82.459 104.664L81.3938 105.255L79.8367 101.956L81.0856 101.263L82.104 103.1L88.14 99.7528L87.2686 97.8348L88.5909 97.1015ZM87.9196 101.636L83.965 103.829L87.2171 109.694L90.2412 108.017L89.6981 107.037C88.5891 105.037 87.9963 103.237 87.9196 101.636ZM80.3897 103.931L78.6946 114.567L77.1498 114.968L70.4972 106.497L72.2589 106.04L73.8152 108.081L78.3007 106.917L78.6822 104.374L80.3897 103.931ZM78.0741 108.552L74.8083 109.4L77.4324 112.769L78.0741 108.552Z" fill="#9B8C87"/>
<defs>
<filter id="filter0_g_2294_5572" x="5.75256" y="5.75159" width="118.319" height="118.318" filterUnits="userSpaceOnUse" color-interpolation-filters="sRGB">
<feFlood flood-opacity="0" result="BackgroundImageFix"/>
<feBlend mode="normal" in="SourceGraphic" in2="BackgroundImageFix" result="shape"/>
<feTurbulence type="fractalNoise" baseFrequency="0.60852712392807007 0.60852712392807007" numOctaves="3" seed="9727" />
<feDisplacementMap in="shape" scale="1.6433120965957642" xChannelSelector="R" yChannelSelector="G" result="displacedImage" width="100%" height="100%" />
<feMerge result="effect1_texture_2294_5572">
<feMergeNode in="displacedImage"/>
</feMerge>
</filter>
<filter id="filter1_g_2294_5572" x="0.000609577" y="-7.7486e-07" width="129.821" height="129.822" filterUnits="userSpaceOnUse" color-interpolation-filters="sRGB">
<feFlood flood-opacity="0" result="BackgroundImageFix"/>
<feBlend mode="normal" in="SourceGraphic" in2="BackgroundImageFix" result="shape"/>
<feTurbulence type="fractalNoise" baseFrequency="0.60852712392807007 0.60852712392807007" numOctaves="3" seed="9727" />
<feDisplacementMap in="shape" scale="1.6433120965957642" xChannelSelector="R" yChannelSelector="G" result="displacedImage" width="100%" height="100%" />
<feMerge result="effect1_texture_2294_5572">
<feMergeNode in="displacedImage"/>
</feMerge>
</filter>
</defs>
</svg>
